<svg width="88" height="88" viewBox="0 0 88 88" fill="none" xmlns="http://www.w3.org/2000/svg">
<path d="M21.0002 52.5981H74.996C76.6037 52.603 78.1617 52.041 79.3961 51.011C80.6305 49.981 81.4624 48.5489 81.7455 46.9663L86.9903 18.2058H14.7666L21.0002 52.5981Z" fill="#CDEBDB"/>
<path d="M73.2334 69.7942H24.1385L12.1442 3.84704C12.0038 3.05729 11.5919 2.34142 10.9795 1.82329C10.3672 1.30516 9.59302 1.01736 8.79093 1.00968H1.00968" stroke="black" stroke-width="2" stroke-linecap="round" stroke-linejoin="round"/>
<path d="M28.5235 86.9903C33.2721 86.9903 37.1215 83.1408 37.1215 78.3923C37.1215 73.6437 33.2721 69.7942 28.5235 69.7942C23.7749 69.7942 19.9254 73.6437 19.9254 78.3923C19.9254 83.1408 23.7749 86.9903 28.5235 86.9903Z" stroke="black" stroke-width="2" stroke-linecap="round" stroke-linejoin="round"/>
<path d="M73.2334 86.9903C77.982 86.9903 81.8315 83.1408 81.8315 78.3923C81.8315 73.6437 77.982 69.7942 73.2334 69.7942C68.4848 69.7942 64.6354 73.6437 64.6354 78.3923C64.6354 83.1408 68.4848 86.9903 73.2334 86.9903Z" stroke="black" stroke-width="2" stroke-linecap="round" stroke-linejoin="round"/>
<path d="M21.0002 52.5981H74.996C76.6037 52.603 78.1617 52.041 79.3961 51.011C80.6305 49.981 81.4624 48.5489 81.7455 46.9663L86.9903 18.2058H14.7666" stroke="black" stroke-width="2" stroke-linecap="round" stroke-linejoin="round"/>
</svg>
