<svg width="93" height="88" viewBox="0 0 93 88" fill="none" xmlns="http://www.w3.org/2000/svg">
<path opacity="0.2" d="M53.1059 54.0239C53.1064 51.5868 53.8507 49.208 55.2393 47.2052C56.6279 45.2024 58.5946 43.6711 60.8767 42.8159C63.1588 41.9607 65.6476 41.8223 68.0104 42.4193C70.3732 43.0162 72.4976 44.3201 74.0997 46.1566L85.302 28.6261C74.2908 19.6086 60.4972 14.6813 46.2647 14.6813C32.0322 14.6813 18.2387 19.6086 7.22741 28.6261L16.2919 42.8643C17.0784 40.8308 18.4052 39.0507 20.1293 37.716C21.8533 36.3813 23.9091 35.5428 26.0748 35.2909C28.2405 35.039 30.4338 35.3833 32.4182 36.2867C34.4025 37.19 36.1025 38.6181 37.3347 40.4168C38.5669 42.2155 39.2845 44.3165 39.4101 46.4932C39.5357 48.6699 39.0644 50.8395 38.0473 52.768C37.0301 54.6965 35.5057 56.3106 33.6384 57.4361C31.7711 58.5617 29.6318 59.1559 27.4516 59.1548H26.6392L43.4 85.4504C43.7036 85.9364 44.1258 86.3372 44.627 86.615C45.1281 86.8928 45.6917 87.0386 46.2647 87.0386C46.8377 87.0386 47.4013 86.8928 47.9025 86.615C48.4036 86.3372 48.8259 85.9364 49.1295 85.4504L61.7856 65.5684C59.2792 64.8515 57.0753 63.3361 55.5087 61.2525C53.9421 59.1688 53.0985 56.6308 53.1059 54.0239Z" fill="#079A4B"/>
<path d="M1.54019 19.6899C1.06441 18.9494 0.896499 18.0523 1.07219 17.1899C1.24788 16.3274 1.7533 15.5675 2.48084 15.0721C15.2472 5.92382 30.5584 1.00421 46.2642 1.00421C61.97 1.00421 77.2812 5.92382 90.0476 15.0721C90.7751 15.5675 91.2805 16.3274 91.4562 17.1899C91.6319 18.0523 91.464 18.9494 90.9882 19.6899L49.1289 85.4077C48.8253 85.8937 48.4031 86.2944 47.9019 86.5722C47.4008 86.85 46.8372 86.9958 46.2642 86.9958C45.6912 86.9958 45.1276 86.85 44.6265 86.5722C44.1253 86.2944 43.7031 85.8937 43.3995 85.4077L1.54019 19.6899Z" stroke="black" stroke-width="2" stroke-linecap="round" stroke-linejoin="round"/>
<path d="M7.22741 28.6261C18.2387 19.6086 32.0322 14.6813 46.2647 14.6813C60.4972 14.6813 74.2908 19.6086 85.302 28.6261" stroke="black" stroke-width="2" stroke-linecap="round" stroke-linejoin="round"/>
<path d="M61.7858 65.5256C59.9933 65.0152 58.3448 64.0933 56.9715 62.8334C55.5981 61.5734 54.5379 60.0103 53.8752 58.2684C53.2125 56.5264 52.9657 54.6539 53.1543 52.7997C53.3429 50.9456 53.9619 49.1611 54.9618 47.5883C55.9617 46.0155 57.315 44.6979 58.9139 43.7404C60.5128 42.7828 62.3132 42.2118 64.1717 42.0728C66.0303 41.9338 67.8956 42.2305 69.6192 42.9395C71.3428 43.6485 72.8771 44.7501 74.0998 46.1566" stroke="black" stroke-width="2" stroke-linecap="round" stroke-linejoin="round"/>
<path d="M16.2916 42.8216C17.0849 40.7936 18.4163 39.0204 20.1425 37.6928C21.8686 36.3652 23.9242 35.5336 26.0879 35.2875C28.2516 35.0414 30.4414 35.3901 32.4217 36.296C34.4019 37.202 36.0975 38.6309 37.326 40.4289C38.5545 42.2269 39.2693 44.326 39.3935 46.5001C39.5177 48.6742 39.0466 50.841 38.0308 52.7672C37.015 54.6934 35.4931 56.3061 33.629 57.4316C31.7648 58.5572 29.6289 59.153 27.4512 59.1548H26.6816" stroke="black" stroke-width="2" stroke-linecap="round" stroke-linejoin="round"/>
</svg>
