<svg width="85" height="50" viewBox="0 0 85 50" fill="none" xmlns="http://www.w3.org/2000/svg">
<g clip-path="url(#clip0_128_1295)">
<path d="M41.0711 33.1714C40.9977 33.1718 40.9246 33.1622 40.8539 33.1428C40.7851 33.1243 40.7193 33.0964 40.6581 33.06C40.5979 33.024 40.543 32.9798 40.4952 32.9285C40.4474 32.877 40.4074 32.8188 40.3766 32.7556C40.3165 32.6314 40.2955 32.4919 40.3166 32.3555C40.3268 32.2876 40.347 32.2217 40.3766 32.1597C40.4073 32.0957 40.4473 32.0364 40.4952 31.984L60.2074 10.3827L28.9979 11.976L22.6892 22.783C22.6577 22.842 22.6183 22.8963 22.572 22.9445C22.5257 22.9926 22.4734 23.0344 22.4163 23.0688C22.3585 23.1037 22.2966 23.1311 22.2319 23.1503C22.0987 23.1901 21.9575 23.195 21.8218 23.1646C21.7563 23.1498 21.6929 23.1268 21.6332 23.096C21.574 23.0643 21.5192 23.0249 21.4703 22.9788C21.4211 22.9339 21.3783 22.8825 21.3431 22.8259C21.3081 22.77 21.2811 22.7094 21.2631 22.6459C21.2273 22.5217 21.2273 22.3899 21.2631 22.2658C21.2818 22.2023 21.3092 22.1417 21.3446 22.0857L27.8605 10.9214C27.8928 10.8661 27.9322 10.8151 27.9777 10.7699C28.0227 10.7248 28.0731 10.6855 28.1277 10.6528C28.183 10.6201 28.242 10.5941 28.3035 10.5756C28.3669 10.5582 28.4321 10.5486 28.4978 10.547L61.9478 8.83231C62.0231 8.8279 62.0987 8.83415 62.1722 8.85088C62.2437 8.86729 62.3125 8.89375 62.3765 8.92947C62.4392 8.96435 62.4965 9.00815 62.5466 9.05951C62.5973 9.11129 62.6397 9.17057 62.6723 9.23527C62.7369 9.36266 62.7604 9.50694 62.7395 9.64823C62.7292 9.71855 62.7085 9.78693 62.678 9.85114C62.6467 9.91729 62.6058 9.97845 62.5566 10.0326L41.6583 32.9185C41.6213 32.9585 41.5801 32.9945 41.5355 33.0257C41.4907 33.0572 41.4428 33.0841 41.3926 33.1057C41.2906 33.1495 41.1806 33.1719 41.0696 33.1714H41.0711Z" fill="#323C6B"/>
<path d="M22.0105 23.1589C21.9449 23.1587 21.8797 23.1505 21.8161 23.1346C21.753 23.1188 21.692 23.0953 21.6346 23.0645C21.5774 23.0352 21.5241 22.9987 21.476 22.9559C21.429 22.9139 21.3877 22.8658 21.3531 22.813C21.3197 22.7592 21.2937 22.701 21.276 22.6401C21.2425 22.52 21.2425 22.393 21.276 22.2729C21.2922 22.2113 21.3167 22.1522 21.3489 22.0971L27.8577 10.9214C27.8902 10.8629 27.9306 10.809 27.9777 10.7614C28.0241 10.7139 28.0765 10.6726 28.1335 10.6385C28.1912 10.6037 28.2532 10.5763 28.3178 10.557C28.4507 10.5179 28.5914 10.5135 28.7265 10.5442C28.792 10.5589 28.8554 10.582 28.9151 10.6128C28.9741 10.6431 29.0289 10.6811 29.078 10.7257C29.1272 10.7706 29.17 10.822 29.2052 10.8786C29.2402 10.9345 29.2671 10.9951 29.2852 11.0586C29.3207 11.1828 29.3207 11.3145 29.2852 11.4387C29.2665 11.5022 29.2391 11.5628 29.2037 11.6187L22.6863 22.7816C22.6527 22.8394 22.6114 22.8922 22.5635 22.9388C22.5155 22.9851 22.4617 23.025 22.4034 23.0574C22.3444 23.09 22.2815 23.115 22.2162 23.1317C22.1495 23.1489 22.0808 23.1576 22.0119 23.1574L22.0105 23.1589Z" fill="#323C6B"/>
<path d="M41.0714 33.1728C41.0034 33.1727 40.9358 33.1641 40.8699 33.1471C40.8062 33.1306 40.7447 33.1061 40.687 33.0742C40.6299 33.0431 40.5771 33.0047 40.5299 32.9599C40.4835 32.9164 40.4431 32.8669 40.4098 32.8127L27.8637 11.6301L27.8423 11.5887L27.8223 11.5458L27.8052 11.5029C27.8004 11.4887 27.7956 11.4739 27.7909 11.4587L26.6849 7.44048C26.6592 7.34746 26.6534 7.2501 26.6677 7.15469C26.6821 7.05941 26.7157 6.96803 26.7663 6.88605C26.8173 6.80361 26.8838 6.7318 26.9621 6.67456C27.0444 6.61446 27.1376 6.5708 27.2364 6.54596C27.3358 6.51798 27.4396 6.50925 27.5422 6.52024C27.6424 6.53229 27.7394 6.56333 27.828 6.61169C27.9114 6.66201 27.9841 6.728 28.0424 6.80603C28.1046 6.88113 28.1508 6.96817 28.1781 7.06181L29.2584 10.9914L41.753 32.0982C41.7853 32.1532 41.8099 32.2123 41.8259 32.274C41.8598 32.3946 41.8598 32.5221 41.8259 32.6427C41.8076 32.704 41.7812 32.7627 41.7473 32.817C41.7122 32.8698 41.6704 32.9178 41.623 32.9599C41.5751 33.004 41.5218 33.042 41.4644 33.0728C41.4066 33.104 41.3451 33.128 41.2815 33.1442C41.2166 33.1609 41.1499 33.1696 41.0829 33.1699L41.0714 33.1728Z" fill="#323C6B"/>
<path d="M31.9767 8.32645L24.2605 8.45649C23.9927 8.45924 23.7269 8.41073 23.4774 8.31359C23.2373 8.22561 23.0162 8.09274 22.8258 7.92206C22.6418 7.75371 22.4927 7.55074 22.3871 7.32477C22.2796 7.09312 22.2221 6.84138 22.2185 6.58601L22.2042 5.21708C22.2033 5.0767 22.2187 4.93669 22.25 4.79983C22.2825 4.6634 22.3305 4.53109 22.3929 4.40545C22.4524 4.27872 22.5257 4.15892 22.6115 4.04821C22.7009 3.93505 22.8025 3.83203 22.9144 3.74099C23.028 3.64901 23.1511 3.56948 23.2817 3.50379C23.4117 3.43833 23.5482 3.38661 23.6889 3.34946C23.9736 3.27382 24.2709 3.25825 24.562 3.30373L32.3083 4.54262C32.5394 4.57947 32.7627 4.65533 32.9684 4.76697C33.1649 4.87396 33.3418 5.0136 33.4914 5.17993C33.6389 5.34337 33.7565 5.53154 33.8387 5.73579C33.9284 5.95899 33.9724 6.19791 33.9683 6.43843C33.9641 6.67895 33.9118 6.91619 33.8144 7.13615C33.7126 7.36595 33.567 7.5737 33.3857 7.74773C33.2022 7.92567 32.987 8.06767 32.7512 8.16641C32.5044 8.27002 32.2401 8.32578 31.9725 8.33074L31.9767 8.32645Z" fill="#FCD462"/>
<path d="M24.2165 9.01805C23.874 9.01789 23.5346 8.95292 23.2162 8.82657C22.9138 8.70675 22.6366 8.53129 22.3989 8.3093C22.1664 8.09136 21.9786 7.83025 21.8459 7.54053C21.7098 7.24346 21.6373 6.92127 21.633 6.59457L21.6144 5.2285C21.6124 5.04638 21.6316 4.86464 21.6715 4.68694C21.7111 4.51028 21.7706 4.33867 21.8487 4.17538C21.9279 4.01031 22.0252 3.85455 22.1388 3.71097C22.2547 3.5636 22.3865 3.42943 22.5318 3.31087C22.6786 3.18923 22.8381 3.08382 23.0076 2.9965C23.1764 2.9116 23.3536 2.84455 23.5363 2.79645C23.9059 2.69878 24.2919 2.67931 24.6694 2.73929L32.4172 3.98247C32.7171 4.02842 33.007 4.12506 33.2745 4.26826C33.5295 4.40653 33.759 4.58726 33.9533 4.80268C34.1434 5.01284 34.2952 5.25464 34.402 5.51715C34.5174 5.80581 34.5741 6.11456 34.569 6.4254C34.5638 6.73623 34.4969 7.04293 34.3719 7.32761C34.2418 7.6252 34.055 7.89458 33.8218 8.12068C33.5842 8.35141 33.3056 8.53559 33.0002 8.66367C32.6799 8.79765 32.337 8.86942 31.9899 8.87516L24.2736 9.00376L24.2165 9.01805ZM24.225 3.83672C24.0367 3.83656 23.8501 3.87195 23.6749 3.94103C23.5882 3.97539 23.5049 4.01798 23.4263 4.06821C23.348 4.11812 23.2748 4.17555 23.2076 4.23968C23.1413 4.3031 23.0815 4.37299 23.029 4.4483C22.9774 4.52227 22.9333 4.60126 22.8976 4.68408C22.8622 4.76636 22.8354 4.85208 22.8175 4.93986C22.7997 5.02779 22.7911 5.11735 22.7918 5.20707L22.819 6.57742C22.8198 6.66587 22.8298 6.75399 22.849 6.84035C22.868 6.92632 22.8957 7.01011 22.9319 7.09041C22.9683 7.17092 23.0128 7.24752 23.0648 7.31904C23.1178 7.39208 23.1782 7.45958 23.2448 7.52052C23.3108 7.58352 23.3831 7.63954 23.4606 7.68771C23.5383 7.73581 23.6206 7.77602 23.7063 7.80774C23.7924 7.83972 23.8815 7.86317 23.9721 7.87776C24.0666 7.89302 24.1623 7.89877 24.2579 7.8949L31.9742 7.7663C32.1481 7.75847 32.3193 7.72027 32.48 7.65341C32.6344 7.58928 32.7766 7.49887 32.9001 7.3862C33.0217 7.2755 33.1224 7.14385 33.1974 6.99753C33.2751 6.84958 33.3236 6.68802 33.3403 6.52169C33.3551 6.35653 33.3376 6.19005 33.2888 6.03157C33.2413 5.876 33.1652 5.73063 33.0645 5.60289C32.9599 5.47461 32.8331 5.36619 32.6901 5.2828C32.5422 5.19378 32.3796 5.13184 32.21 5.0999L24.4637 3.85386H24.4051L24.3465 3.84386H24.2879H24.2279L24.225 3.83672Z" fill="#323C6B"/>
<path d="M15.0735 31.0523C15.022 31.052 14.9706 31.0453 14.9207 31.0323C14.8709 31.0199 14.8228 31.0011 14.7778 30.9766C14.7342 30.9528 14.6939 30.9235 14.6577 30.8894C14.6212 30.8553 14.5895 30.8163 14.5634 30.7737L9.9951 23.2717C9.96633 23.2276 9.94419 23.1794 9.92937 23.1289C9.90024 23.0362 9.89728 22.9373 9.92079 22.8431C9.93338 22.7929 9.95311 22.7447 9.97938 22.7002C10.0061 22.6559 10.0388 22.6155 10.0765 22.5801C10.1138 22.5443 10.1556 22.5136 10.2009 22.4887C10.246 22.4642 10.294 22.4455 10.3438 22.433C10.4473 22.4059 10.556 22.4059 10.6596 22.433C10.7096 22.4468 10.7576 22.4669 10.8025 22.493C10.8481 22.5196 10.8899 22.5523 10.9268 22.5901C10.9643 22.6264 10.9965 22.6678 11.0225 22.713L15.5951 30.2207C15.6336 30.283 15.6585 30.3528 15.6684 30.4254C15.6782 30.498 15.6727 30.5719 15.6523 30.6422C15.632 30.7121 15.598 30.7772 15.5522 30.8337C15.5036 30.8924 15.4439 30.9409 15.3765 30.9766C15.3538 30.9885 15.3304 30.999 15.3065 31.008C15.2605 31.0261 15.2125 31.0385 15.1636 31.0452C15.1379 31.0468 15.1121 31.0468 15.0864 31.0452L15.0735 31.0523Z" fill="#323C6B"/>
<path d="M14.1883 31.8825C14.1368 31.8827 14.0854 31.8764 14.0354 31.8639C14.0107 31.8578 13.9863 31.8502 13.9625 31.841C13.939 31.832 13.9161 31.8215 13.8939 31.8096L5.95333 27.4799C5.88605 27.4435 5.82677 27.3939 5.779 27.3342C5.73368 27.2776 5.70016 27.2125 5.6804 27.1427C5.66066 27.0735 5.65531 27.0011 5.66469 26.9298C5.67462 26.8558 5.69993 26.7847 5.73899 26.7212C5.77928 26.656 5.83225 26.5997 5.89474 26.5554C5.95596 26.5117 6.02476 26.4797 6.09765 26.4611C6.17116 26.4412 6.24767 26.4349 6.32343 26.4425C6.40134 26.4528 6.47654 26.478 6.54491 26.5168L14.487 30.8494C14.5431 30.8793 14.5938 30.9184 14.637 30.9651C14.6785 31.0097 14.7123 31.0609 14.737 31.1166C14.7869 31.2291 14.7955 31.3556 14.7613 31.4738C14.744 31.5338 14.7164 31.5904 14.6799 31.641C14.6434 31.6912 14.599 31.7351 14.5484 31.771C14.4974 31.8076 14.441 31.8361 14.3812 31.8553C14.3189 31.8754 14.2538 31.8856 14.1883 31.8853V31.8825Z" fill="#323C6B"/>
<path d="M13.8636 33.0171H4.6827C4.60446 33.0174 4.52687 33.0029 4.45407 32.9742C4.38464 32.9464 4.32113 32.9057 4.26688 32.8542C4.21381 32.8045 4.17108 32.7447 4.14113 32.6784C4.11102 32.611 4.09546 32.538 4.09546 32.4641C4.09546 32.3902 4.11102 32.3172 4.14113 32.2498C4.17124 32.1824 4.21448 32.1217 4.26831 32.0711C4.3226 32.0197 4.38611 31.979 4.4555 31.9511C4.52831 31.9225 4.60589 31.908 4.68413 31.9082H13.8679C13.9462 31.9079 14.0237 31.9225 14.0965 31.9511C14.1659 31.9785 14.2294 32.0187 14.2837 32.0697C14.3368 32.1194 14.3796 32.1792 14.4095 32.2455C14.4396 32.3129 14.4552 32.386 14.4552 32.4598C14.4552 32.5337 14.4396 32.6067 14.4095 32.6742C14.379 32.7405 14.3358 32.8002 14.2823 32.8499C14.2287 32.9022 14.1656 32.9439 14.0965 32.9728C14.0225 33.0024 13.9434 33.0175 13.8636 33.0171Z" fill="#323C6B"/>
<path d="M6.22391 38.457C6.15891 38.4571 6.09429 38.447 6.03243 38.427C5.97314 38.4077 5.91721 38.3793 5.86668 38.3427C5.81711 38.3066 5.77368 38.2626 5.73807 38.2127C5.70204 38.1625 5.67496 38.1064 5.65805 38.0469C5.64042 37.9886 5.63316 37.9277 5.63662 37.8669C5.64187 37.8071 5.65734 37.7486 5.68234 37.694C5.7062 37.6385 5.73903 37.5873 5.77951 37.5425C5.8207 37.4966 5.86894 37.4575 5.9224 37.4268L13.8873 33.1099C13.9557 33.0712 14.0309 33.046 14.1088 33.0356C14.1838 33.0268 14.2598 33.0316 14.3331 33.0499C14.406 33.068 14.4748 33.0995 14.536 33.1428C14.5981 33.1866 14.6506 33.2425 14.6904 33.3071C14.7287 33.3693 14.7536 33.4388 14.7634 33.5111C14.7733 33.5835 14.7679 33.6571 14.7475 33.7272C14.7273 33.7971 14.6933 33.8622 14.6475 33.9187C14.5989 33.9774 14.5392 34.026 14.4717 34.0616L6.51827 38.3842C6.49608 38.396 6.47318 38.4065 6.44968 38.4156C6.42589 38.4247 6.40155 38.4324 6.37681 38.4385C6.32727 38.4508 6.2764 38.4571 6.22534 38.457H6.22391Z" fill="#323C6B"/>
<path d="M10.4464 42.4324C10.3932 42.4354 10.3399 42.4316 10.2878 42.4209C10.263 42.4149 10.2387 42.4072 10.2149 42.3981C10.1914 42.3891 10.1685 42.3786 10.1463 42.3666C10.0793 42.331 10.02 42.2825 9.97197 42.2237C9.92668 42.1676 9.89315 42.103 9.87337 42.0337C9.85293 41.9622 9.84806 41.8872 9.85908 41.8136C9.86904 41.7401 9.89436 41.6695 9.93339 41.6064L14.5531 34.1445C14.5778 34.0996 14.6086 34.0582 14.6446 34.0216C14.6809 33.9855 14.7217 33.9543 14.7661 33.9287C14.8109 33.9028 14.859 33.8826 14.909 33.8687C15.0125 33.8417 15.1212 33.8417 15.2247 33.8687C15.2745 33.8812 15.3226 33.8999 15.3676 33.9245C15.4124 33.949 15.4537 33.9792 15.4905 34.0145C15.5283 34.0493 15.561 34.0892 15.5877 34.1331C15.6136 34.1777 15.6328 34.2258 15.6449 34.276C15.6681 34.3703 15.6647 34.4693 15.6349 34.5618C15.6218 34.612 15.6016 34.6602 15.5748 34.7047L10.9536 42.1566C10.928 42.2012 10.8962 42.2421 10.8593 42.278C10.8232 42.3121 10.7828 42.3413 10.7393 42.3652C10.6941 42.3892 10.6461 42.4075 10.5964 42.4195C10.5471 42.4298 10.4967 42.4342 10.4464 42.4324Z" fill="#323C6B"/>
<path d="M16.2151 43.8824C16.1369 43.8827 16.0593 43.8682 15.9865 43.8395C15.9176 43.8121 15.8546 43.7718 15.8007 43.7209C15.748 43.6711 15.7058 43.6114 15.6764 43.5452C15.6455 43.4789 15.6289 43.4068 15.6278 43.3337L15.6707 34.7186C15.6712 34.6446 15.6872 34.5716 15.7178 34.5043C15.7481 34.4374 15.7914 34.3772 15.845 34.3271C15.8994 34.2762 15.9629 34.2359 16.0322 34.2085C16.1779 34.1518 16.3395 34.1518 16.4852 34.2085C16.554 34.236 16.617 34.2762 16.6709 34.3271C16.7263 34.3766 16.771 34.4369 16.8024 34.5043C16.8321 34.5718 16.8472 34.6448 16.8467 34.7186L16.8038 43.3337C16.8035 43.4076 16.7874 43.4807 16.7567 43.548C16.7258 43.6145 16.6821 43.6742 16.6281 43.7238C16.5737 43.7747 16.5102 43.8149 16.4409 43.8424C16.3688 43.8696 16.2922 43.8832 16.2151 43.8824Z" fill="#323C6B"/>
<path d="M21.9963 42.4323C21.9448 42.4325 21.8934 42.4263 21.8434 42.4137C21.7937 42.4018 21.7457 42.3835 21.7005 42.3594C21.6583 42.3372 21.6189 42.3099 21.5834 42.278C21.5474 42.2442 21.5162 42.2058 21.4905 42.1637L16.9479 34.7046C16.9191 34.6605 16.8969 34.6123 16.8821 34.5617C16.8533 34.469 16.8508 34.37 16.875 34.2759C16.8875 34.2257 16.9073 34.1776 16.9336 34.133C16.9597 34.0883 16.992 34.0475 17.0293 34.0116C17.0667 33.9763 17.1085 33.946 17.1536 33.9216C17.1988 33.8971 17.2468 33.8784 17.2965 33.8658C17.4001 33.8388 17.5088 33.8388 17.6123 33.8658C17.6623 33.8796 17.7104 33.8998 17.7552 33.9258C17.7999 33.9521 17.8407 33.9843 17.8767 34.0216C17.9128 34.0581 17.9435 34.0994 17.9681 34.1445L22.5093 41.605C22.535 41.6468 22.5547 41.692 22.5679 41.7393C22.5947 41.8327 22.5947 41.9317 22.5679 42.0251C22.5541 42.0724 22.5339 42.1176 22.5079 42.1594C22.4816 42.2015 22.4499 42.2399 22.4136 42.2737C22.3769 42.3078 22.3361 42.3371 22.2921 42.3609C22.2469 42.3849 22.1989 42.4031 22.1492 42.4152C22.0992 42.4272 22.0478 42.4329 21.9963 42.4323Z" fill="#323C6B"/>
<path d="M26.2522 38.4585C26.2011 38.4585 26.1503 38.4523 26.1007 38.4399C26.076 38.4338 26.0517 38.4262 26.0279 38.417C26.0044 38.408 25.9815 38.3975 25.9593 38.3856L18.0472 34.0702C17.9801 34.0342 17.9208 33.9851 17.8729 33.9259C17.8275 33.8693 17.794 33.8042 17.7743 33.7344C17.7552 33.6656 17.7503 33.5937 17.76 33.5229C17.7703 33.4488 17.7962 33.3778 17.8358 33.3143C17.876 33.2492 17.929 33.1928 17.9915 33.1485C18.0528 33.1053 18.1216 33.0739 18.1944 33.0557C18.2679 33.0358 18.3444 33.0295 18.4202 33.0371C18.4976 33.0475 18.5723 33.0727 18.6402 33.1114L26.5537 37.4282C26.6073 37.4588 26.6555 37.4979 26.6966 37.544C26.7377 37.5886 26.771 37.6398 26.7952 37.6954C26.8437 37.8074 26.8513 37.9328 26.8166 38.0498C26.7992 38.1093 26.7716 38.1654 26.7352 38.2156C26.6991 38.2656 26.6552 38.3095 26.6052 38.3456C26.5541 38.3822 26.4977 38.4106 26.438 38.4299C26.3761 38.4498 26.3115 38.46 26.2465 38.4599L26.2522 38.4585Z" fill="#323C6B"/>
<path d="M18.3541 31.8839C18.2891 31.8841 18.2245 31.8739 18.1626 31.8539C18.1028 31.8348 18.0464 31.8063 17.9954 31.7696C17.9453 31.7336 17.9014 31.6897 17.8654 31.6396C17.8292 31.5889 17.8021 31.5324 17.7854 31.4724C17.7674 31.4132 17.7602 31.3513 17.7639 31.2895C17.7687 31.2293 17.7836 31.1703 17.8082 31.1152C17.8335 31.0594 17.8677 31.0083 17.9097 30.9637C17.9535 30.9171 18.0047 30.878 18.0611 30.848L26.0518 26.5154C26.1198 26.4769 26.1944 26.4517 26.2718 26.4411C26.3473 26.4321 26.4238 26.4369 26.4976 26.4554C26.5705 26.4734 26.6393 26.5049 26.7005 26.5483C26.7622 26.5926 26.8142 26.649 26.8534 26.714C26.8924 26.7773 26.9176 26.848 26.9272 26.9217C26.9368 26.9953 26.9306 27.0702 26.9091 27.1413C26.8888 27.2111 26.8548 27.2762 26.8091 27.3328C26.76 27.3916 26.6998 27.4401 26.6319 27.4757L18.6499 31.8096C18.6272 31.8216 18.6038 31.8321 18.5799 31.8411C18.5339 31.8591 18.4859 31.8716 18.437 31.8782C18.4095 31.882 18.3818 31.8839 18.3541 31.8839Z" fill="#323C6B"/>
<path d="M17.478 31.0523C17.4241 31.0531 17.3703 31.0468 17.318 31.0337C17.2932 31.0276 17.2689 31.02 17.2451 31.0109C17.2215 31.0014 17.1986 30.9904 17.1765 30.978C17.1095 30.9424 17.0502 30.8938 17.0022 30.8351C16.9573 30.7784 16.9242 30.7133 16.905 30.6436C16.8859 30.5748 16.881 30.5029 16.8907 30.4321C16.9011 30.3581 16.9269 30.287 16.9664 30.2235L21.6133 22.713C21.6385 22.668 21.6698 22.6266 21.7062 22.5901C21.743 22.5539 21.7843 22.5227 21.8291 22.4972C21.874 22.4713 21.922 22.4511 21.972 22.4372C22.0755 22.4102 22.1843 22.4102 22.2878 22.4372C22.3376 22.4497 22.3856 22.4684 22.4307 22.493C22.4754 22.5175 22.5167 22.5477 22.5536 22.583C22.5917 22.6173 22.6249 22.6567 22.6522 22.7002C22.678 22.7448 22.6973 22.7929 22.7093 22.8431C22.7319 22.9375 22.728 23.0364 22.6979 23.1288C22.6826 23.1795 22.6599 23.2276 22.6307 23.2717L17.9881 30.7751C17.9606 30.8179 17.9274 30.8568 17.8895 30.8908C17.8529 30.9249 17.8121 30.9542 17.7681 30.978C17.723 31.0025 17.6749 31.0212 17.6252 31.0337C17.577 31.0458 17.5276 31.052 17.478 31.0523Z" fill="#323C6B"/>
<path d="M16.2781 30.7494C16.1997 30.7492 16.1222 30.7342 16.0494 30.7051C15.9801 30.6777 15.9166 30.6375 15.8622 30.5865C15.8092 30.5367 15.7664 30.477 15.7365 30.4107C15.7056 30.3429 15.6896 30.2694 15.6893 30.1949L15.7322 21.517C15.7324 21.4421 15.7485 21.368 15.7794 21.2998C15.8098 21.233 15.853 21.1728 15.9065 21.1226C15.9614 21.0716 16.0254 21.0314 16.0952 21.004C16.2429 20.9454 16.4075 20.9454 16.5553 21.004C16.6246 21.0314 16.6881 21.0716 16.7425 21.1226C16.7957 21.1728 16.8384 21.233 16.8682 21.2998C16.8982 21.3682 16.9133 21.4423 16.9125 21.517L16.8697 30.1949C16.8693 30.2694 16.8533 30.3429 16.8225 30.4107C16.7903 30.4775 16.7451 30.5373 16.6896 30.5865C16.6352 30.6373 16.5717 30.6776 16.5024 30.7051C16.431 30.7336 16.355 30.7486 16.2781 30.7494Z" fill="#323C6B"/>
<path d="M67.1945 31.0523C67.143 31.0525 67.0916 31.0462 67.0416 31.0337C66.9918 31.0213 66.9438 31.0026 66.8987 30.978C66.8551 30.9542 66.8147 30.9249 66.7787 30.8908C66.7426 30.8566 66.7113 30.8177 66.6858 30.775L62.2261 23.2717C62.1977 23.2275 62.176 23.1793 62.1618 23.1288C62.149 23.0822 62.1428 23.0342 62.1432 22.9859C62.1419 22.9378 62.1472 22.8897 62.1589 22.843C62.1721 22.7928 62.1923 22.7447 62.2189 22.7001C62.2462 22.6558 62.2794 22.6154 62.3175 22.5801C62.3553 22.5443 62.3976 22.5135 62.4433 22.4886C62.5848 22.4128 62.7501 22.3944 62.9048 22.4372C62.9549 22.4509 63.0029 22.4711 63.0477 22.4972C63.0912 22.5228 63.1311 22.554 63.1663 22.5901C63.2025 22.6265 63.2332 22.6679 63.2578 22.713L67.7161 30.2206C67.7413 30.2625 67.7605 30.3077 67.7732 30.3549C67.7855 30.4015 67.7913 30.4496 67.7904 30.4978C67.7893 30.5463 67.7816 30.5944 67.7675 30.6407C67.7563 30.6876 67.739 30.7327 67.7161 30.775C67.6889 30.8178 67.6563 30.8567 67.6189 30.8908C67.5817 30.9249 67.5405 30.9541 67.496 30.978C67.4051 31.0268 67.3034 31.0523 67.2002 31.0523H67.1945Z" fill="#323C6B"/>
<path d="M66.3005 31.884C66.2748 31.8855 66.2491 31.8855 66.2234 31.884C66.1979 31.8808 66.1726 31.876 66.1476 31.8697C66.1229 31.8636 66.0985 31.856 66.0748 31.8468C66.0513 31.8378 66.0283 31.8273 66.0062 31.8154L58.1284 27.48C58.0619 27.4442 58.0032 27.3957 57.9555 27.3371C57.9107 27.2795 57.8781 27.2134 57.8598 27.1427C57.841 27.0734 57.8366 27.0009 57.8469 26.9298C57.8579 26.8557 57.8842 26.7847 57.9241 26.7212C57.9654 26.6559 58.0193 26.5996 58.0827 26.5554C58.1445 26.5117 58.2137 26.4798 58.287 26.4611C58.3606 26.4413 58.4371 26.435 58.5128 26.4426C58.5903 26.4528 58.665 26.4781 58.7329 26.5169L66.6135 30.8494C66.667 30.88 66.7153 30.9191 66.7564 30.9651C66.797 31.0098 66.8299 31.061 66.8535 31.1166C66.9016 31.2298 66.9082 31.3563 66.8721 31.4738C66.8538 31.534 66.8253 31.5905 66.7878 31.641C66.7507 31.6912 66.7058 31.7351 66.6549 31.7711C66.6034 31.8077 66.5465 31.8361 66.4863 31.8554C66.424 31.8754 66.3589 31.8855 66.2934 31.8854L66.3005 31.884Z" fill="#323C6B"/>
<path d="M65.9568 33.0171H56.7759C56.6976 33.0175 56.62 33.003 56.5473 32.9742C56.4782 32.9465 56.4151 32.9057 56.3615 32.8542C56.3093 32.8043 56.2675 32.7446 56.2386 32.6784C56.2091 32.6104 56.1945 32.5368 56.1957 32.4627C56.197 32.388 56.2141 32.3145 56.2458 32.2469C56.277 32.1806 56.3206 32.1209 56.3744 32.0711C56.4292 32.0198 56.4932 31.9791 56.563 31.9511C56.6363 31.9224 56.7143 31.9079 56.793 31.9082H65.9768C66.0551 31.9078 66.1327 31.9223 66.2055 31.9511C66.2741 31.9788 66.3367 32.0196 66.3898 32.0711C66.4421 32.1209 66.4839 32.1807 66.5127 32.2469C66.5422 32.3149 66.5568 32.3885 66.5555 32.4627C66.5542 32.5373 66.5372 32.6108 66.5055 32.6784C66.4739 32.7448 66.4298 32.8045 66.3755 32.8542C66.3213 32.9047 66.2584 32.9449 66.1897 32.9728C66.1156 33.0023 66.0366 33.0173 65.9568 33.0171Z" fill="#323C6B"/>
<path d="M58.2436 38.457C58.1791 38.457 58.115 38.4469 58.0536 38.427C57.9942 38.4079 57.9383 38.3794 57.8878 38.3427C57.8386 38.3067 57.7956 38.2627 57.7606 38.2127C57.7255 38.1623 57.6994 38.1062 57.6835 38.0469C57.6676 37.9878 57.6623 37.9264 57.6678 37.8654C57.6733 37.8061 57.6887 37.7482 57.7135 37.694C57.7388 37.6383 57.7731 37.5871 57.8149 37.5425C57.8589 37.496 57.91 37.4569 57.9664 37.4268L65.9828 33.1099C66.1197 33.0362 66.2792 33.0163 66.43 33.0542C66.5024 33.0722 66.5708 33.1037 66.6315 33.1471C66.6927 33.1909 66.7443 33.2468 66.783 33.3114C66.8205 33.3739 66.8445 33.4436 66.8533 33.516C66.8622 33.5884 66.8558 33.6618 66.8344 33.7315C66.8131 33.8015 66.7781 33.8666 66.7315 33.923C66.6818 33.9818 66.6212 34.0303 66.5529 34.0659L58.5394 38.3842C58.5168 38.3961 58.4934 38.4066 58.4694 38.4156C58.3973 38.4432 58.3208 38.4572 58.2436 38.457Z" fill="#323C6B"/>
<path d="M62.4083 42.4323C62.3549 42.433 62.3016 42.4268 62.2497 42.4137C62.2 42.4018 62.1519 42.3836 62.1068 42.3594C62.0637 42.3356 62.0238 42.3063 61.9882 42.2723C61.955 42.2371 61.9267 42.1977 61.9039 42.1551C61.8787 42.1132 61.8594 42.068 61.8467 42.0208C61.8344 41.9742 61.8286 41.9261 61.8296 41.8779C61.8301 41.8295 61.8373 41.7814 61.851 41.735C61.8653 41.6876 61.886 41.6424 61.9125 41.6007L66.6323 34.1445C66.6733 34.0799 66.7267 34.024 66.7894 33.9801C66.8512 33.9365 66.9205 33.9045 66.9938 33.8858C67.0673 33.866 67.1438 33.8597 67.2196 33.8673C67.2967 33.8762 67.3715 33.8999 67.4396 33.9373C67.5063 33.9728 67.5651 34.0214 67.6125 34.0802C67.6571 34.1368 67.6897 34.202 67.7083 34.2717C67.7265 34.3406 67.7304 34.4126 67.7197 34.4831C67.7083 34.5574 67.6815 34.6284 67.6411 34.6918L62.9213 42.1551C62.8945 42.1972 62.8623 42.2357 62.8256 42.2694C62.7884 42.3035 62.7471 42.3328 62.7027 42.3566C62.6575 42.3805 62.6095 42.3987 62.5598 42.4109C62.5098 42.4233 62.4584 42.4296 62.4069 42.4295L62.4083 42.4323Z" fill="#323C6B"/>
<path d="M68.1546 43.8827C68.0768 43.883 67.9997 43.8685 67.9274 43.8399C67.8588 43.8126 67.7963 43.7723 67.743 43.7213C67.6907 43.6715 67.6489 43.6118 67.6201 43.5455C67.5912 43.4778 67.577 43.4048 67.5787 43.3312L67.7402 34.719C67.7417 34.6448 67.7587 34.5718 67.7902 34.5046C67.8212 34.4378 67.8649 34.3776 67.9188 34.3274C67.9742 34.2764 68.0387 34.2362 68.1088 34.2088C68.1821 34.1802 68.2602 34.1656 68.3389 34.166C68.4172 34.1655 68.4948 34.18 68.5675 34.2088C68.6361 34.2361 68.6986 34.2764 68.7519 34.3274C68.8043 34.3776 68.8461 34.4379 68.8748 34.5046C68.9036 34.5723 68.9177 34.6454 68.9162 34.719L68.7519 43.334C68.7505 43.4082 68.7334 43.4812 68.7019 43.5484C68.6706 43.6147 68.627 43.6743 68.5732 43.7241C68.5182 43.775 68.4543 43.8152 68.3846 43.8427C68.3111 43.8704 68.2331 43.884 68.1546 43.8827Z" fill="#323C6B"/>
<path d="M73.9587 42.4324C73.9071 42.4326 73.8558 42.4263 73.8058 42.4138C73.756 42.4019 73.708 42.3836 73.6629 42.3595C73.6197 42.3357 73.5799 42.3064 73.5443 42.2723C73.5087 42.2385 73.478 42.2001 73.4528 42.158L69.0202 34.6975C68.9827 34.635 68.9587 34.5653 68.9499 34.4929C68.941 34.4205 68.9475 34.3471 68.9688 34.2774C68.9924 34.2073 69.0299 34.1427 69.0788 34.0874C69.1262 34.0283 69.1844 33.9788 69.2503 33.9416C69.3872 33.8679 69.5467 33.848 69.6976 33.8859C69.7695 33.904 69.8373 33.9355 69.8976 33.9788C69.959 34.023 70.0106 34.0794 70.0491 34.1445L74.4788 41.605C74.5036 41.647 74.5223 41.6922 74.5345 41.7393C74.5469 41.7859 74.5527 41.834 74.5517 41.8822C74.5507 41.9307 74.543 41.9788 74.5288 42.0251C74.5145 42.0725 74.4938 42.1176 74.4674 42.1594C74.4406 42.2015 74.4084 42.24 74.3716 42.2737C74.3345 42.3078 74.2932 42.3371 74.2487 42.3609C74.1582 42.4095 74.0571 42.435 73.9544 42.4352L73.9587 42.4324Z" fill="#323C6B"/>
<path d="M78.2727 38.4585C78.247 38.4601 78.2212 38.4601 78.1955 38.4585C78.1705 38.4552 78.1456 38.4505 78.1212 38.4442C78.0969 38.4381 78.0731 38.4304 78.0498 38.4213C78.0262 38.4123 78.0033 38.4018 77.9812 38.3899L70.1291 34.0702C70.0625 34.0347 70.0037 33.9861 69.9562 33.9273C69.912 33.8701 69.8799 33.8045 69.8619 33.7344C69.8437 33.6654 69.8398 33.5935 69.8505 33.5229C69.8619 33.4487 69.8887 33.3776 69.9291 33.3143C69.97 33.2492 70.0234 33.1929 70.0863 33.1485C70.1486 33.1052 70.2183 33.0737 70.292 33.0557C70.3651 33.036 70.4411 33.0297 70.5164 33.0371C70.5939 33.0473 70.6686 33.0726 70.7364 33.1114L78.5885 37.4282C78.6421 37.4587 78.6904 37.4978 78.7314 37.544C78.7716 37.5887 78.804 37.6399 78.8271 37.6954C78.8503 37.7503 78.8638 37.8088 78.8671 37.8683C78.8702 37.9297 78.8624 37.9911 78.8442 38.0498C78.8257 38.1094 78.7972 38.1655 78.7599 38.2156C78.7228 38.2657 78.678 38.3096 78.627 38.3456C78.5755 38.3822 78.5186 38.4106 78.4584 38.4299C78.3965 38.4498 78.3319 38.4599 78.2669 38.4599L78.2727 38.4585Z" fill="#323C6B"/>
<path d="M70.4651 31.884C70.4001 31.8841 70.3355 31.874 70.2736 31.8539C70.2143 31.8348 70.1583 31.8063 70.1079 31.7696C70.0586 31.7336 70.0156 31.6897 69.9807 31.6396C69.9454 31.5888 69.9192 31.5322 69.9035 31.4724C69.8875 31.4129 69.8822 31.3509 69.8878 31.2895C69.8936 31.2292 69.9095 31.1702 69.935 31.1152C69.9609 31.0595 69.9956 31.0083 70.0379 30.9637C70.0823 30.9172 70.1339 30.8781 70.1907 30.848L78.2357 26.5154C78.373 26.4413 78.5331 26.4214 78.6844 26.4597C78.7568 26.4777 78.8251 26.5092 78.8858 26.5526C78.9472 26.5968 78.9988 26.6532 79.0373 26.7183C79.0752 26.7821 79.099 26.8532 79.1073 26.927C79.115 26.9991 79.1077 27.0721 79.0859 27.1413C79.0645 27.2112 79.0295 27.2763 78.983 27.3328C78.9332 27.3915 78.8726 27.44 78.8044 27.4757L70.7609 31.8082C70.7383 31.8206 70.7149 31.8316 70.6909 31.8411C70.6189 31.8692 70.5424 31.8837 70.4651 31.884Z" fill="#323C6B"/>
<path d="M69.6031 31.0537C69.5491 31.0541 69.4953 31.0473 69.4431 31.0337C69.3933 31.0214 69.3452 31.0026 69.3002 30.978C69.2566 30.9543 69.2162 30.925 69.1802 30.8908C69.1441 30.8567 69.1128 30.8177 69.0873 30.7751C69.05 30.7125 69.0261 30.6428 69.0173 30.5704C69.0084 30.4981 69.0147 30.4247 69.0358 30.355C69.0502 30.3076 69.0708 30.2624 69.0973 30.2206L73.8556 22.713C73.8818 22.6679 73.914 22.6265 73.9514 22.5901C73.9882 22.554 74.0295 22.5228 74.0743 22.4972C74.2141 22.417 74.3794 22.394 74.5358 22.4329C74.5856 22.4453 74.6337 22.464 74.6787 22.4887C74.7236 22.5135 74.7649 22.5442 74.8016 22.5801C74.838 22.6156 74.8693 22.656 74.8945 22.7001C74.9441 22.7869 74.9679 22.8861 74.9631 22.9859C74.9601 23.0346 74.9505 23.0827 74.9345 23.1288C74.9181 23.1796 74.8945 23.2277 74.8645 23.2717L70.1175 30.7751C70.0887 30.8181 70.054 30.8571 70.0147 30.8908C69.9775 30.9249 69.9362 30.9542 69.8918 30.978C69.8008 31.0268 69.6992 31.0523 69.596 31.0523L69.6031 31.0537Z" fill="#323C6B"/>
<path d="M68.4035 30.7494C68.3252 30.7494 68.2475 30.7343 68.1749 30.7051C68.1064 30.6778 68.0438 30.6375 67.9905 30.5865C67.9382 30.5367 67.8965 30.4769 67.8677 30.4107C67.8381 30.3427 67.8235 30.2691 67.8248 30.1949L67.9891 21.517C67.9904 21.4419 68.0074 21.3679 68.0391 21.2998C68.0706 21.2329 68.1148 21.1727 68.1692 21.1226C68.2246 21.0717 68.2891 21.0315 68.3592 21.004C68.4324 20.9749 68.5105 20.9598 68.5893 20.9597C68.6667 20.9601 68.7433 20.9751 68.815 21.004C68.8841 21.0317 68.9472 21.0725 69.0008 21.124C69.0541 21.1736 69.0968 21.2334 69.1266 21.2998C69.1562 21.3683 69.1708 21.4424 69.1694 21.517L69.0037 30.1949C69.0037 30.2693 68.9881 30.3428 68.9579 30.4107C68.9263 30.4771 68.8822 30.5368 68.8279 30.5865C68.7724 30.6374 68.708 30.6776 68.6379 30.7051C68.5633 30.7348 68.4837 30.7498 68.4035 30.7494Z" fill="#323C6B"/>
<path d="M41.5292 42.5924C41.451 42.5928 41.3734 42.5782 41.3006 42.5495C41.2317 42.5222 41.1687 42.4819 41.1148 42.4309C41.0621 42.3812 41.0198 42.3215 40.9905 42.2552C40.9592 42.188 40.9426 42.1149 40.9419 42.0408L41.0534 32.9013C41.0542 32.8268 41.0708 32.7532 41.102 32.6856C41.1322 32.6194 41.1749 32.5597 41.2277 32.5098C41.2834 32.458 41.3484 32.4173 41.4192 32.3898C41.4925 32.361 41.5706 32.3465 41.6493 32.3469C41.7275 32.3465 41.8051 32.361 41.8779 32.3898C41.9468 32.4171 42.0098 32.4574 42.0637 32.5084C42.1165 32.5585 42.1588 32.6188 42.188 32.6856C42.2165 32.7538 42.2301 32.8274 42.228 32.9013L42.1194 42.0465C42.1185 42.1206 42.102 42.1937 42.0708 42.2609C42.0392 42.3252 41.9955 42.383 41.9422 42.4309C41.8873 42.4819 41.8233 42.5221 41.7536 42.5495C41.6807 42.5781 41.6032 42.5926 41.5249 42.5924H41.5292Z" fill="#323C6B"/>
<path d="M43.3601 42.5924H39.692C39.6137 42.5928 39.5361 42.5782 39.4634 42.5495C39.395 42.522 39.3324 42.4818 39.279 42.4309C39.2263 42.3812 39.184 42.3215 39.1547 42.2552C39.1229 42.1881 39.1058 42.115 39.1047 42.0408C39.1074 41.9663 39.1259 41.8933 39.159 41.8265C39.19 41.7601 39.2336 41.7003 39.2876 41.6507C39.3421 41.5999 39.4056 41.5597 39.4748 41.5321C39.5476 41.5036 39.6252 41.489 39.7034 41.4893H43.3744C43.4526 41.4889 43.5302 41.5034 43.603 41.5321C43.6719 41.5595 43.735 41.5997 43.7888 41.6507C43.8415 41.7004 43.8838 41.7602 43.9131 41.8265C43.9425 41.8941 43.9571 41.9671 43.9559 42.0408C43.9551 42.1149 43.9385 42.188 43.9074 42.2552C43.8764 42.3216 43.8327 42.3813 43.7788 42.4309C43.7238 42.4819 43.6598 42.5221 43.5901 42.5495C43.5169 42.5783 43.4388 42.5928 43.3601 42.5924Z" fill="#323C6B"/>
<path d="M37.0876 8.19211C36.9848 8.19493 36.8824 8.17795 36.7861 8.14209C36.6949 8.1082 36.611 8.05728 36.5389 7.99206C36.4677 7.9283 36.4099 7.85108 36.3688 7.76485C36.3269 7.6757 36.3043 7.57866 36.3025 7.48014C36.3008 7.38162 36.32 7.28385 36.3588 7.19328C36.3964 7.10391 36.4513 7.02282 36.5203 6.95465C36.5902 6.88725 36.6721 6.83347 36.7618 6.79603C36.8563 6.75582 36.9577 6.734 37.0604 6.73173L46.6972 6.24018C46.7995 6.2351 46.9018 6.24965 46.9987 6.28304C47.0908 6.31437 47.1761 6.36285 47.2502 6.42594C47.3236 6.48821 47.3838 6.56447 47.4274 6.65028C47.4718 6.73832 47.4971 6.83478 47.5015 6.93331C47.506 7.03184 47.4895 7.13018 47.4531 7.22186C47.4176 7.31064 47.3652 7.39168 47.2988 7.46049C47.2305 7.53114 47.1495 7.58834 47.0601 7.6291C46.9666 7.67206 46.8657 7.69679 46.7629 7.70198L37.1276 8.19496L37.0876 8.19211Z" fill="#323C6B"/>
<path d="M49.9121 7.53763C49.8098 7.5403 49.708 7.52332 49.6121 7.48762C49.5208 7.45336 49.4368 7.40194 49.3649 7.33615C49.2941 7.27241 49.2367 7.19516 49.1962 7.10895C49.1547 7.01937 49.1327 6.92192 49.1319 6.82316C49.1307 6.72494 49.1502 6.62757 49.1891 6.53737C49.2273 6.44957 49.2821 6.36999 49.3506 6.30303C49.4208 6.23454 49.5032 6.17978 49.5935 6.14156C49.688 6.10089 49.7893 6.07858 49.8921 6.07583L50.6295 6.03724C50.7315 6.03351 50.8333 6.04903 50.9296 6.08297C51.0211 6.11464 51.1059 6.1631 51.1796 6.22586C51.252 6.28759 51.3117 6.36281 51.3554 6.44735C51.4006 6.53617 51.4264 6.63358 51.4311 6.73314C51.4351 6.83075 51.4185 6.92811 51.3825 7.01892C51.3467 7.10833 51.2938 7.18988 51.2268 7.25899C51.1585 7.32964 51.0775 7.38684 50.9881 7.4276C50.8946 7.47059 50.7937 7.49532 50.6909 7.50048L49.955 7.53906L49.9121 7.53763Z" fill="#323C6B"/>
<path d="M83.5203 43.1711C83.4672 43.1707 83.4144 43.1635 83.3631 43.1496C83.3132 43.1364 83.2651 43.1167 83.2202 43.0911C83.1762 43.0657 83.1359 43.0344 83.1002 42.9982C83.0646 42.9621 83.0343 42.9213 83.0102 42.8767C82.9631 42.7892 82.9422 42.69 82.9502 42.5909C82.9544 42.542 82.9655 42.4939 82.983 42.448C83.0007 42.3986 83.0252 42.3519 83.0559 42.3094L83.2288 42.0722L83.4003 41.8336L83.5661 41.5907C83.6213 41.5097 83.6756 41.4278 83.7289 41.3449C83.7554 41.3013 83.7876 41.2614 83.8247 41.2263C83.8621 41.1911 83.9039 41.1609 83.949 41.1363C84.0882 41.06 84.2512 41.0395 84.4048 41.0791C84.4547 41.0919 84.5028 41.1111 84.5477 41.1363C84.5915 41.1609 84.6319 41.1911 84.6678 41.2263C84.7031 41.2615 84.7334 41.3014 84.7578 41.3449C84.8074 41.4316 84.8307 41.5309 84.8249 41.6307C84.8207 41.6796 84.8096 41.7277 84.7921 41.7736C84.7755 41.8213 84.7524 41.8665 84.7235 41.9079C84.674 41.9927 84.6177 42.0784 84.5549 42.1651C84.492 42.2518 84.4329 42.3375 84.3777 42.4223C84.3177 42.5081 84.2572 42.5928 84.1962 42.6767C84.1352 42.7605 84.0733 42.8443 84.0105 42.9282C83.9823 42.9658 83.9496 42.9998 83.9133 43.0296C83.876 43.0601 83.8352 43.086 83.7918 43.1068C83.706 43.149 83.6117 43.1709 83.516 43.1711H83.5203Z" fill="#323C6B"/>
<path d="M73.6619 50.0014C73.5922 50.0012 73.5231 49.9891 73.4576 49.9657C73.3953 49.9433 73.3373 49.9105 73.2861 49.8685C73.2361 49.8287 73.1935 49.7803 73.1603 49.7257C73.0935 49.6109 73.0736 49.4747 73.1046 49.3456C73.1195 49.2823 73.1456 49.2223 73.1818 49.1684C73.2207 49.1127 73.269 49.0644 73.3247 49.0255C73.3797 48.9829 73.4415 48.9501 73.5076 48.9283C74.1817 48.7265 74.8443 48.488 75.4924 48.2138C76.1333 47.9392 76.7587 47.6296 77.3657 47.2865C77.9735 46.9432 78.5617 46.5663 79.1276 46.1576C79.6915 45.7516 80.232 45.3142 80.7466 44.8473C80.8038 44.8018 80.8686 44.767 80.938 44.7444C81.0086 44.7216 81.0826 44.7114 81.1567 44.7144C81.2288 44.7171 81.3 44.7326 81.3667 44.7601C81.4342 44.7877 81.4958 44.8279 81.5482 44.8787C81.5995 44.9281 81.6404 44.9874 81.6682 45.053C81.6946 45.1159 81.7082 45.1834 81.7082 45.2516C81.7085 45.3202 81.6954 45.3882 81.6697 45.4517C81.6426 45.5187 81.6028 45.5798 81.5525 45.6317C81.0043 46.1287 80.4284 46.5943 79.8278 47.0264C79.2259 47.4594 78.6005 47.8587 77.9544 48.2224C77.3062 48.5879 76.6383 48.9175 75.9539 49.2098C75.2625 49.5031 74.5556 49.7584 73.8362 49.9743L73.7934 49.9857L73.7505 49.9943H73.7062L73.6619 50.0014Z" fill="#323C6B"/>
<path d="M16.3374 17.6474C14.2392 17.644 12.1596 18.0407 10.2101 18.8163C8.35799 19.5537 6.66134 20.6333 5.20878 21.9985C3.78602 23.3338 2.64013 24.9361 1.83649 26.714C1.02297 28.519 0.601447 30.476 0.599723 32.4559C0.597998 34.4357 1.01611 36.3934 1.82648 38.1999C2.62081 39.9582 3.75415 41.5427 5.16163 42.8625C6.60142 44.213 8.28319 45.2795 10.1186 46.0062C14.0223 47.5384 18.3609 47.5384 22.2646 46.0062C24.1085 45.2785 25.7999 44.2123 27.2516 42.8625C28.6753 41.5425 29.8268 39.9566 30.641 38.1941C31.4684 36.3952 31.9051 34.4413 31.9224 32.4612C31.9396 30.4812 31.537 28.52 30.7411 26.7069C29.9553 24.93 28.824 23.3271 27.4131 21.9914C25.9751 20.6279 24.2916 19.5495 22.4518 18.8134C20.5054 18.0377 18.4284 17.6419 16.3331 17.6474H16.3374ZM16.2159 42.7353C14.762 42.7382 13.3208 42.4647 11.9691 41.9294C10.6864 41.4209 9.51118 40.6748 8.50534 39.7303C7.5193 38.806 6.72578 37.6958 6.17046 36.4637C5.60604 35.2008 5.31573 33.8327 5.31869 32.4494C5.32164 31.0661 5.61779 29.6992 6.18761 28.4388C6.75043 27.1993 7.55155 26.0826 8.54535 25.1522C9.56057 24.2004 10.7458 23.4481 12.0391 22.9345C14.7839 21.8485 17.8393 21.8485 20.5842 22.9345C21.8721 23.4477 23.0509 24.2007 24.0579 25.1536C25.0432 26.0844 25.8339 27.2015 26.3842 28.4402C26.9418 29.7061 27.2248 31.0759 27.2145 32.4591C27.2041 33.8423 26.9007 35.2077 26.3242 36.4651C25.7564 37.6981 24.9525 38.8079 23.9579 39.7317C22.9432 40.676 21.7606 41.4219 20.4713 41.9308C19.1169 42.4656 17.6735 42.7391 16.2173 42.7367L16.2159 42.7353Z" fill="#BBBBCD"/>
<path d="M16.3381 17.646C15.2501 17.6444 14.1646 17.7497 13.0973 17.9604C12.0435 18.1677 11.0126 18.4778 10.0193 18.8863C9.03863 19.2907 8.10046 19.7914 7.21861 20.381C6.33497 20.9707 5.51426 21.6497 4.76941 22.4072C6.39912 21.3876 8.19705 20.6657 10.0794 20.2752C11.9185 19.8937 13.809 19.826 15.6708 20.0752C17.5199 20.3192 19.3135 20.8784 20.9736 21.7285C22.6547 22.5889 24.1631 23.7514 25.4233 25.1579C26.6581 26.532 27.6176 28.1304 28.2497 29.8663C28.8516 31.5268 29.1324 33.2865 29.0771 35.0519C29.0222 36.8185 28.6344 38.559 27.9339 40.1818C27.1962 41.8794 26.1447 43.4225 24.8346 44.7301C26.2361 43.8651 27.4904 42.7817 28.5498 41.5207C29.5655 40.3105 30.3786 38.9439 30.9576 37.4739C31.5293 36.0219 31.8553 34.4848 31.9221 32.9256C31.9886 31.33 31.7798 29.7349 31.3048 28.2101C30.8254 26.6685 30.0887 25.2191 29.1257 23.9233C28.1669 22.6361 27.0093 21.5098 25.6962 20.5867C24.3611 19.6455 22.8892 18.9148 21.3322 18.4205C19.7172 17.9074 18.0327 17.6462 16.3381 17.646Z" fill="#9A9EAF"/>
<path d="M16.192 47.708C14.0354 47.7126 11.8975 47.3077 9.89183 46.5149C7.98732 45.7617 6.24205 44.6559 4.74765 43.2554C3.28595 41.8844 2.10935 40.2382 1.28533 38.4113C0.443221 36.5377 0.00781391 34.5069 0.00781391 32.4527C0.00781391 30.3985 0.443221 28.3676 1.28533 26.494C2.12006 24.6505 3.30966 22.9894 4.78623 21.6056C6.29439 20.1885 8.05604 19.0682 9.979 18.3033C14.06 16.6864 18.6041 16.6864 22.6851 18.3033C24.5993 19.0671 26.3508 20.1877 27.8465 21.6056C29.3078 22.9912 30.4793 24.6533 31.293 26.4954C32.1192 28.376 32.5365 30.4107 32.5173 32.4646C32.4981 34.5186 32.0428 36.5451 31.1816 38.4099C30.3357 40.2375 29.1406 41.8821 27.6635 43.2512C26.1577 44.6501 24.4039 45.7556 22.4922 46.5106C20.4844 47.3036 18.345 47.7103 16.1863 47.7094L16.192 47.708ZM16.3349 18.209C14.3132 18.2047 12.3092 18.5864 10.4305 19.3336C8.64894 20.0435 7.0168 21.0823 5.6193 22.3958C4.25015 23.679 3.14699 25.2191 2.37275 26.9284C1.58981 28.6655 1.18397 30.5489 1.182 32.4543C1.18003 34.3597 1.58197 36.2439 2.36132 37.9827C3.12746 39.678 4.22106 41.2053 5.57929 42.4767C6.96532 43.7757 8.58406 44.8016 10.3505 45.5003C14.1104 46.9766 18.2894 46.9766 22.0492 45.5003C23.8238 44.8007 25.4517 43.7751 26.8491 42.4767C28.2196 41.2056 29.3279 39.6783 30.1113 37.9812C30.9079 36.2503 31.328 34.37 31.3437 32.4646C31.3595 30.5593 30.9706 28.6723 30.2028 26.9284C29.447 25.2221 28.3606 23.6825 27.0062 22.3987C25.6193 21.0838 23.9954 20.0442 22.2207 19.335C20.3483 18.5864 18.35 18.2027 16.3335 18.2047L16.3349 18.209ZM16.2135 43.2897C14.6818 43.2928 13.1635 43.0048 11.7394 42.441C10.3869 41.9053 9.14767 41.119 8.08708 40.1232C7.04794 39.1492 6.21169 37.9793 5.62645 36.6809C5.0318 35.3504 4.72587 33.9089 4.72883 32.4515C4.73178 30.9942 5.04355 29.554 5.6436 28.2259C6.23615 26.9191 7.08 25.7417 8.12709 24.7607C9.19735 23.7567 10.447 22.9631 11.8109 22.4215C14.7027 21.2777 17.9214 21.2777 20.8132 22.4215C22.1716 22.9621 23.4149 23.7559 24.477 24.7607C25.515 25.7417 26.348 26.9191 26.9276 28.2244C27.5158 29.5582 27.8139 31.0017 27.8021 32.4593C27.7902 33.917 27.4688 35.3554 26.8591 36.6795C26.2603 37.9777 25.4132 39.1461 24.3656 40.1189C23.2966 41.1133 22.0511 41.8989 20.6932 42.4352C19.2669 43.0012 17.7465 43.2921 16.212 43.2926L16.2135 43.2897ZM16.3121 22.6887C14.9269 22.6863 13.5541 22.9477 12.2667 23.4589C11.0421 23.9449 9.91992 24.657 8.95873 25.558C8.01886 26.4374 7.26097 27.4929 6.72816 28.6646C6.18913 29.8579 5.90927 31.1519 5.90705 32.4613C5.90483 33.7707 6.18031 35.0657 6.7153 36.2608C7.23928 37.4268 7.98859 38.4777 8.92015 39.353C9.87239 40.2474 10.985 40.9538 12.1996 41.435C14.7848 42.4518 17.6592 42.4518 20.2445 41.435C21.4647 40.9531 22.5838 40.2469 23.5439 39.353C24.4852 38.4785 25.2459 37.4279 25.7831 36.2608C26.3283 35.0707 26.6153 33.7786 26.6252 32.4695C26.6351 31.1605 26.3675 29.8642 25.8402 28.666C25.3198 27.4936 24.5718 26.4363 23.6397 25.5552C22.687 24.6533 21.5717 23.9405 20.3531 23.4546C19.0679 22.943 17.6968 22.6816 16.3135 22.6844L16.3121 22.6887Z" fill="#323C6B"/>
<path d="M41.1828 27.6057L16.2792 30.2621L16.2578 34.6575L41.0713 37.2524L41.1828 27.6057Z" fill="#E1E6E9"/>
<path d="M41.0644 37.8083H40.9987L16.188 35.2091C16.1159 35.2015 16.0458 35.1812 15.9808 35.149C15.9187 35.1183 15.8625 35.0767 15.8151 35.0262C15.7686 34.9767 15.7318 34.9191 15.7065 34.8561C15.6804 34.7922 15.6673 34.7237 15.6679 34.6546L15.6893 30.2635C15.6893 30.1944 15.7029 30.1259 15.7293 30.062C15.7552 29.9991 15.7925 29.9414 15.8394 29.892C15.8866 29.8401 15.9427 29.797 16.0051 29.7648C16.0705 29.7326 16.1412 29.7123 16.2137 29.7048L41.1201 27.0498C41.1615 27.0455 41.2031 27.0455 41.2445 27.0498C41.2856 27.0532 41.3263 27.0609 41.3659 27.0727C41.4051 27.0844 41.4429 27.1002 41.4788 27.1198C41.5495 27.1598 41.6112 27.2138 41.6603 27.2785C41.6839 27.31 41.704 27.344 41.7203 27.3799C41.7533 27.4511 41.7699 27.5287 41.7689 27.6071L41.6603 37.251C41.6595 37.3256 41.643 37.3991 41.6117 37.4668C41.5807 37.5332 41.537 37.5929 41.4831 37.6425C41.4281 37.6935 41.3642 37.7337 41.2945 37.7611C41.2216 37.7897 41.1441 37.8042 41.0658 37.804L41.0644 37.8083ZM16.8468 34.1574L40.49 36.6309L40.5857 28.2287L16.8639 30.7651L16.8468 34.1574Z" fill="#323C6B"/>
<path d="M41.1829 27.6057C41.865 27.6042 42.5411 27.7332 43.1748 27.9858C43.775 28.2251 44.324 28.5767 44.7924 29.0218C45.2506 29.4569 45.6174 29.9792 45.8712 30.5579C46.1296 31.1497 46.2587 31.7898 46.2499 32.4355C46.2408 33.0841 46.0948 33.7235 45.8212 34.3117C45.5523 34.89 45.1732 35.4103 44.7052 35.8435C44.2277 36.2862 43.6719 36.6361 43.0662 36.8752C42.4293 37.1268 41.7505 37.2553 41.0657 37.2539C40.387 37.2546 39.7144 37.126 39.0838 36.8752C38.4845 36.637 37.936 36.2869 37.4676 35.8435C37.008 35.4106 36.6393 34.8903 36.3831 34.3131C36.1242 33.7214 35.9946 33.0813 36.003 32.4355C36.0116 31.7859 36.1577 31.1455 36.4316 30.5565C36.6981 29.9777 37.0747 29.4565 37.5405 29.0218C38.018 28.5773 38.5744 28.226 39.1809 27.9858C39.8182 27.7336 40.4975 27.6046 41.1829 27.6057Z" fill="#D5D6DB"/>
<path d="M41.0668 37.8068C40.3085 37.8086 39.5567 37.6655 38.852 37.3853C38.1849 37.1217 37.5739 36.7338 37.0515 36.2422C36.5394 35.7571 36.1294 35.1746 35.8455 34.5289C35.5554 33.87 35.4092 33.1568 35.4168 32.4369C35.4237 31.7112 35.5844 30.9953 35.8884 30.3364C36.1871 29.6892 36.6094 29.1067 37.1315 28.6216C37.665 28.1303 38.2852 27.7427 38.9606 27.4785C39.6703 27.1957 40.4272 27.0503 41.1912 27.0498C41.9524 27.0495 42.7066 27.1951 43.4132 27.4785C44.0844 27.7431 44.6989 28.1335 45.2236 28.6288C45.735 29.1144 46.1441 29.6974 46.4268 30.3435C46.7174 31.0032 46.8635 31.7175 46.8555 32.4383C46.8412 33.1613 46.6747 33.8731 46.3668 34.5274C46.0661 35.1716 45.6428 35.7511 45.1207 36.2336C44.5876 36.7246 43.9679 37.1122 43.2931 37.3767C42.5851 37.6586 41.8303 37.804 41.0683 37.8054L41.0668 37.8068ZM41.1783 28.1658C40.5721 28.1652 39.9714 28.2797 39.4078 28.503C38.871 28.7158 38.3787 29.0269 37.956 29.4204C37.5421 29.8049 37.2072 30.2665 36.9701 30.7793C36.729 31.3006 36.6009 31.8669 36.5943 32.4412C36.5886 33.0127 36.705 33.5788 36.9358 34.1016C37.1618 34.6123 37.4872 35.0728 37.8932 35.4562C38.3073 35.8485 38.7922 36.1583 39.3221 36.3693C39.8813 36.592 40.4778 36.7059 41.0797 36.7051C41.6847 36.7062 42.2845 36.5927 42.8473 36.3708C43.3838 36.1593 43.8761 35.8496 44.2991 35.4577C44.7138 35.0742 45.0496 34.6136 45.2879 34.1016C45.5293 33.5809 45.6578 33.0151 45.6652 32.4412C45.6729 31.8692 45.5584 31.3021 45.3294 30.7779C45.1024 30.2643 44.7749 29.8012 44.3663 29.4161C43.9525 29.0224 43.4675 28.7111 42.9373 28.4987C42.3773 28.2753 41.7798 28.1609 41.1769 28.1615L41.1783 28.1658Z" fill="#323C6B"/>
<path d="M41.643 32.9914C41.5647 32.9918 41.4871 32.9772 41.4144 32.9485C41.3455 32.9212 41.2824 32.8809 41.2286 32.8299C41.1759 32.7802 41.1336 32.7204 41.1043 32.6542C41.0722 32.5862 41.0551 32.5121 41.0543 32.437L41.1672 23.2532C41.1678 23.1781 41.1844 23.1041 41.2157 23.036C41.2455 22.9695 41.2877 22.9094 41.3401 22.8588C41.3963 22.8074 41.4617 22.7672 41.533 22.7402C41.6079 22.7103 41.688 22.6952 41.7687 22.6959C41.8471 22.6959 41.9247 22.711 41.9974 22.7402C42.0664 22.768 42.1294 22.8087 42.1831 22.8602C42.2342 22.9104 42.275 22.9701 42.3032 23.036C42.3308 23.1049 42.3434 23.179 42.3403 23.2532L42.2374 32.4412C42.236 32.5154 42.2189 32.5884 42.1874 32.6556C42.1562 32.7219 42.1125 32.7815 42.0588 32.8313C42.0039 32.8822 41.9399 32.9225 41.8702 32.9499C41.7977 32.9778 41.7206 32.9919 41.643 32.9914Z" fill="#323C6B"/>
<path d="M43.3649 23.8104H40.4499C40.3715 23.8103 40.2939 23.7953 40.2212 23.7661C40.1517 23.7384 40.0882 23.6977 40.034 23.6461C39.9814 23.5963 39.9392 23.5365 39.9097 23.4703C39.8777 23.4023 39.8606 23.3283 39.8597 23.2531C39.8626 23.1776 39.8816 23.1035 39.9154 23.0359C39.9461 22.9692 39.9892 22.9091 40.0426 22.8587C40.098 22.8077 40.1625 22.7674 40.2327 22.7401C40.3059 22.7109 40.3839 22.6959 40.4627 22.6958H43.3749C43.4532 22.6959 43.5308 22.7109 43.6035 22.7401C43.6725 22.7679 43.7356 22.8087 43.7893 22.8602C43.8421 22.9104 43.8844 22.9706 43.9136 23.0373C43.944 23.1052 43.9596 23.1788 43.9593 23.2531C43.9586 23.3281 43.9421 23.4021 43.9108 23.4703C43.8797 23.5371 43.836 23.5973 43.7822 23.6475C43.7273 23.6989 43.6633 23.7396 43.5935 23.7675C43.5198 23.7964 43.4412 23.811 43.362 23.8104H43.3649Z" fill="#323C6B"/>
<path d="M16.2832 30.1949C16.6037 30.1944 16.9213 30.255 17.2191 30.3735C17.5019 30.4858 17.7608 30.6507 17.9822 30.8594C18.198 31.0616 18.3718 31.3044 18.4937 31.5738C18.6168 31.8522 18.6791 32.1535 18.6766 32.4578C18.6742 32.762 18.607 33.0623 18.4794 33.3386C18.3546 33.6082 18.1784 33.8509 17.9607 34.0531C17.738 34.261 17.4782 34.4253 17.1948 34.5375C16.5934 34.7747 15.9243 34.7747 15.3229 34.5375C15.0408 34.4255 14.7823 34.2611 14.5613 34.0531C14.3455 33.8508 14.1717 33.608 14.0497 33.3386C13.9262 33.0617 13.8629 32.7617 13.8638 32.4585C13.8648 32.1552 13.9301 31.8557 14.0555 31.5796C14.178 31.3084 14.3522 31.0638 14.5684 30.8594C14.7915 30.6508 15.0518 30.486 15.3358 30.3735C15.6372 30.2539 15.9589 30.1933 16.2832 30.1949Z" fill="#D5D6DB"/>
<path d="M16.2542 35.2776C15.8559 35.2781 15.4612 35.203 15.091 35.0561C14.7396 34.9167 14.4177 34.7121 14.1422 34.4531C13.8727 34.1995 13.6561 33.895 13.5049 33.5572C13.3515 33.2116 13.2732 32.8375 13.2749 32.4594C13.2766 32.0813 13.3584 31.7079 13.5149 31.3638C13.6693 31.0252 13.8888 30.7203 14.1608 30.4664C14.44 30.2063 14.7658 30.0013 15.121 29.862C15.8702 29.5662 16.7039 29.5662 17.4531 29.862C17.8047 30.0022 18.1267 30.2078 18.4019 30.4678C18.6716 30.7219 18.8882 31.0269 19.0392 31.3652C19.1921 31.711 19.2699 32.0853 19.2675 32.4634C19.265 32.8416 19.1823 33.2148 19.0249 33.5586C18.8701 33.8961 18.6507 34.2 18.379 34.4531C18.1017 34.7119 17.7785 34.9164 17.4259 35.0561C17.0552 35.2029 16.66 35.2781 16.2613 35.2776H16.2542ZM16.277 30.7508C16.0325 30.7495 15.79 30.7951 15.5626 30.8851C15.3484 30.9702 15.1521 31.0948 14.9839 31.2523C14.819 31.4064 14.6859 31.5914 14.5923 31.7967C14.4982 32.0061 14.4495 32.2331 14.4495 32.4626C14.4495 32.6922 14.4982 32.9191 14.5923 33.1285C14.6843 33.3333 14.8159 33.5178 14.9796 33.6715C15.1454 33.8282 15.3393 33.9523 15.5511 34.0373C16.0052 34.2162 16.5103 34.2162 16.9644 34.0373C17.181 33.9534 17.3798 33.8293 17.5502 33.6715C17.7155 33.518 17.849 33.3335 17.9432 33.1285C18.0387 32.9197 18.0887 32.693 18.0899 32.4634C18.0911 32.2338 18.0436 32.0066 17.9503 31.7967C17.8589 31.5916 17.7278 31.4066 17.5645 31.2523C17.3945 31.0936 17.1956 30.9689 16.9786 30.8851C16.7553 30.7965 16.5173 30.7509 16.277 30.7508Z" fill="#323C6B"/>
<path d="M68.3477 30.1949C68.6697 30.1934 68.989 30.254 69.288 30.3735C69.5687 30.4856 69.8254 30.6505 70.0439 30.8594C70.257 31.0618 70.4275 31.3047 70.5455 31.5738C70.6649 31.8521 70.7234 32.1527 70.7169 32.4555C70.7111 32.7606 70.641 33.061 70.5112 33.3372C70.3825 33.6071 70.2029 33.8496 69.9825 34.0516C69.7569 34.2594 69.4948 34.4237 69.2094 34.536C68.9104 34.6537 68.5919 34.7138 68.2706 34.7132C67.9516 34.7141 67.6353 34.654 67.3389 34.536C67.0555 34.4285 66.7955 34.2674 66.573 34.0616C66.3595 33.8566 66.1894 33.6107 66.0729 33.3386C65.9529 33.0604 65.894 32.7598 65.9 32.4569C65.9064 32.1533 65.9765 31.8544 66.1057 31.5796C66.2344 31.3096 66.4139 31.0671 66.6345 30.8651C66.8603 30.6566 67.1229 30.4919 67.4089 30.3793C67.7075 30.2592 68.026 30.1966 68.3477 30.1949Z" fill="#E0E0E0"/>
<path d="M68.2509 35.2776C67.8535 35.2786 67.4596 35.2034 67.0906 35.0562C66.7415 34.9171 66.4223 34.7124 66.1503 34.4531C65.8843 34.1993 65.672 33.8946 65.5259 33.5572C65.3764 33.211 65.3028 32.8368 65.3101 32.4598C65.3173 32.0801 65.4044 31.7061 65.5659 31.3624C65.7255 31.024 65.9492 30.7197 66.2246 30.4664C66.5055 30.2071 66.8321 30.0022 67.1877 29.862C67.5604 29.715 67.9575 29.6399 68.358 29.6405C68.7559 29.6394 69.1502 29.7146 69.5198 29.862C69.8696 30.0017 70.1893 30.2074 70.4614 30.4678C70.7276 30.7221 70.94 31.0273 71.0859 31.3652C71.2344 31.7116 71.307 32.0858 71.2988 32.4626C71.2904 32.8421 71.2023 33.2155 71.0402 33.5586C70.8802 33.8965 70.6566 34.2002 70.3814 34.4531C70.1007 34.7117 69.7747 34.9161 69.4197 35.0562C69.048 35.2027 68.6519 35.2778 68.2523 35.2776H68.2509ZM68.3366 30.7508C68.0921 30.7498 67.8496 30.7954 67.6221 30.8851C67.4063 30.9703 67.2081 31.0948 67.0377 31.2523C66.8704 31.4062 66.7345 31.5911 66.6376 31.7967C66.5394 32.0053 66.4864 32.2322 66.4818 32.4626C66.4772 32.6913 66.5215 32.9184 66.6119 33.1285C66.7005 33.333 66.8293 33.5176 66.9905 33.6715C67.1559 33.8289 67.3499 33.9531 67.5621 34.0373C67.7862 34.1267 68.0253 34.1723 68.2666 34.1716C68.5111 34.1726 68.7536 34.127 68.981 34.0373C69.1968 33.9525 69.3949 33.8285 69.5655 33.6715C69.7327 33.518 69.8685 33.3337 69.9656 33.1285C70.0628 32.9198 70.1149 32.6929 70.1185 32.4626C70.1231 32.2339 70.0788 32.0069 69.9885 31.7967C69.8999 31.5918 69.7712 31.4066 69.6098 31.2523C69.4445 31.0944 69.2505 30.9698 69.0382 30.8851C68.815 30.7961 68.5769 30.7505 68.3366 30.7508Z" fill="#323C6B"/>
<path d="M68.5832 17.6474C66.4796 17.6449 64.3946 18.0415 62.4388 18.8163C60.5727 19.5547 58.8603 20.6338 57.3889 21.9985C55.9481 23.3327 54.7804 24.9342 53.9509 26.714C53.1119 28.5171 52.663 30.477 52.6334 32.4655C52.601 34.4366 52.9908 36.3918 53.7766 38.1998C54.5466 39.9592 55.6612 41.5465 57.0545 42.8682C58.4768 44.2196 60.1443 45.2867 61.9672 46.0119C63.8938 46.777 65.9487 47.1674 68.0217 47.1621C70.1087 47.1648 72.1776 46.7745 74.1204 46.0119C75.9767 45.2828 77.6825 44.217 79.1517 42.8682C80.5933 41.5491 81.7665 39.9639 82.6068 38.1998C83.4583 36.4052 83.9223 34.4514 83.9686 32.4655C84.0173 30.4908 83.6421 28.5286 82.8683 26.7112C82.1092 24.9362 81.0002 23.3325 79.6075 21.9957C78.1842 20.6284 76.5109 19.548 74.6791 18.8134C72.7393 18.0371 70.6683 17.6413 68.5789 17.6474H68.5832ZM68.1074 42.7353C66.6571 42.7389 65.2196 42.4654 63.872 41.9294C62.5992 41.4216 61.4351 40.6751 60.4426 39.7302C59.4699 38.805 58.6925 37.6943 58.1563 36.4637C57.608 35.1997 57.3366 33.8331 57.3603 32.4555C57.3799 31.0671 57.692 29.6984 58.2763 28.4388C58.8577 27.198 59.6745 26.0818 60.6812 25.1522C61.7101 24.2006 62.9069 23.4486 64.2107 22.9345C65.5754 22.3947 67.0299 22.1184 68.4975 22.12C69.9555 22.1163 71.4006 22.3928 72.7543 22.9345C74.0334 23.4467 75.2021 24.2001 76.1966 25.1536C77.1716 26.0846 77.9491 27.2023 78.4829 28.4402C79.0246 29.7085 79.2882 31.0782 79.256 32.4569C79.2252 33.8447 78.9024 35.2104 78.3086 36.4651C77.7226 37.6992 76.9036 38.8084 75.8965 39.7317C74.8699 40.6752 73.6776 41.4207 72.3799 41.9308C71.0214 42.465 69.5743 42.7384 68.1145 42.7367L68.1074 42.7353Z" fill="#BBBBCD"/>
<path d="M68.5822 17.646C66.4119 17.6433 64.2621 18.0646 62.2534 18.8863C61.2636 19.2906 60.316 19.7913 59.4241 20.3809C58.5324 20.971 57.7027 21.6499 56.9478 22.4072C58.5889 21.3888 60.3964 20.6671 62.2877 20.2752C64.1283 19.8937 66.0202 19.826 67.8834 20.0751C69.7255 20.3179 71.5118 20.8772 73.1634 21.7284C74.831 22.5879 76.3235 23.7509 77.5645 25.1579C78.7812 26.5335 79.7189 28.1327 80.3252 29.8662C80.9039 31.5311 81.1595 33.2911 81.0782 35.0519C80.9954 36.8232 80.581 38.5632 79.8565 40.1817C79.0934 41.8811 78.0206 43.4235 76.6928 44.7301C78.1091 43.8641 79.3798 42.78 80.4581 41.5178C81.4906 40.3089 82.3232 38.9428 82.9244 37.471C83.516 36.0221 83.8636 34.4852 83.9533 32.9227C84.0429 31.3309 83.8568 29.7356 83.4031 28.2072C82.9469 26.668 82.2307 25.2181 81.2854 23.9204C80.3441 22.6336 79.2009 21.5074 77.9003 20.5853C76.5764 19.6436 75.1144 18.9133 73.5663 18.4204C71.9548 17.9068 70.2736 17.6455 68.5822 17.646Z" fill="#9A9EAF"/>
<path d="M68.0131 47.708C65.8605 47.7141 63.7265 47.3092 61.7258 46.5148C59.8346 45.763 58.1046 44.6567 56.6288 43.2554C55.1826 41.884 54.0258 40.2369 53.2265 38.4113C52.4102 36.5355 52.0048 34.5067 52.0376 32.4612C52.0678 30.3977 52.5333 28.3638 53.4036 26.4925C54.2664 24.6469 55.4797 22.9867 56.976 21.6041C58.5029 20.1885 60.2797 19.0692 62.2159 18.3033C64.2454 17.4992 66.4089 17.0876 68.5918 17.0901C70.7602 17.0846 72.9093 17.4965 74.922 18.3033C76.8229 19.0656 78.5592 20.1868 80.0362 21.6056C81.4803 22.9915 82.6306 24.654 83.4185 26.494C84.2217 28.3789 84.6116 30.4142 84.5617 32.4626C84.5106 34.5221 84.0272 36.5479 83.1427 38.4084C82.27 40.2377 81.0527 41.8814 79.5575 43.2497C78.0336 44.6476 76.2651 45.7526 74.3405 46.5091C72.3265 47.3012 70.1816 47.7079 68.0174 47.708H68.0131ZM68.5718 18.209C66.5475 18.2065 64.541 18.5881 62.6589 19.3335C60.8636 20.0443 59.2161 21.0827 57.8005 22.3958C56.4133 23.6779 55.2883 25.2172 54.4882 26.9284C53.6804 28.6637 53.2481 30.5501 53.2193 32.4641C53.1886 34.3611 53.5643 36.2428 54.321 37.9826C55.0621 39.6762 56.1349 41.2043 57.4761 42.4766C58.8452 43.7766 60.4501 44.8029 62.2045 45.5003C64.0592 46.2369 66.0375 46.6128 68.0331 46.6077C70.042 46.6102 72.0333 46.2346 73.9032 45.5003C75.6898 44.7992 77.3316 43.7741 78.7459 42.4766C80.1335 41.2063 81.2626 39.6799 82.071 37.9812C82.8904 36.2541 83.3368 34.3737 83.3813 32.4626C83.426 30.5631 83.0635 28.6761 82.3182 26.9284C81.5849 25.2219 80.5158 23.6805 79.1746 22.3958C77.8051 21.0801 76.1955 20.0401 74.4333 19.3321C72.5696 18.5848 70.5798 18.202 68.5718 18.2047V18.209ZM68.096 43.2897C66.568 43.2936 65.0533 43.0055 63.6334 42.4409C62.2907 41.9066 61.0626 41.1204 60.0153 40.1246C58.9894 39.1499 58.1692 37.9794 57.6033 36.6823C57.0255 35.3503 56.7395 33.9101 56.7645 32.4583C56.788 30.9947 57.1201 29.5524 57.739 28.2258C58.3513 26.9177 59.2117 25.7409 60.2726 24.7606C61.3554 23.7575 62.6152 22.9644 63.9878 22.4215C65.4267 21.8527 66.9603 21.5618 68.5075 21.5641C70.0443 21.5598 71.5675 21.8509 72.9944 22.4215C74.3426 22.9614 75.5743 23.7555 76.6225 24.7606C77.6473 25.7425 78.4642 26.9204 79.0245 28.2244C79.5952 29.5609 79.8729 31.0041 79.839 32.4569C79.8053 33.9185 79.4645 35.3567 78.8388 36.678C78.2203 37.9776 77.3566 39.1454 76.2952 40.1175C75.2133 41.1111 73.9572 41.8964 72.59 42.4338C71.1596 42.999 69.6355 43.2898 68.0974 43.2911L68.096 43.2897ZM68.4861 22.6887C67.0974 22.6871 65.7209 22.9484 64.4293 23.4589C63.1967 23.9459 62.0654 24.6577 61.0928 25.558C60.1423 26.4371 59.3712 27.492 58.8222 28.6645C58.2661 29.8558 57.9676 31.151 57.9462 32.4655C57.9233 33.7688 58.1796 35.0619 58.6979 36.2579C59.2044 37.4237 59.9396 38.4761 60.8598 39.353C61.8002 40.2479 62.9032 40.9546 64.1093 41.4349C65.3823 41.9414 66.7402 42.2004 68.1103 42.198C69.4918 42.1993 70.8613 41.9405 72.147 41.4349C73.3752 40.952 74.5035 40.2462 75.475 39.353C76.4295 38.4794 77.2059 37.4293 77.7613 36.2608C78.323 35.0736 78.6283 33.7814 78.6573 32.4683C78.6891 31.1629 78.4406 29.8658 77.9285 28.6645C77.4254 27.494 76.6921 26.4366 75.7722 25.5551C74.8313 24.6528 73.7258 23.9397 72.5157 23.4546C71.2353 22.9415 69.8683 22.6791 68.4889 22.6815L68.4861 22.6887Z" fill="#323C6B"/>
<path d="M79.2333 33.017H70.7668C70.6886 33.0175 70.611 33.003 70.5382 32.9742C70.4696 32.9465 70.407 32.9057 70.3539 32.8542C70.3016 32.8044 70.2598 32.7446 70.231 32.6784C70.2019 32.6103 70.1878 32.5367 70.1895 32.4626C70.1909 32.388 70.2079 32.3145 70.2396 32.2469C70.2712 32.1804 70.3153 32.1208 70.3696 32.0711C70.4245 32.0198 70.4885 31.9791 70.5582 31.9511C70.6315 31.9224 70.7096 31.9079 70.7883 31.9082H79.2576C79.3358 31.9077 79.4135 31.9222 79.4862 31.9511C79.5547 31.9783 79.6173 32.0186 79.6706 32.0697C79.7229 32.1194 79.7647 32.1792 79.7934 32.2454C79.8225 32.3136 79.8366 32.3871 79.8349 32.4612C79.8331 32.5359 79.8156 32.6095 79.7834 32.677C79.7518 32.7434 79.7077 32.803 79.6534 32.8527C79.5989 32.9039 79.5354 32.9445 79.4662 32.9728C79.3921 33.0022 79.313 33.0173 79.2333 33.017Z" fill="#323C6B"/>
<path d="M68.5226 33.1814C68.4392 33.1814 68.3563 33.1684 68.2769 33.1428C68.2007 33.1184 68.1289 33.0822 68.064 33.0356C68 32.9898 67.9441 32.9338 67.8982 32.8699C67.852 32.8058 67.8172 32.7343 67.7953 32.6584L60.0547 5.38994L56.2795 4.18821C56.1843 4.15802 56.0959 4.10947 56.0194 4.04531C55.9447 3.98251 55.8834 3.90522 55.8394 3.81811C55.7954 3.73236 55.7698 3.6384 55.7642 3.54221C55.7585 3.44602 55.7729 3.34971 55.8065 3.2594C55.8409 3.16589 55.8939 3.08033 55.9623 3.0079C56.0299 2.9364 56.1104 2.87823 56.1995 2.83643C56.2897 2.7933 56.387 2.76714 56.4867 2.75927C56.589 2.75171 56.6919 2.76384 56.7896 2.79499L60.9507 4.1239C61.0098 4.14279 61.0664 4.1687 61.1193 4.20107C61.1713 4.23229 61.2193 4.26971 61.2622 4.31252C61.3043 4.3554 61.3408 4.40341 61.3708 4.45542C61.4011 4.50698 61.4246 4.56221 61.4408 4.61975L69.2743 32.2626C69.2897 32.3165 69.2983 32.3722 69.3 32.4283C69.3014 32.4835 69.2961 32.5387 69.2843 32.5927C69.2724 32.647 69.2542 32.6998 69.23 32.7498C69.2047 32.8009 69.1735 32.8489 69.1371 32.8927C69.1004 32.9378 69.0587 32.9786 69.0128 33.0142C68.9685 33.0492 68.9206 33.0794 68.8699 33.1042C68.7624 33.1541 68.6454 33.1799 68.5269 33.1799L68.5226 33.1814Z" fill="#323C6B"/>
<path d="M54.5715 0.562978C54.8828 0.562069 55.1914 0.621261 55.4803 0.737308C55.7538 0.84743 56.0036 1.00896 56.2162 1.21315C56.4251 1.41392 56.5917 1.6544 56.7063 1.92047C56.8226 2.19115 56.8805 2.48328 56.8764 2.77783C56.8706 3.07418 56.8035 3.36612 56.6792 3.6352C56.5559 3.90135 56.3822 4.14107 56.1676 4.34109C55.9493 4.54497 55.6949 4.70634 55.4174 4.81693C55.1269 4.93253 54.817 4.99169 54.5043 4.99126C54.1938 4.99581 53.8852 4.9405 53.5955 4.82836C53.3221 4.71824 53.0723 4.55671 52.8596 4.35252C52.6509 4.15217 52.4843 3.91218 52.3695 3.64663C52.2528 3.37606 52.1943 3.08392 52.198 2.78927C52.2022 2.48905 52.2694 2.19306 52.3952 1.92047C52.5185 1.65432 52.6923 1.4146 52.9068 1.21457C53.125 1.01019 53.3794 0.848326 53.657 0.737308C53.948 0.621534 54.2584 0.562365 54.5715 0.562978Z" fill="#E1E6E9"/>
<path d="M54.4954 5.57286C54.1038 5.57444 53.7156 5.5002 53.3523 5.35423C53.0093 5.21645 52.696 5.01417 52.4292 4.75836C52.1671 4.50742 51.9577 4.20671 51.8133 3.87385C51.6674 3.53028 51.5963 3.1596 51.6047 2.78643C51.6098 2.41169 51.6935 2.0422 51.8505 1.70186C52.0051 1.36832 52.223 1.06794 52.4921 0.817348C52.7655 0.560988 53.0843 0.357934 53.4323 0.218622C53.7969 0.0734877 54.1859 -0.00071598 54.5783 -5.57146e-06C54.9699 -0.00159375 55.3581 0.0726482 55.7215 0.218622C56.0645 0.356833 56.3779 0.559598 56.6446 0.815919C56.9063 1.06739 57.1152 1.36859 57.259 1.70186C57.4058 2.04379 57.4783 2.41296 57.4719 2.785C57.4654 3.15896 57.3807 3.52743 57.2233 3.8667C57.0684 4.1997 56.8505 4.49957 56.5817 4.74979C56.308 5.00507 55.9891 5.20714 55.6414 5.34566C55.2777 5.49037 54.8898 5.56456 54.4983 5.56428L54.4954 5.57286ZM54.5654 1.12743C54.3311 1.12669 54.0987 1.17083 53.881 1.25746C53.6739 1.33972 53.4839 1.45991 53.3208 1.61184C53.1598 1.76241 53.0297 1.94297 52.9379 2.1434C52.8458 2.3459 52.7972 2.56542 52.795 2.78785C52.791 3.00807 52.8334 3.22666 52.9193 3.42945C53.0049 3.6278 53.1293 3.80706 53.2851 3.95673C53.4436 4.10892 53.6299 4.22923 53.8338 4.3111C54.0492 4.39755 54.2791 4.4417 54.5111 4.44114C54.7445 4.44147 54.9759 4.39734 55.1927 4.3111C55.3999 4.22881 55.5898 4.10863 55.7529 3.95673C55.914 3.80755 56.0445 3.62847 56.1373 3.42945C56.2293 3.22695 56.278 3.00743 56.2802 2.785C56.2837 2.56468 56.2408 2.34609 56.1544 2.1434C56.0688 1.94507 55.9444 1.76581 55.7886 1.61612C55.6303 1.46256 55.4441 1.34081 55.2399 1.25746C55.0256 1.17092 54.7966 1.12629 54.5654 1.126V1.12743Z" fill="#323C6B"/>
</g>
<defs>
<clipPath id="clip0_128_1295">
<rect width="84.9037" height="49.991" fill="white"/>
</clipPath>
</defs>
</svg>
