<svg width="71" height="51" viewBox="0 0 71 51" fill="none" xmlns="http://www.w3.org/2000/svg">
<path d="M66.0846 2.36668H4.91536C3.50775 2.36668 2.36665 3.28499 2.36665 4.41779V10.5711C2.36665 11.7039 3.50775 12.6222 4.91536 12.6222H66.0846C67.4922 12.6222 68.6333 11.7039 68.6333 10.5711V4.41779C68.6333 3.28499 67.4922 2.36668 66.0846 2.36668Z" fill="white" stroke="#09753B" stroke-width="4.67143" stroke-linecap="round" stroke-linejoin="round"/>
<path d="M63.7028 14.9889V45.7556C63.7028 46.4356 63.4327 47.0877 62.9518 47.5685C62.471 48.0494 61.8189 48.3195 61.1389 48.3195H9.86111C9.18112 48.3195 8.52899 48.0494 8.04817 47.5685C7.56734 47.0877 7.29722 46.4356 7.29722 45.7556V14.9889" fill="white"/>
<path d="M63.7028 14.9889V45.7556C63.7028 46.4356 63.4327 47.0877 62.9518 47.5685C62.471 48.0494 61.8189 48.3195 61.1389 48.3195H9.86111C9.18112 48.3195 8.52899 48.0494 8.04817 47.5685C7.56734 47.0877 7.29722 46.4356 7.29722 45.7556V14.9889" stroke="#09753B" stroke-width="4.67143" stroke-linecap="round" stroke-linejoin="round"/>
<path d="M27.8083 27.8084H43.1917" stroke="#09753B" stroke-width="4.67143" stroke-linecap="round" stroke-linejoin="round"/>
</svg>
