<svg width="98" height="98" viewBox="0 0 98 98" fill="none" xmlns="http://www.w3.org/2000/svg">
<path d="M49 98C76.062 98 98 76.062 98 49C98 21.938 76.062 0 49 0C21.938 0 0 21.938 0 49C0 76.062 21.938 98 49 98Z" fill="#00CF7A" fill-opacity="0.12"/>
<path d="M49 97.5C75.7858 97.5 97.5 75.7858 97.5 49C97.5 22.2142 75.7858 0.5 49 0.5C22.2142 0.5 0.5 22.2142 0.5 49C0.5 75.7858 22.2142 97.5 49 97.5Z" stroke="#00CF7A" stroke-opacity="0.06"/>
<path d="M49 69C60.0457 69 69 60.0457 69 49C69 37.9543 60.0457 29 49 29C37.9543 29 29 37.9543 29 49C29 60.0457 37.9543 69 49 69Z" fill="#00CF7A" fill-opacity="0.24"/>
<path d="M48.5 56C52.6421 56 56 52.6421 56 48.5C56 44.3579 52.6421 41 48.5 41C44.3579 41 41 44.3579 41 48.5C41 52.6421 44.3579 56 48.5 56Z" fill="#079A4B"/>
</svg>
