<svg width="32" height="20" viewBox="0 0 32 20" fill="none" xmlns="http://www.w3.org/2000/svg">
<path d="M25.3448 6.57897C24.4409 6.58503 23.5465 6.76378 22.7097 7.10559L21.5897 4.93135V1.47287C21.5877 1.37295 21.5556 1.27596 21.4975 1.19463C21.4394 1.11329 21.3581 1.0514 21.2643 1.01708L18.6291 0.0285039C18.5066 -0.0151939 18.3717 -0.00843298 18.2542 0.0473007C18.1367 0.103034 18.0461 0.203173 18.0024 0.32569C17.9587 0.448207 17.9654 0.583069 18.0212 0.700601C18.0769 0.818132 18.177 0.90871 18.2996 0.952408L20.6381 1.80856V4.60798H10.9884V3.65225H12.169C12.3001 3.65225 12.4258 3.60018 12.5185 3.50748C12.6112 3.41478 12.6632 3.28906 12.6632 3.15797C12.6632 3.02687 12.6112 2.90115 12.5185 2.80846C12.4258 2.71576 12.3001 2.66368 12.169 2.66368H9.10571C8.97461 2.66368 8.84889 2.71576 8.75619 2.80846C8.6635 2.90115 8.61142 3.02687 8.61142 3.15797C8.61142 3.28906 8.6635 3.41478 8.75619 3.50748C8.84889 3.60018 8.97461 3.65225 9.10571 3.65225H9.99471V5.00321L9.04001 7.07377C8.28643 6.76949 7.48135 6.61301 6.66866 6.61285C5.37302 6.61003 4.10473 6.98551 3.01946 7.69323C1.93418 8.40095 1.07912 9.41011 0.559219 10.5969C0.0393163 11.7836 -0.122814 13.0964 0.0927251 14.374C0.308264 15.6515 0.892096 16.8384 1.77257 17.7889C2.65305 18.7394 3.79186 19.4122 5.04926 19.7247C6.30665 20.0372 7.62792 19.9758 8.85093 19.5481C10.0739 19.1203 11.1455 18.3448 11.934 17.3168C12.7225 16.2887 13.1938 15.0528 13.29 13.7608H15.4314C15.5084 13.7628 15.5848 13.7457 15.6538 13.7112C15.7227 13.6766 15.7821 13.6256 15.8266 13.5626L20.9984 6.0852L21.8196 7.63325C20.8596 8.21768 20.0671 9.04047 19.519 10.0217C18.9709 11.0029 18.6859 12.1092 18.6917 13.2331C18.6917 14.5492 19.082 15.8357 19.8131 16.93C20.5443 18.0242 21.5835 18.8771 22.7994 19.3808C24.0153 19.8844 25.3532 20.0162 26.644 19.7594C27.9348 19.5027 29.1205 18.8689 30.0511 17.9383C30.9817 17.0077 31.6154 15.8221 31.8722 14.5313C32.1289 13.2405 31.9971 11.9026 31.4935 10.6867C30.9899 9.4708 30.137 8.43156 29.0427 7.7004C27.9484 6.96923 26.6619 6.57897 25.3459 6.57897H25.3448ZM6.66763 18.8977C5.16503 18.8977 3.72397 18.3008 2.66146 17.2383C1.59896 16.1758 1.00206 14.7347 1.00206 13.2321C1.00206 11.7295 1.59896 10.2884 2.66146 9.22593C3.72397 8.16343 5.16503 7.56652 6.66763 7.56652C7.33224 7.56593 7.99118 7.6888 8.61091 7.9289L6.20671 13.035V13.0679C6.18001 13.1186 6.1686 13.176 6.17386 13.2331V13.266C6.1688 13.3227 6.18021 13.3798 6.20671 13.4302V13.4631C6.20671 13.4959 6.20671 13.4959 6.23956 13.5288C6.23956 13.5616 6.27241 13.5616 6.30526 13.5945V13.6273C6.33811 13.6602 6.40791 13.693 6.43666 13.73H6.46951C6.51996 13.7565 6.57699 13.7679 6.63376 13.7628H12.2665C12.1489 15.1655 11.5078 16.4725 10.4706 17.4241C9.43348 18.3756 8.07621 18.9021 6.66866 18.8987L6.66763 18.8977ZM7.42523 12.7383L9.50093 8.35697C10.2857 8.80811 10.9499 9.44199 11.4373 10.2048C11.9247 10.9675 12.2207 11.8367 12.3004 12.7383H7.42523ZM15.1665 12.7383H13.2571C13.1727 11.6472 12.8223 10.5934 12.2366 9.66894C11.6509 8.74448 10.8477 7.97754 9.89718 7.43513L10.7862 5.55755H20.1084L15.1665 12.7383ZM25.312 18.8977C24.085 18.8995 22.8906 18.5024 21.9089 17.7662C20.9272 17.0301 20.2115 15.9947 19.8695 14.8163C19.5275 13.6379 19.5778 12.3803 20.0129 11.233C20.448 10.0857 21.2442 9.11086 22.2816 8.45552L24.8839 13.462C24.9266 13.539 24.9885 13.6038 25.0634 13.65C25.1384 13.6962 25.224 13.7223 25.312 13.7259C25.3925 13.7193 25.471 13.697 25.543 13.6602C25.6558 13.5983 25.7399 13.4945 25.7769 13.3712C25.814 13.2479 25.8011 13.115 25.7411 13.0011L23.1377 7.99768C23.8302 7.72307 24.5671 7.57798 25.312 7.5696C26.8146 7.5696 28.2557 8.16651 29.3182 9.22901C30.3807 10.2915 30.9776 11.7326 30.9776 13.2352C30.9776 14.7378 30.3807 16.1788 29.3182 17.2413C28.2557 18.3038 26.8146 18.9008 25.312 18.9008V18.8977Z" fill="#868686"/>
</svg>
