<svg width="173" height="87" viewBox="0 0 173 87" fill="none" xmlns="http://www.w3.org/2000/svg">
<path d="M49.6029 55.7058V25.1913C49.6029 20.3631 48.1712 15.6434 45.4888 11.6289C42.8064 7.6144 38.9938 4.48549 34.5332 2.63783C30.0726 0.79017 25.1642 0.306738 20.4288 1.24867C15.6934 2.1906 11.3436 4.51558 7.92961 7.92961C4.51558 11.3436 2.1906 15.6934 1.24867 20.4288C0.306738 25.1642 0.79017 30.0726 2.63783 34.5332C4.48549 38.9938 7.61439 42.8064 11.6289 45.4888C15.6433 48.1712 20.3631 49.6029 25.1913 49.6029V80.1175C25.1913 81.7361 25.8343 83.2884 26.9788 84.4329C28.1233 85.5774 29.6756 86.2204 31.2942 86.2204H141.147C142.765 86.2204 144.318 85.5774 145.462 84.4329C146.607 83.2884 147.25 81.7361 147.25 80.1175V49.6029C152.078 49.6029 156.797 48.1712 160.812 45.4888C164.826 42.8064 167.955 38.9938 169.803 34.5332C171.651 30.0726 172.134 25.1642 171.192 20.4288C170.25 15.6934 167.925 11.3436 164.511 7.92961C161.097 4.51558 156.747 2.1906 152.012 1.24867C147.277 0.306738 142.368 0.79017 137.908 2.63783C133.447 4.48549 129.634 7.6144 126.952 11.6289C124.27 15.6434 122.838 20.3631 122.838 25.1913V55.7058" stroke="#DCDCDC" stroke-width="1.55714" stroke-linecap="round" stroke-linejoin="round"/>
</svg>
