<svg width="84" height="93" viewBox="0 0 84 93" fill="none" xmlns="http://www.w3.org/2000/svg">
<path d="M1.46861 23.7596C1.16002 24.2896 0.998327 24.8923 1.00017 25.5056V67.4943C1.00343 68.1008 1.16655 68.6958 1.47309 69.2191C1.77963 69.7425 2.21874 70.1757 2.74616 70.4753L40.2209 91.5548C40.7261 91.8435 41.2999 91.9906 41.8817 91.9806L42.2649 46.5L1.46861 23.7596Z" fill="#CDEBDB"/>
<path d="M82.7632 67.4944V25.5056C82.7599 24.8991 82.5968 24.3042 82.2903 23.7808C81.9837 23.2575 81.5446 22.8242 81.0172 22.5247L43.5425 1.44517C43.0375 1.15364 42.4647 1.00016 41.8817 1.00016C41.2986 1.00016 40.7258 1.15364 40.2209 1.44517L2.74614 22.5247C2.21873 22.8242 1.77961 23.2575 1.47308 23.7808C1.16654 24.3042 1.00342 24.8991 1.00016 25.5056V67.4944C1.00342 68.1009 1.16654 68.6958 1.47308 69.2192C1.77961 69.7425 2.21873 70.1758 2.74614 70.4753L40.2209 91.5548C40.7258 91.8464 41.2986 91.9998 41.8817 91.9998C42.4647 91.9998 43.0375 91.8464 43.5425 91.5548L81.0172 70.4753C81.5446 70.1758 81.9837 69.7425 82.2903 69.2192C82.5968 68.6958 82.7599 68.1009 82.7632 67.4944V67.4944Z" stroke="black" stroke-width="2" stroke-linecap="round" stroke-linejoin="round"/>
<path d="M62.7483 56.9333V34.7891L21.4409 12.0062" stroke="black" stroke-width="2" stroke-linecap="round" stroke-linejoin="round"/>
<path d="M82.2952 23.7596L42.2654 46.4999L1.46911 23.7596" stroke="black" stroke-width="2" stroke-linecap="round" stroke-linejoin="round"/>
<path d="M42.2649 46.5L41.8817 91.9806" stroke="black" stroke-width="2" stroke-linecap="round" stroke-linejoin="round"/>
</svg>
