<svg width="14" height="16" viewBox="0 0 14 16" fill="none" xmlns="http://www.w3.org/2000/svg">
<path d="M1.36355 10.526C0.944632 10.2511 0.600676 9.87623 0.36265 9.43528C0.124624 8.99432 0 8.50109 0 7.99999C0 7.4989 0.124624 7.00567 0.36265 6.56471C0.600676 6.12376 0.944632 5.74892 1.36355 5.47396L8.94972 0.495403C9.4054 0.196358 9.93347 0.0261361 10.478 0.00276826C11.0226 -0.0205996 11.5633 0.103756 12.0429 0.362663C12.5225 0.62157 12.9232 1.00539 13.2024 1.47345C13.4817 1.94152 13.6291 2.4764 13.6291 3.02144V12.9785C13.6291 13.5236 13.4817 14.0585 13.2024 14.5265C12.9232 14.9946 12.5225 15.3784 12.0429 15.6373C11.5633 15.8962 11.0226 16.0206 10.478 15.9972C9.93347 15.9739 9.4054 15.8036 8.94972 15.5046L1.36355 10.526Z" fill="#079A4B"/>
</svg>
