<svg width="11" height="13" viewBox="0 0 11 13" fill="none" xmlns="http://www.w3.org/2000/svg">
<path d="M9.72045 3.99526L10.2304 3.4853C10.3256 3.39015 10.379 3.2611 10.379 3.12655C10.379 2.99199 10.3256 2.86294 10.2304 2.7678C10.1353 2.67265 10.0062 2.6192 9.87167 2.6192C9.73711 2.6192 9.60806 2.67265 9.51292 2.7678L9.00295 3.27776C8.15211 2.56726 7.10457 2.13355 6.00051 2.03465V1.01472H6.49066C6.62522 1.01472 6.75427 0.961266 6.84942 0.866117C6.94457 0.770969 6.99802 0.64192 6.99802 0.50736C6.99802 0.3728 6.94457 0.243751 6.84942 0.148602C6.75427 0.0534538 6.62522 0 6.49066 0L4.49668 0C4.36212 0 4.23307 0.0534538 4.13792 0.148602C4.04277 0.243751 3.98932 0.3728 3.98932 0.50736C3.98932 0.64192 4.04277 0.770969 4.13792 0.866117C4.23307 0.961266 4.36212 1.01472 4.49668 1.01472H4.98683V2.0357C3.76457 2.14899 2.61545 2.66835 1.7228 3.51092C0.830152 4.3535 0.24539 5.47075 0.0618021 6.68445C-0.121786 7.89814 0.106376 9.13836 0.709892 10.2073C1.31341 11.2761 2.25751 12.1121 3.39158 12.5818C4.52565 13.0516 5.78437 13.128 6.96692 12.7988C8.14948 12.4697 9.18775 11.754 9.9161 10.766C10.6445 9.77792 11.0209 8.5744 10.9855 7.34741C10.95 6.12042 10.5047 4.94065 9.72045 3.9963V3.99526ZM5.49367 11.9847C4.60674 11.9847 3.73974 11.7217 3.00229 11.229C2.26484 10.7362 1.69006 10.0359 1.35065 9.21647C1.01124 8.39706 0.922433 7.4954 1.09546 6.62551C1.26849 5.75563 1.69559 4.95659 2.32274 4.32944C2.94989 3.70229 3.74893 3.2752 4.61881 3.10217C5.48869 2.92914 6.39035 3.01794 7.20976 3.35735C8.02918 3.69676 8.72954 4.27154 9.22229 5.00899C9.71504 5.74644 9.97804 6.61345 9.97804 7.50037C9.97804 8.6897 9.50558 9.83032 8.6646 10.6713C7.82362 11.5123 6.683 11.9847 5.49367 11.9847ZM7.84327 5.15494C7.89044 5.20202 7.92787 5.25794 7.9534 5.3195C7.97894 5.38106 7.99208 5.44705 7.99208 5.51369C7.99208 5.58034 7.97894 5.64633 7.9534 5.70789C7.92787 5.76944 7.89044 5.82536 7.84327 5.87244L5.85138 7.86434C5.75623 7.95948 5.62718 8.01293 5.49263 8.01293C5.35807 8.01293 5.22902 7.95948 5.13388 7.86434C5.03873 7.76919 4.98528 7.64014 4.98528 7.50559C4.98528 7.37103 5.03873 7.24198 5.13388 7.14684L7.12577 5.15494C7.17285 5.10777 7.22877 5.07034 7.29033 5.04481C7.35189 5.01927 7.41788 5.00613 7.48452 5.00613C7.55117 5.00613 7.61716 5.01927 7.67872 5.04481C7.74027 5.07034 7.79619 5.10777 7.84327 5.15494Z" fill="white"/>
</svg>
