<svg width="35" height="20" viewBox="0 0 35 20" fill="none" xmlns="http://www.w3.org/2000/svg">
<path d="M10.0566 0.638565L12.9071 7.01336L19.719 7.81375L14.6688 12.5513L16.0287 19.4159L10.0587 15.9755L4.08862 19.4159L5.44857 12.5513L0.394274 7.80869L7.2062 7.01336L10.0566 0.638565Z" fill="#78CAA4"/>
<path d="M18.7577 6.07737L13.9544 5.37918L11.8092 1.02307C11.6578 0.715994 11.4234 0.457424 11.1326 0.276622C10.8419 0.0958196 10.5063 0 10.1639 0C9.8215 0 9.48594 0.0958196 9.19517 0.276622C8.90441 0.457424 8.67004 0.715994 8.51859 1.02307L6.37039 5.37412L1.56703 6.07231C1.22856 6.1222 0.910778 6.26574 0.64959 6.48673C0.388402 6.70771 0.194216 6.99734 0.0889658 7.32287C-0.0162846 7.64841 -0.0284059 7.9969 0.053975 8.32896C0.136356 8.66103 0.309954 8.96344 0.555159 9.20204L4.03094 12.5918L3.21031 17.3739C3.15185 17.7114 3.18918 18.0586 3.31804 18.376C3.44691 18.6934 3.66217 18.9683 3.93938 19.1696C4.21659 19.3708 4.54467 19.4903 4.88637 19.5145C5.22807 19.5388 5.56972 19.4667 5.87255 19.3066L10.169 17.0481L14.4644 19.3066C14.7673 19.4659 15.1087 19.5373 15.45 19.5127C15.7914 19.4881 16.1191 19.3686 16.396 19.1675C16.673 18.9664 16.8882 18.6919 17.0173 18.375C17.1464 18.058 17.1842 17.7113 17.1266 17.3739L16.306 12.5918L19.7807 9.20406C20.0259 8.96546 20.1995 8.66305 20.2819 8.33099C20.3643 7.99892 20.3522 7.65044 20.2469 7.3249C20.1417 6.99936 19.9475 6.70974 19.6863 6.48875C19.4251 6.26777 19.1073 6.12422 18.7689 6.07434L18.7577 6.07737ZM14.9136 11.243C14.7005 11.4506 14.541 11.7069 14.449 11.9898C14.357 12.2727 14.3352 12.5738 14.3854 12.867L15.1808 17.5055L11.0149 15.3148C10.7514 15.1765 10.4584 15.1042 10.1609 15.1042C9.86334 15.1042 9.57027 15.1765 9.30684 15.3148L5.14096 17.5105L5.93731 12.8721C5.98661 12.5796 5.96432 12.2796 5.87233 11.9976C5.78034 11.7157 5.6214 11.4602 5.40911 11.2531L2.04059 7.96451L6.6952 7.28757C6.98934 7.24453 7.26863 7.13069 7.50905 6.95584C7.74946 6.78099 7.94382 6.55037 8.07539 6.28379L10.1588 2.06328L12.2443 6.2848C12.3756 6.55167 12.5699 6.78259 12.8103 6.95764C13.0508 7.13269 13.3302 7.24661 13.6245 7.28959L18.2791 7.96148L14.9136 11.243Z" fill="#115B33"/>
<path d="M24.187 3.2917H29.892C30.1482 3.2917 30.394 3.18989 30.5753 3.00867C30.7565 2.82744 30.8583 2.58165 30.8583 2.32536C30.8583 2.06907 30.7565 1.82328 30.5753 1.64206C30.394 1.46083 30.1482 1.35902 29.892 1.35902H24.187C23.9307 1.35902 23.6849 1.46083 23.5037 1.64206C23.3225 1.82328 23.2207 2.06907 23.2207 2.32536C23.2207 2.58165 23.3225 2.82744 23.5037 3.00867C23.6849 3.18989 23.9307 3.2917 24.187 3.2917Z" fill="#115B33"/>
<path d="M34.0335 6.3192H24.187C23.9307 6.3192 23.6849 6.42101 23.5037 6.60223C23.3225 6.78345 23.2207 7.02924 23.2207 7.28553C23.2207 7.54182 23.3225 7.78761 23.5037 7.96884C23.6849 8.15006 23.9307 8.25187 24.187 8.25187H34.0335C34.1604 8.25187 34.2861 8.22688 34.4033 8.17831C34.5206 8.12975 34.6271 8.05857 34.7169 7.96884C34.8066 7.8791 34.8778 7.77258 34.9263 7.65534C34.9749 7.53809 34.9999 7.41243 34.9999 7.28553C34.9999 7.15863 34.9749 7.03297 34.9263 6.91573C34.8778 6.79849 34.8066 6.69196 34.7169 6.60223C34.6271 6.5125 34.5206 6.44132 34.4033 6.39275C34.2861 6.34419 34.1604 6.3192 34.0335 6.3192Z" fill="#115B33"/>
<path d="M34.0335 11.2784H24.187C23.9307 11.2784 23.6849 11.3802 23.5037 11.5614C23.3225 11.7426 23.2207 11.9884 23.2207 12.2447C23.2207 12.501 23.3225 12.7468 23.5037 12.928C23.6849 13.1092 23.9307 13.2111 24.187 13.2111H34.0335C34.1604 13.2111 34.2861 13.1861 34.4033 13.1375C34.5206 13.0889 34.6271 13.0178 34.7169 12.928C34.8066 12.8383 34.8778 12.7318 34.9263 12.6145C34.9749 12.4973 34.9999 12.3716 34.9999 12.2447C34.9999 12.1178 34.9749 11.9922 34.9263 11.8749C34.8778 11.7577 34.8066 11.6511 34.7169 11.5614C34.6271 11.4717 34.5206 11.4005 34.4033 11.3519C34.2861 11.3034 34.1604 11.2784 34.0335 11.2784Z" fill="#115B33"/>
<path d="M34.0335 16.2376H24.187C23.9307 16.2376 23.6849 16.3394 23.5037 16.5206C23.3225 16.7018 23.2207 16.9476 23.2207 17.2039C23.2207 17.4602 23.3225 17.706 23.5037 17.8872C23.6849 18.0684 23.9307 18.1702 24.187 18.1702H34.0335C34.2898 18.1702 34.5356 18.0684 34.7169 17.8872C34.8981 17.706 34.9999 17.4602 34.9999 17.2039C34.9999 16.9476 34.8981 16.7018 34.7169 16.5206C34.5356 16.3394 34.2898 16.2376 34.0335 16.2376Z" fill="#115B33"/>
</svg>
