<svg width="21" height="18" viewBox="0 0 21 18" fill="none" xmlns="http://www.w3.org/2000/svg">
<path d="M19.954 11.7671C20.1691 11.7671 20.3753 11.685 20.5274 11.539C20.6794 11.3929 20.7649 11.1947 20.7649 10.9881V5.92271C20.7637 5.09637 20.4216 4.30419 19.8134 3.71988C19.2052 3.13557 18.3806 2.80684 17.5205 2.80576H16.2895C16.1202 2.80574 15.9552 2.75484 15.8176 2.66019C15.68 2.56554 15.5766 2.43188 15.522 2.27796L15.2765 1.58542C15.1127 1.12312 14.8024 0.721654 14.3892 0.437329C13.9759 0.153003 13.4804 7.75318e-05 12.9721 0H7.79066C7.29086 0.00135158 6.80355 0.150136 6.39463 0.42623C5.98571 0.702324 5.67491 1.09241 5.50427 1.54373L5.22376 2.29119C5.16686 2.44182 5.06311 2.57199 4.92659 2.66404C4.79006 2.75609 4.62737 2.80557 4.46057 2.80576H3.24434C2.38423 2.80684 1.55967 3.13557 0.951483 3.71988C0.343294 4.30419 0.0011203 5.09637 0 5.92271L0 14.8851C0.0016801 15.7111 0.344101 16.5027 0.95223 17.0866C1.56036 17.6705 2.3846 17.9989 3.24434 18H17.5205C18.3806 17.9989 19.2052 17.6702 19.8134 17.0859C20.4216 16.5016 20.7637 15.7094 20.7649 14.883C20.7649 14.6763 20.6794 14.478 20.5272 14.3319C20.3751 14.1857 20.1687 14.1035 19.9535 14.1035C19.7383 14.1035 19.5319 14.1857 19.3798 14.3319C19.2276 14.478 19.1422 14.6763 19.1422 14.883C19.1419 15.2964 18.9708 15.6928 18.6666 15.9851C18.3623 16.2774 17.9497 16.4418 17.5195 16.442H3.24434C2.81406 16.4418 2.40148 16.2774 2.09723 15.9851C1.79298 15.6928 1.62192 15.2964 1.62164 14.883V5.92271C1.62192 5.50932 1.79298 5.11295 2.09723 4.82064C2.40148 4.52833 2.81406 4.364 3.24434 4.36373H4.45846C4.95862 4.36279 5.4464 4.2142 5.85573 3.93808C6.26507 3.66196 6.57619 3.27164 6.74696 2.82L7.02747 2.07254C7.08437 1.92191 7.18812 1.79174 7.32465 1.69969C7.46117 1.60764 7.62386 1.55816 7.79066 1.55796H12.9774C13.1466 1.55798 13.3116 1.60888 13.4493 1.70354C13.5869 1.79819 13.6902 1.93184 13.7448 2.08576L13.9904 2.7783C14.1543 3.24025 14.4644 3.64138 14.8775 3.9255C15.2905 4.20962 15.7857 4.36249 16.2937 4.36271H17.5247C17.955 4.36298 18.3676 4.52731 18.6719 4.81962C18.9761 5.11193 19.1472 5.50831 19.1474 5.92169V10.9871C19.1472 11.1932 19.2319 11.391 19.3831 11.5372C19.5342 11.6833 19.7395 11.766 19.954 11.7671Z" fill="#030303"/>
<path d="M10.4231 5.14371C9.4205 5.14371 8.44041 5.42935 7.60678 5.96449C6.77315 6.49963 6.12343 7.26024 5.73975 8.15014C5.35607 9.04005 5.25568 10.0193 5.45128 10.964C5.64688 11.9087 6.12967 12.7765 6.83861 13.4576C7.54755 14.1387 8.4508 14.6025 9.43413 14.7905C10.4175 14.9784 11.4367 14.8819 12.363 14.5133C13.2893 14.1447 14.081 13.5205 14.638 12.7196C15.195 11.9187 15.4923 10.9771 15.4923 10.0139C15.4906 8.72272 14.956 7.48491 14.0057 6.57193C13.0554 5.65895 11.767 5.14532 10.4231 5.14371ZM10.4231 13.3261C9.74123 13.3261 9.07467 13.1318 8.50772 12.7679C7.94077 12.4039 7.49888 11.8866 7.23794 11.2814C6.977 10.6762 6.90874 10.0102 7.04176 9.3677C7.17479 8.7252 7.50313 8.13501 7.98528 7.67179C8.46743 7.20857 9.08174 6.89313 9.75051 6.76532C10.4193 6.63752 11.1125 6.70311 11.7424 6.9538C12.3724 7.20449 12.9108 7.62903 13.2897 8.17371C13.6685 8.7184 13.8707 9.35878 13.8707 10.0139C13.8696 10.892 13.506 11.7338 12.8597 12.3548C12.2134 12.9757 11.3371 13.325 10.4231 13.3261Z" fill="#030303"/>
</svg>
