<svg width="64" height="64" viewBox="0 0 64 64" fill="none" xmlns="http://www.w3.org/2000/svg">
<g clip-path="url(#clip0_128_863)">
<path d="M32 64C49.6731 64 64 49.6731 64 32C64 14.3269 49.6731 0 32 0C14.3269 0 0 14.3269 0 32C0 49.6731 14.3269 64 32 64Z" fill="#92DAB3"/>
<path d="M21.9465 29.1557L34.7752 40.2423L40.5703 28.7462L43.4363 20.0353L30.0824 24.7251L21.9465 29.1557Z" fill="white"/>
<path d="M43.3641 16.3975L17.9214 26.0631C17.4151 26.2552 16.9763 26.5918 16.6595 27.031C16.3426 27.4702 16.1617 27.9927 16.1391 28.5338C16.1165 29.0749 16.2533 29.6107 16.5324 30.0748C16.8115 30.5389 17.2207 30.9108 17.7092 31.1445L27.3287 35.7479L31.7874 45.4354C32.007 45.9126 32.358 46.3175 32.7992 46.6025C33.2405 46.8876 33.7538 47.0411 34.2791 47.0452L34.3739 47.0459C34.9149 47.0313 35.4399 46.8583 35.8836 46.5484C36.3273 46.2384 36.6704 45.805 36.8702 45.302L46.9212 20.0044C47.121 19.5051 47.1709 18.9583 47.0647 18.431C46.9586 17.9038 46.701 17.4189 46.3236 17.0357C45.9461 16.6526 45.4652 16.3878 44.9395 16.2738C44.4139 16.1597 43.8665 16.2014 43.3642 16.3937L43.3641 16.3975ZM34.1118 37.2606L31.9341 32.5312C31.6643 31.9447 31.1978 31.4712 30.6155 31.1926L25.9218 28.9404L39.4558 23.7937L34.1118 37.2606Z" fill="#07793C"/>
</g>
<defs>
<clipPath id="clip0_128_863">
<rect width="64" height="64" fill="white"/>
</clipPath>
</defs>
</svg>
