<svg width="85" height="50" viewBox="0 0 85 50" fill="none" xmlns="http://www.w3.org/2000/svg">
<g clip-path="url(#clip0_128_1231)">
<path d="M41.0706 33.1714C40.9972 33.1718 40.9241 33.1622 40.8534 33.1428C40.7846 33.1242 40.7188 33.0964 40.6576 33.0599C40.5974 33.024 40.5425 32.9797 40.4947 32.9285C40.4469 32.877 40.4069 32.8187 40.3761 32.7556C40.316 32.6314 40.295 32.4918 40.3161 32.3555C40.3263 32.2876 40.3465 32.2216 40.3761 32.1597C40.4068 32.0956 40.4468 32.0364 40.4947 31.9839L60.2069 10.3827L28.9975 11.9759L22.6887 22.783C22.6572 22.8419 22.6178 22.8963 22.5715 22.9445C22.5252 22.9925 22.4729 23.0343 22.4158 23.0688C22.358 23.1037 22.2961 23.131 22.2314 23.1502C22.0982 23.1901 21.957 23.195 21.8213 23.1645C21.7558 23.1498 21.6924 23.1267 21.6327 23.0959C21.5735 23.0643 21.5187 23.0249 21.4698 22.9788C21.4206 22.9339 21.3778 22.8824 21.3426 22.8259C21.3076 22.7699 21.2806 22.7093 21.2626 22.6458C21.2268 22.5217 21.2268 22.3899 21.2626 22.2657C21.2813 22.2022 21.3087 22.1416 21.3441 22.0857L27.86 10.9214C27.8923 10.866 27.9317 10.8151 27.9772 10.7699C28.0222 10.7248 28.0726 10.6854 28.1272 10.6527C28.1825 10.62 28.2415 10.5941 28.303 10.5756C28.3664 10.5582 28.4316 10.5486 28.4973 10.547L61.9474 8.83227C62.0226 8.82786 62.0982 8.83412 62.1717 8.85085C62.2432 8.86726 62.312 8.89372 62.376 8.92944C62.4387 8.96432 62.496 9.00812 62.5461 9.05948C62.5968 9.11126 62.6392 9.17054 62.6718 9.23524C62.7364 9.36263 62.7599 9.50691 62.739 9.6482C62.7287 9.71851 62.708 9.7869 62.6775 9.85111C62.6462 9.91726 62.6053 9.97842 62.5561 10.0326L41.6579 32.9185C41.6209 32.9585 41.5797 32.9944 41.535 33.0256C41.4902 33.0572 41.4424 33.084 41.3921 33.1057C41.2901 33.1495 41.1801 33.1718 41.0691 33.1714H41.0706Z" fill="#323C6B"/>
<path d="M22.0109 23.1588C21.9454 23.1587 21.8802 23.1505 21.8166 23.1345C21.7535 23.1188 21.6925 23.0953 21.6351 23.0645C21.5779 23.0352 21.5246 22.9987 21.4765 22.9559C21.4295 22.9138 21.3882 22.8658 21.3536 22.813C21.3202 22.7592 21.2942 22.701 21.2765 22.6401C21.243 22.52 21.243 22.393 21.2765 22.2729C21.2927 22.2113 21.3172 22.1521 21.3494 22.0971L27.8582 10.9214C27.8907 10.8628 27.9311 10.809 27.9782 10.7613C28.0246 10.7138 28.077 10.6725 28.134 10.6385C28.1917 10.6036 28.2536 10.5763 28.3183 10.557C28.4512 10.5179 28.5919 10.5135 28.727 10.5441C28.7925 10.5589 28.8559 10.582 28.9156 10.6127C28.9746 10.6431 29.0293 10.681 29.0785 10.7256C29.1277 10.7705 29.1705 10.822 29.2057 10.8785C29.2407 10.9345 29.2676 10.9951 29.2857 11.0586C29.3212 11.1828 29.3212 11.3145 29.2857 11.4387C29.267 11.5022 29.2396 11.5628 29.2042 11.6187L22.6868 22.7816C22.6532 22.8393 22.6119 22.8922 22.5639 22.9388C22.516 22.9851 22.4622 23.025 22.4039 23.0574C22.3449 23.09 22.282 23.1149 22.2167 23.1317C22.15 23.1489 22.0813 23.1576 22.0124 23.1574L22.0109 23.1588Z" fill="#323C6B"/>
<path d="M41.0714 33.1728C41.0034 33.1727 40.9358 33.1641 40.8699 33.1471C40.8062 33.1306 40.7447 33.1061 40.687 33.0742C40.6299 33.0431 40.5771 33.0047 40.5299 32.9599C40.4835 32.9164 40.4431 32.8669 40.4098 32.8127L27.8637 11.6301L27.8423 11.5887L27.8223 11.5458L27.8052 11.5029C27.8004 11.4887 27.7956 11.4739 27.7909 11.4587L26.6849 7.44048C26.6592 7.34746 26.6534 7.2501 26.6677 7.15469C26.6821 7.05941 26.7157 6.96803 26.7663 6.88605C26.8173 6.80361 26.8838 6.7318 26.9621 6.67456C27.0444 6.61446 27.1376 6.5708 27.2364 6.54596C27.3358 6.51798 27.4396 6.50925 27.5422 6.52024C27.6424 6.53229 27.7394 6.56333 27.828 6.61169C27.9114 6.66201 27.9841 6.728 28.0424 6.80603C28.1046 6.88113 28.1508 6.96817 28.1781 7.06181L29.2584 10.9914L41.753 32.0982C41.7853 32.1532 41.8099 32.2123 41.8259 32.274C41.8598 32.3946 41.8598 32.5221 41.8259 32.6427C41.8076 32.704 41.7812 32.7627 41.7473 32.817C41.7122 32.8698 41.6704 32.9178 41.623 32.9599C41.5751 33.004 41.5218 33.042 41.4644 33.0728C41.4066 33.104 41.3451 33.128 41.2815 33.1442C41.2166 33.1609 41.1499 33.1696 41.0829 33.1699L41.0714 33.1728Z" fill="#323C6B"/>
<path d="M31.9767 8.32645L24.2605 8.45649C23.9927 8.45924 23.7269 8.41073 23.4774 8.31359C23.2373 8.22561 23.0162 8.09274 22.8258 7.92206C22.6418 7.75371 22.4927 7.55074 22.3871 7.32477C22.2796 7.09312 22.2221 6.84138 22.2185 6.58601L22.2042 5.21708C22.2033 5.0767 22.2187 4.93669 22.25 4.79983C22.2825 4.6634 22.3305 4.53109 22.3929 4.40545C22.4524 4.27872 22.5257 4.15892 22.6115 4.04821C22.7009 3.93505 22.8025 3.83203 22.9144 3.74099C23.028 3.64901 23.1511 3.56948 23.2817 3.50379C23.4117 3.43833 23.5482 3.38661 23.6889 3.34946C23.9736 3.27382 24.2709 3.25825 24.562 3.30373L32.3083 4.54262C32.5394 4.57947 32.7627 4.65533 32.9684 4.76697C33.1649 4.87396 33.3418 5.0136 33.4914 5.17993C33.6389 5.34337 33.7565 5.53154 33.8387 5.73579C33.9284 5.95899 33.9724 6.19791 33.9683 6.43843C33.9641 6.67895 33.9118 6.91619 33.8144 7.13615C33.7126 7.36595 33.567 7.5737 33.3857 7.74773C33.2022 7.92567 32.987 8.06767 32.7512 8.16641C32.5044 8.27002 32.2401 8.32578 31.9725 8.33074L31.9767 8.32645Z" fill="#FCD462"/>
<path d="M24.216 9.01805C23.8735 9.01789 23.5341 8.95292 23.2157 8.82657C22.9133 8.70675 22.6361 8.53129 22.3984 8.3093C22.1659 8.09136 21.9781 7.83025 21.8454 7.54053C21.7094 7.24346 21.6368 6.92127 21.6325 6.59457L21.6139 5.2285C21.6119 5.04638 21.6311 4.86464 21.671 4.68694C21.7106 4.51028 21.7701 4.33867 21.8482 4.17538C21.9274 4.01031 22.0247 3.85455 22.1383 3.71097C22.2542 3.5636 22.386 3.42943 22.5313 3.31087C22.6781 3.18923 22.8376 3.08382 23.0071 2.9965C23.1759 2.9116 23.3531 2.84455 23.5358 2.79645C23.9054 2.69878 24.2914 2.67931 24.669 2.73929L32.4167 3.98247C32.7166 4.02842 33.0065 4.12506 33.274 4.26826C33.529 4.40653 33.7585 4.58726 33.9528 4.80268C34.1429 5.01284 34.2947 5.25464 34.4015 5.51715C34.5169 5.80581 34.5737 6.11456 34.5685 6.4254C34.5634 6.73623 34.4964 7.04293 34.3715 7.32761C34.2413 7.6252 34.0545 7.89458 33.8213 8.12068C33.5838 8.35141 33.3051 8.53559 32.9997 8.66367C32.6794 8.79765 32.3365 8.86942 31.9894 8.87516L24.2731 9.00376L24.216 9.01805ZM24.2246 3.83672C24.0362 3.83656 23.8496 3.87195 23.6744 3.94103C23.5877 3.97539 23.5044 4.01798 23.4258 4.06821C23.3475 4.11812 23.2743 4.17555 23.2072 4.23968C23.1408 4.3031 23.081 4.37299 23.0285 4.4483C22.9769 4.52227 22.9328 4.60126 22.8971 4.68408C22.8617 4.76636 22.8349 4.85208 22.8171 4.93986C22.7992 5.02779 22.7906 5.11735 22.7913 5.20707L22.8185 6.57742C22.8193 6.66587 22.8293 6.75399 22.8485 6.84035C22.8675 6.92632 22.8953 7.01011 22.9314 7.09041C22.9678 7.17092 23.0123 7.24752 23.0643 7.31904C23.1174 7.39208 23.1777 7.45958 23.2443 7.52052C23.3103 7.58352 23.3826 7.63954 23.4601 7.68771C23.5378 7.73581 23.6201 7.77602 23.7059 7.80774C23.7919 7.83972 23.881 7.86317 23.9716 7.87776C24.0661 7.89302 24.1618 7.89877 24.2574 7.8949L31.9737 7.7663C32.1476 7.75847 32.3188 7.72027 32.4795 7.65341C32.634 7.58928 32.7761 7.49887 32.8996 7.3862C33.0212 7.2755 33.1219 7.14385 33.1969 6.99753C33.2746 6.84958 33.3232 6.68802 33.3398 6.52169C33.3546 6.35653 33.3372 6.19005 33.2883 6.03157C33.2408 5.876 33.1647 5.73063 33.064 5.60289C32.9594 5.47461 32.8326 5.36619 32.6896 5.2828C32.5417 5.19378 32.3791 5.13184 32.2095 5.0999L24.4632 3.85386H24.4046L24.346 3.84386H24.2874H24.2274L24.2246 3.83672Z" fill="#323C6B"/>
<path d="M15.0731 31.0523C15.0215 31.052 14.9701 31.0453 14.9202 31.0323C14.8704 31.0198 14.8224 31.0011 14.7773 30.9766C14.7337 30.9527 14.6934 30.9234 14.6572 30.8894C14.6207 30.8552 14.589 30.8163 14.5629 30.7736L9.99461 23.2717C9.96585 23.2275 9.9437 23.1794 9.92888 23.1288C9.89976 23.0362 9.89679 22.9373 9.92031 22.843C9.93289 22.7928 9.95262 22.7447 9.97889 22.7001C10.0056 22.6559 10.0383 22.6155 10.0761 22.5801C10.1133 22.5443 10.1551 22.5136 10.2004 22.4887C10.2455 22.4642 10.2935 22.4454 10.3433 22.4329C10.4468 22.4059 10.5555 22.4059 10.6591 22.4329C10.7091 22.4467 10.7571 22.4669 10.802 22.4929C10.8476 22.5195 10.8894 22.5522 10.9263 22.5901C10.9638 22.6264 10.996 22.6677 11.022 22.713L15.5946 30.2206C15.6331 30.283 15.658 30.3528 15.6679 30.4254C15.6777 30.498 15.6722 30.5718 15.6518 30.6422C15.6315 30.712 15.5975 30.7771 15.5518 30.8337C15.5031 30.8924 15.4434 30.9409 15.376 30.9766C15.3533 30.9885 15.33 30.999 15.306 31.008C15.26 31.026 15.212 31.0385 15.1631 31.0451C15.1374 31.0467 15.1116 31.0467 15.0859 31.0451L15.0731 31.0523Z" fill="#323C6B"/>
<path d="M14.1878 31.8825C14.1363 31.8827 14.0849 31.8764 14.0349 31.8639C14.0102 31.8578 13.9858 31.8502 13.962 31.841C13.9385 31.832 13.9156 31.8215 13.8935 31.8096L5.95284 27.4799C5.88556 27.4435 5.82628 27.3939 5.77851 27.3342C5.73319 27.2776 5.69967 27.2125 5.67992 27.1427C5.66017 27.0735 5.65482 27.0011 5.6642 26.9298C5.67413 26.8558 5.69944 26.7847 5.7385 26.7212C5.77879 26.656 5.83176 26.5997 5.89426 26.5554C5.95547 26.5117 6.02427 26.4797 6.09717 26.4611C6.17067 26.4412 6.24718 26.4349 6.32294 26.4425C6.40086 26.4528 6.47606 26.478 6.54442 26.5168L14.4865 30.8494C14.5426 30.8793 14.5933 30.9184 14.6365 30.9651C14.678 31.0097 14.7119 31.0609 14.7365 31.1166C14.7864 31.2291 14.795 31.3556 14.7608 31.4738C14.7435 31.5338 14.716 31.5904 14.6794 31.641C14.6429 31.6912 14.5985 31.7351 14.5479 31.771C14.4969 31.8076 14.4405 31.8361 14.3807 31.8553C14.3184 31.8754 14.2533 31.8856 14.1878 31.8853V31.8825Z" fill="#323C6B"/>
<path d="M13.8636 33.0171H4.6827C4.60446 33.0174 4.52687 33.0029 4.45407 32.9742C4.38464 32.9464 4.32113 32.9057 4.26688 32.8542C4.21381 32.8045 4.17108 32.7447 4.14113 32.6784C4.11102 32.611 4.09546 32.538 4.09546 32.4641C4.09546 32.3902 4.11102 32.3172 4.14113 32.2498C4.17124 32.1824 4.21448 32.1217 4.26831 32.0711C4.3226 32.0197 4.38611 31.979 4.4555 31.9511C4.52831 31.9225 4.60589 31.908 4.68413 31.9082H13.8679C13.9462 31.9079 14.0237 31.9225 14.0965 31.9511C14.1659 31.9785 14.2294 32.0187 14.2837 32.0697C14.3368 32.1194 14.3796 32.1792 14.4095 32.2455C14.4396 32.3129 14.4552 32.386 14.4552 32.4598C14.4552 32.5337 14.4396 32.6067 14.4095 32.6742C14.379 32.7405 14.3358 32.8002 14.2823 32.8499C14.2287 32.9022 14.1656 32.9439 14.0965 32.9728C14.0225 33.0024 13.9434 33.0175 13.8636 33.0171Z" fill="#323C6B"/>
<path d="M6.2244 38.457C6.15939 38.4571 6.09478 38.447 6.03292 38.427C5.97362 38.4077 5.9177 38.3793 5.86716 38.3427C5.81759 38.3066 5.77417 38.2626 5.73856 38.2127C5.70253 38.1625 5.67545 38.1064 5.65854 38.0469C5.64091 37.9886 5.63365 37.9277 5.6371 37.8669C5.64236 37.8071 5.65783 37.7486 5.68283 37.694C5.70669 37.6385 5.73952 37.5873 5.78 37.5425C5.82119 37.4966 5.86942 37.4575 5.92289 37.4268L13.8878 33.1099C13.9562 33.0712 14.0314 33.046 14.1093 33.0356C14.1843 33.0268 14.2603 33.0316 14.3336 33.0499C14.4065 33.068 14.4753 33.0995 14.5365 33.1428C14.5986 33.1866 14.6511 33.2425 14.6909 33.3071C14.7292 33.3693 14.7541 33.4388 14.7639 33.5111C14.7738 33.5835 14.7683 33.6571 14.748 33.7272C14.7278 33.7971 14.6938 33.8622 14.648 33.9187C14.5994 33.9774 14.5396 34.026 14.4722 34.0616L6.51876 38.3842C6.49657 38.396 6.47366 38.4065 6.45017 38.4156C6.42638 38.4247 6.40204 38.4324 6.3773 38.4385C6.32776 38.4508 6.27689 38.4571 6.22583 38.457H6.2244Z" fill="#323C6B"/>
<path d="M10.4464 42.4324C10.3932 42.4354 10.3399 42.4316 10.2878 42.4209C10.263 42.4149 10.2387 42.4072 10.2149 42.3981C10.1914 42.3891 10.1685 42.3786 10.1463 42.3666C10.0793 42.331 10.02 42.2825 9.97197 42.2237C9.92668 42.1676 9.89315 42.103 9.87337 42.0337C9.85293 41.9622 9.84806 41.8872 9.85908 41.8136C9.86904 41.7401 9.89436 41.6695 9.93339 41.6064L14.5531 34.1445C14.5778 34.0996 14.6086 34.0582 14.6446 34.0216C14.6809 33.9855 14.7217 33.9543 14.7661 33.9287C14.8109 33.9028 14.859 33.8826 14.909 33.8687C15.0125 33.8417 15.1212 33.8417 15.2247 33.8687C15.2745 33.8812 15.3226 33.8999 15.3676 33.9245C15.4124 33.949 15.4537 33.9792 15.4905 34.0145C15.5283 34.0493 15.561 34.0892 15.5877 34.1331C15.6136 34.1777 15.6328 34.2258 15.6449 34.276C15.6681 34.3703 15.6647 34.4693 15.6349 34.5618C15.6218 34.612 15.6016 34.6602 15.5748 34.7047L10.9536 42.1566C10.928 42.2012 10.8962 42.2421 10.8593 42.278C10.8232 42.3121 10.7828 42.3413 10.7393 42.3652C10.6941 42.3892 10.6461 42.4075 10.5964 42.4195C10.5471 42.4298 10.4967 42.4342 10.4464 42.4324Z" fill="#323C6B"/>
<path d="M16.2146 43.8824C16.1364 43.8827 16.0588 43.8682 15.986 43.8395C15.9171 43.8121 15.8541 43.7718 15.8002 43.7209C15.7476 43.6711 15.7053 43.6114 15.6759 43.5452C15.645 43.4789 15.6284 43.4068 15.6273 43.3337L15.6702 34.7186C15.6707 34.6446 15.6867 34.5716 15.7173 34.5043C15.7477 34.4374 15.7909 34.3772 15.8445 34.3271C15.899 34.2762 15.9625 34.2359 16.0317 34.2085C16.1774 34.1518 16.339 34.1518 16.4847 34.2085C16.5535 34.236 16.6165 34.2762 16.6705 34.3271C16.7258 34.3766 16.7705 34.4369 16.8019 34.5043C16.8316 34.5718 16.8467 34.6448 16.8462 34.7186L16.8033 43.3337C16.803 43.4076 16.7869 43.4807 16.7562 43.548C16.7253 43.6145 16.6816 43.6742 16.6276 43.7238C16.5732 43.7747 16.5097 43.8149 16.4404 43.8424C16.3683 43.8696 16.2917 43.8832 16.2146 43.8824Z" fill="#323C6B"/>
<path d="M21.9963 42.4323C21.9448 42.4325 21.8934 42.4263 21.8434 42.4137C21.7937 42.4018 21.7457 42.3835 21.7005 42.3594C21.6583 42.3372 21.6189 42.3099 21.5834 42.278C21.5474 42.2442 21.5162 42.2058 21.4905 42.1637L16.9479 34.7046C16.9191 34.6605 16.8969 34.6123 16.8821 34.5617C16.8533 34.469 16.8508 34.37 16.875 34.2759C16.8875 34.2257 16.9073 34.1776 16.9336 34.133C16.9597 34.0883 16.992 34.0475 17.0293 34.0116C17.0667 33.9763 17.1085 33.946 17.1536 33.9216C17.1988 33.8971 17.2468 33.8784 17.2965 33.8658C17.4001 33.8388 17.5088 33.8388 17.6123 33.8658C17.6623 33.8796 17.7104 33.8998 17.7552 33.9258C17.7999 33.9521 17.8407 33.9843 17.8767 34.0216C17.9128 34.0581 17.9435 34.0994 17.9681 34.1445L22.5093 41.605C22.535 41.6468 22.5547 41.692 22.5679 41.7393C22.5947 41.8327 22.5947 41.9317 22.5679 42.0251C22.5541 42.0724 22.5339 42.1176 22.5079 42.1594C22.4816 42.2015 22.4499 42.2399 22.4136 42.2737C22.3769 42.3078 22.3361 42.3371 22.2921 42.3609C22.2469 42.3849 22.1989 42.4031 22.1492 42.4152C22.0992 42.4272 22.0478 42.4329 21.9963 42.4323Z" fill="#323C6B"/>
<path d="M26.2527 38.4585C26.2016 38.4585 26.1508 38.4523 26.1012 38.4399C26.0765 38.4338 26.0521 38.4262 26.0284 38.417C26.0048 38.408 25.9819 38.3975 25.9598 38.3856L18.0477 34.0702C17.9806 34.0342 17.9213 33.9851 17.8734 33.9259C17.828 33.8693 17.7944 33.8042 17.7748 33.7344C17.7557 33.6656 17.7508 33.5937 17.7605 33.5229C17.7708 33.4488 17.7966 33.3778 17.8362 33.3143C17.8765 33.2492 17.9295 33.1928 17.992 33.1485C18.0533 33.1053 18.1221 33.0739 18.1949 33.0557C18.2684 33.0358 18.3449 33.0295 18.4207 33.0371C18.4981 33.0475 18.5728 33.0727 18.6407 33.1114L26.5542 37.4282C26.6078 37.4588 26.656 37.4979 26.6971 37.544C26.7382 37.5886 26.7715 37.6398 26.7957 37.6954C26.8442 37.8074 26.8518 37.9328 26.8171 38.0498C26.7997 38.1093 26.7721 38.1654 26.7357 38.2156C26.6996 38.2656 26.6557 38.3095 26.6056 38.3456C26.5546 38.3822 26.4982 38.4106 26.4385 38.4299C26.3766 38.4498 26.312 38.46 26.247 38.4599L26.2527 38.4585Z" fill="#323C6B"/>
<path d="M18.3536 31.8839C18.2886 31.884 18.224 31.8739 18.1621 31.8539C18.1023 31.8347 18.0459 31.8063 17.9949 31.7696C17.9448 31.7336 17.9009 31.6896 17.8649 31.6396C17.8287 31.5889 17.8016 31.5323 17.7849 31.4724C17.7669 31.4132 17.7597 31.3512 17.7634 31.2895C17.7682 31.2293 17.7831 31.1703 17.8077 31.1151C17.833 31.0594 17.8672 31.0082 17.9092 30.9637C17.953 30.9171 18.0042 30.878 18.0607 30.8479L26.0513 26.5154C26.1193 26.4769 26.1939 26.4517 26.2713 26.4411C26.3468 26.4321 26.4234 26.4369 26.4971 26.4554C26.57 26.4734 26.6388 26.5049 26.7 26.5483C26.7617 26.5926 26.8137 26.649 26.8529 26.714C26.8919 26.7772 26.9171 26.848 26.9267 26.9217C26.9363 26.9953 26.9301 27.0702 26.9086 27.1413C26.8883 27.2111 26.8543 27.2762 26.8086 27.3327C26.7595 27.3915 26.6993 27.4401 26.6314 27.4756L18.6494 31.8096C18.6267 31.8216 18.6033 31.8321 18.5794 31.841C18.5334 31.8591 18.4854 31.8715 18.4365 31.8782C18.409 31.8819 18.3813 31.8838 18.3536 31.8839Z" fill="#323C6B"/>
<path d="M17.4785 31.0523C17.4246 31.0531 17.3708 31.0468 17.3184 31.0337C17.2937 31.0276 17.2694 31.02 17.2456 31.0108C17.222 31.0013 17.1991 30.9904 17.177 30.978C17.11 30.9424 17.0507 30.8938 17.0026 30.8351C16.9578 30.7784 16.9247 30.7133 16.9055 30.6436C16.8864 30.5748 16.8815 30.5028 16.8912 30.4321C16.9016 30.358 16.9274 30.287 16.9669 30.2235L21.6138 22.713C21.639 22.668 21.6703 22.6266 21.7067 22.5901C21.7434 22.5539 21.7848 22.5227 21.8296 22.4972C21.8745 22.4712 21.9225 22.4511 21.9725 22.4372C22.076 22.4101 22.1848 22.4101 22.2883 22.4372C22.3381 22.4496 22.3861 22.4684 22.4312 22.4929C22.4759 22.5174 22.5172 22.5477 22.5541 22.583C22.5922 22.6173 22.6254 22.6567 22.6527 22.7001C22.6785 22.7448 22.6978 22.7929 22.7098 22.843C22.7324 22.9375 22.7285 23.0364 22.6984 23.1288C22.6831 23.1794 22.6604 23.2276 22.6312 23.2717L17.9886 30.7751C17.961 30.8179 17.9279 30.8568 17.89 30.8908C17.8534 30.9249 17.8126 30.9542 17.7686 30.978C17.7234 31.0025 17.6754 31.0212 17.6257 31.0337C17.5775 31.0457 17.5281 31.052 17.4785 31.0523Z" fill="#323C6B"/>
<path d="M16.2776 30.7494C16.1993 30.7492 16.1217 30.7342 16.049 30.7051C15.9796 30.6777 15.9161 30.6375 15.8618 30.5865C15.8087 30.5367 15.7659 30.477 15.736 30.4107C15.7052 30.3429 15.6891 30.2694 15.6889 30.1949L15.7317 21.517C15.7319 21.4421 15.748 21.368 15.7789 21.2998C15.8093 21.233 15.8525 21.1728 15.9061 21.1226C15.961 21.0716 16.0249 21.0314 16.0947 21.004C16.2425 20.9454 16.407 20.9454 16.5548 21.004C16.6241 21.0314 16.6876 21.0716 16.742 21.1226C16.7952 21.1728 16.8379 21.233 16.8677 21.2998C16.8977 21.3682 16.9128 21.4423 16.912 21.517L16.8692 30.1949C16.8689 30.2694 16.8528 30.3429 16.822 30.4107C16.7898 30.4775 16.7446 30.5373 16.6891 30.5865C16.6347 30.6373 16.5712 30.6776 16.5019 30.7051C16.4305 30.7336 16.3545 30.7486 16.2776 30.7494Z" fill="#323C6B"/>
<path d="M67.195 31.0523C67.1435 31.0525 67.0921 31.0462 67.0421 31.0337C66.9923 31.0213 66.9443 31.0026 66.8992 30.978C66.8556 30.9542 66.8152 30.9249 66.7792 30.8908C66.7431 30.8566 66.7118 30.8177 66.6863 30.775L62.2266 23.2717C62.1982 23.2275 62.1765 23.1793 62.1623 23.1288C62.1495 23.0822 62.1433 23.0342 62.1437 22.9859C62.1424 22.9378 62.1477 22.8897 62.1594 22.843C62.1726 22.7928 62.1928 22.7447 62.2194 22.7001C62.2467 22.6558 62.2799 22.6154 62.318 22.5801C62.3558 22.5443 62.3981 22.5135 62.4438 22.4886C62.5853 22.4128 62.7506 22.3944 62.9053 22.4372C62.9554 22.4509 63.0034 22.4711 63.0482 22.4972C63.0917 22.5228 63.1316 22.554 63.1668 22.5901C63.2029 22.6265 63.2337 22.6679 63.2583 22.713L67.7166 30.2206C67.7418 30.2625 67.761 30.3077 67.7737 30.3549C67.786 30.4015 67.7918 30.4496 67.7909 30.4978C67.7898 30.5463 67.7821 30.5944 67.768 30.6407C67.7568 30.6876 67.7395 30.7327 67.7166 30.775C67.6894 30.8178 67.6568 30.8567 67.6194 30.8908C67.5822 30.9249 67.5409 30.9541 67.4965 30.978C67.4056 31.0268 67.3039 31.0523 67.2007 31.0523H67.195Z" fill="#323C6B"/>
<path d="M66.3 31.8839C66.2744 31.8855 66.2486 31.8855 66.2229 31.8839C66.1974 31.8807 66.1721 31.876 66.1472 31.8696C66.1224 31.8636 66.0981 31.8559 66.0743 31.8468C66.0508 31.8378 66.0279 31.8273 66.0057 31.8153L58.1279 27.4799C58.0614 27.4442 58.0027 27.3956 57.955 27.337C57.9102 27.2795 57.8776 27.2133 57.8593 27.1427C57.8405 27.0734 57.8361 27.0009 57.8464 26.9298C57.8575 26.8557 57.8837 26.7846 57.9236 26.7212C57.9649 26.6559 58.0188 26.5996 58.0822 26.5554C58.144 26.5117 58.2132 26.4797 58.2866 26.4611C58.3601 26.4413 58.4366 26.435 58.5123 26.4425C58.5898 26.4528 58.6645 26.478 58.7324 26.5168L66.613 30.8494C66.6666 30.88 66.7148 30.9191 66.7559 30.9651C66.7966 31.0098 66.8294 31.061 66.853 31.1166C66.9012 31.2297 66.9077 31.3563 66.8716 31.4738C66.8533 31.534 66.8248 31.5905 66.7873 31.641C66.7502 31.6911 66.7054 31.735 66.6544 31.771C66.6029 31.8076 66.546 31.8361 66.4858 31.8553C66.4235 31.8754 66.3584 31.8855 66.2929 31.8854L66.3 31.8839Z" fill="#323C6B"/>
<path d="M65.9573 33.017H56.7764C56.6981 33.0175 56.6205 33.0029 56.5477 32.9742C56.4787 32.9465 56.4156 32.9057 56.362 32.8541C56.3097 32.8043 56.268 32.7446 56.2391 32.6784C56.2096 32.6103 56.195 32.5368 56.1962 32.4626C56.1975 32.388 56.2146 32.3144 56.2462 32.2469C56.2774 32.1806 56.3211 32.1209 56.3748 32.0711C56.4297 32.0197 56.4937 31.979 56.5635 31.9511C56.6368 31.9224 56.7148 31.9078 56.7935 31.9082H65.9773C66.0556 31.9077 66.1332 31.9223 66.2059 31.9511C66.2746 31.9788 66.3372 32.0195 66.3903 32.0711C66.4426 32.1209 66.4844 32.1806 66.5132 32.2469C66.5427 32.3149 66.5573 32.3885 66.556 32.4626C66.5547 32.5373 66.5377 32.6108 66.506 32.6784C66.4744 32.7448 66.4302 32.8045 66.376 32.8541C66.3218 32.9047 66.2589 32.9449 66.1902 32.9728C66.1161 33.0023 66.0371 33.0173 65.9573 33.017Z" fill="#323C6B"/>
<path d="M58.2431 38.4571C58.1786 38.4571 58.1145 38.4469 58.0531 38.427C57.9937 38.4079 57.9378 38.3794 57.8873 38.3427C57.8381 38.3067 57.7951 38.2628 57.7602 38.2127C57.725 38.1624 57.6989 38.1063 57.683 38.047C57.6671 37.9879 57.6618 37.9264 57.6673 37.8655C57.6728 37.8062 57.6883 37.7482 57.713 37.694C57.7383 37.6383 57.7726 37.5872 57.8145 37.5425C57.8584 37.4961 57.9095 37.457 57.9659 37.4268L65.9823 33.11C66.1192 33.0362 66.2787 33.0163 66.4295 33.0542C66.5019 33.0722 66.5703 33.1038 66.631 33.1471C66.6922 33.1909 66.7438 33.2469 66.7825 33.3114C66.82 33.374 66.844 33.4437 66.8529 33.516C66.8617 33.5884 66.8553 33.6618 66.8339 33.7316C66.8126 33.8015 66.7776 33.8666 66.731 33.923C66.6813 33.9818 66.6207 34.0303 66.5524 34.0659L58.5389 38.3842C58.5163 38.3961 58.4929 38.4066 58.4689 38.4156C58.3968 38.4432 58.3203 38.4573 58.2431 38.4571Z" fill="#323C6B"/>
<path d="M62.4083 42.4323C62.3549 42.433 62.3016 42.4268 62.2497 42.4137C62.2 42.4018 62.1519 42.3836 62.1068 42.3594C62.0637 42.3356 62.0238 42.3063 61.9882 42.2723C61.955 42.2371 61.9267 42.1977 61.9039 42.1551C61.8787 42.1132 61.8594 42.068 61.8467 42.0208C61.8344 41.9742 61.8286 41.9261 61.8296 41.8779C61.8301 41.8295 61.8373 41.7814 61.851 41.735C61.8653 41.6876 61.886 41.6424 61.9125 41.6007L66.6323 34.1445C66.6733 34.0799 66.7267 34.024 66.7894 33.9801C66.8512 33.9365 66.9205 33.9045 66.9938 33.8858C67.0673 33.866 67.1438 33.8597 67.2196 33.8673C67.2967 33.8762 67.3715 33.8999 67.4396 33.9373C67.5063 33.9728 67.5651 34.0214 67.6125 34.0802C67.6571 34.1368 67.6897 34.202 67.7083 34.2717C67.7265 34.3406 67.7304 34.4126 67.7197 34.4831C67.7083 34.5574 67.6815 34.6284 67.6411 34.6918L62.9213 42.1551C62.8945 42.1972 62.8623 42.2357 62.8256 42.2694C62.7884 42.3035 62.7471 42.3328 62.7027 42.3566C62.6575 42.3805 62.6095 42.3987 62.5598 42.4109C62.5098 42.4233 62.4584 42.4296 62.4069 42.4295L62.4083 42.4323Z" fill="#323C6B"/>
<path d="M68.1546 43.8827C68.0768 43.883 67.9997 43.8685 67.9274 43.8399C67.8588 43.8126 67.7963 43.7723 67.743 43.7213C67.6907 43.6715 67.6489 43.6118 67.6201 43.5455C67.5912 43.4778 67.577 43.4048 67.5787 43.3312L67.7402 34.719C67.7417 34.6448 67.7587 34.5718 67.7902 34.5046C67.8212 34.4378 67.8649 34.3776 67.9188 34.3274C67.9742 34.2764 68.0387 34.2362 68.1088 34.2088C68.1821 34.1802 68.2602 34.1656 68.3389 34.166C68.4172 34.1655 68.4948 34.18 68.5675 34.2088C68.6361 34.2361 68.6986 34.2764 68.7519 34.3274C68.8043 34.3776 68.8461 34.4379 68.8748 34.5046C68.9036 34.5723 68.9177 34.6454 68.9162 34.719L68.7519 43.334C68.7505 43.4082 68.7334 43.4812 68.7019 43.5484C68.6706 43.6147 68.627 43.6743 68.5732 43.7241C68.5182 43.775 68.4543 43.8152 68.3846 43.8427C68.3111 43.8704 68.2331 43.884 68.1546 43.8827Z" fill="#323C6B"/>
<path d="M73.9587 42.4324C73.9071 42.4326 73.8558 42.4263 73.8058 42.4138C73.756 42.4019 73.708 42.3836 73.6629 42.3595C73.6197 42.3357 73.5799 42.3064 73.5443 42.2723C73.5087 42.2385 73.478 42.2001 73.4528 42.158L69.0202 34.6975C68.9827 34.635 68.9587 34.5653 68.9499 34.4929C68.941 34.4205 68.9475 34.3471 68.9688 34.2774C68.9924 34.2073 69.0299 34.1427 69.0788 34.0874C69.1262 34.0283 69.1844 33.9788 69.2503 33.9416C69.3872 33.8679 69.5467 33.848 69.6976 33.8859C69.7695 33.904 69.8373 33.9355 69.8976 33.9788C69.959 34.023 70.0106 34.0794 70.0491 34.1445L74.4788 41.605C74.5036 41.647 74.5223 41.6922 74.5345 41.7393C74.5469 41.7859 74.5527 41.834 74.5517 41.8822C74.5507 41.9307 74.543 41.9788 74.5288 42.0251C74.5145 42.0725 74.4938 42.1176 74.4674 42.1594C74.4406 42.2015 74.4084 42.24 74.3716 42.2737C74.3345 42.3078 74.2932 42.3371 74.2487 42.3609C74.1582 42.4095 74.0571 42.435 73.9544 42.4352L73.9587 42.4324Z" fill="#323C6B"/>
<path d="M78.2732 38.4585C78.2475 38.4601 78.2217 38.4601 78.196 38.4585C78.171 38.4552 78.1461 38.4505 78.1217 38.4442C78.0974 38.4381 78.0736 38.4304 78.0502 38.4213C78.0267 38.4123 78.0038 38.4018 77.9817 38.3899L70.1296 34.0702C70.063 34.0347 70.0041 33.9861 69.9567 33.9273C69.9125 33.8701 69.8804 33.8045 69.8624 33.7344C69.8442 33.6654 69.8403 33.5935 69.851 33.5229C69.8624 33.4487 69.8892 33.3776 69.9296 33.3143C69.9705 33.2492 70.0239 33.1929 70.0868 33.1485C70.1491 33.1052 70.2188 33.0737 70.2925 33.0557C70.3656 33.036 70.4416 33.0297 70.5169 33.0371C70.5944 33.0473 70.6691 33.0726 70.7369 33.1114L78.5889 37.4282C78.6426 37.4587 78.6909 37.4978 78.7318 37.544C78.7721 37.5887 78.8044 37.6399 78.8276 37.6954C78.8508 37.7503 78.8643 37.8088 78.8676 37.8683C78.8707 37.9297 78.8629 37.9911 78.8447 38.0498C78.8262 38.1094 78.7977 38.1655 78.7604 38.2156C78.7233 38.2657 78.6785 38.3096 78.6275 38.3456C78.576 38.3822 78.5191 38.4106 78.4589 38.4299C78.397 38.4498 78.3324 38.4599 78.2674 38.4599L78.2732 38.4585Z" fill="#323C6B"/>
<path d="M70.4646 31.8839C70.3996 31.8841 70.335 31.874 70.2731 31.8539C70.2138 31.8348 70.1578 31.8063 70.1074 31.7696C70.0581 31.7336 70.0152 31.6896 69.9802 31.6396C69.9449 31.5888 69.9188 31.5322 69.903 31.4724C69.887 31.4128 69.8817 31.3509 69.8873 31.2895C69.8931 31.2291 69.909 31.1702 69.9345 31.1152C69.9604 31.0595 69.9952 31.0083 70.0374 30.9637C70.0818 30.9171 70.1334 30.8781 70.1903 30.8479L78.2352 26.5154C78.3725 26.4413 78.5326 26.4214 78.6839 26.4597C78.7563 26.4776 78.8247 26.5092 78.8854 26.5526C78.9467 26.5968 78.9983 26.6532 79.0368 26.7183C79.0747 26.7821 79.0986 26.8532 79.1068 26.9269C79.1145 26.9991 79.1072 27.0721 79.0854 27.1413C79.064 27.2112 79.029 27.2763 78.9825 27.3328C78.9327 27.3914 78.8721 27.44 78.8039 27.4756L70.7604 31.8082C70.7378 31.8206 70.7144 31.8316 70.6904 31.8411C70.6184 31.8691 70.5419 31.8837 70.4646 31.8839Z" fill="#323C6B"/>
<path d="M69.6031 31.0537C69.5491 31.0541 69.4953 31.0473 69.4431 31.0337C69.3933 31.0214 69.3452 31.0026 69.3002 30.978C69.2566 30.9543 69.2162 30.925 69.1802 30.8908C69.1441 30.8567 69.1128 30.8177 69.0873 30.7751C69.05 30.7125 69.0261 30.6428 69.0173 30.5704C69.0084 30.4981 69.0147 30.4247 69.0358 30.355C69.0502 30.3076 69.0708 30.2624 69.0973 30.2206L73.8556 22.713C73.8818 22.6679 73.914 22.6265 73.9514 22.5901C73.9882 22.554 74.0295 22.5228 74.0743 22.4972C74.2141 22.417 74.3794 22.394 74.5358 22.4329C74.5856 22.4453 74.6337 22.464 74.6787 22.4887C74.7236 22.5135 74.7649 22.5442 74.8016 22.5801C74.838 22.6156 74.8693 22.656 74.8945 22.7001C74.9441 22.7869 74.9679 22.8861 74.9631 22.9859C74.9601 23.0346 74.9505 23.0827 74.9345 23.1288C74.9181 23.1796 74.8945 23.2277 74.8645 23.2717L70.1175 30.7751C70.0887 30.8181 70.054 30.8571 70.0147 30.8908C69.9775 30.9249 69.9362 30.9542 69.8918 30.978C69.8008 31.0268 69.6992 31.0523 69.596 31.0523L69.6031 31.0537Z" fill="#323C6B"/>
<path d="M68.403 30.7493C68.3247 30.7494 68.2471 30.7343 68.1744 30.705C68.1059 30.6778 68.0433 30.6375 67.9901 30.5864C67.9378 30.5367 67.896 30.4769 67.8672 30.4107C67.8377 30.3426 67.823 30.2691 67.8243 30.1949L67.9886 21.517C67.9899 21.4419 68.0069 21.3679 68.0386 21.2998C68.0701 21.2328 68.1143 21.1727 68.1687 21.1226C68.2242 21.0717 68.2886 21.0314 68.3587 21.004C68.4319 20.9748 68.51 20.9598 68.5888 20.9597C68.6662 20.96 68.7428 20.9751 68.8146 21.004C68.8836 21.0317 68.9467 21.0725 69.0003 21.124C69.0536 21.1736 69.0963 21.2333 69.1261 21.2998C69.1557 21.3683 69.1703 21.4423 69.1689 21.517L69.0032 30.1949C69.0032 30.2692 68.9876 30.3427 68.9574 30.4107C68.9258 30.4771 68.8817 30.5368 68.8274 30.5864C68.7719 30.6374 68.7075 30.6776 68.6374 30.705C68.5628 30.7347 68.4833 30.7498 68.403 30.7493Z" fill="#323C6B"/>
<path d="M41.5297 42.5924C41.4515 42.5928 41.3739 42.5782 41.3011 42.5495C41.2322 42.5222 41.1691 42.4819 41.1153 42.4309C41.0626 42.3812 41.0203 42.3215 40.991 42.2552C40.9597 42.188 40.9431 42.1149 40.9424 42.0408L41.0539 32.9013C41.0547 32.8268 41.0712 32.7532 41.1025 32.6856C41.1326 32.6194 41.1753 32.5597 41.2282 32.5098C41.2839 32.458 41.3489 32.4173 41.4197 32.3898C41.493 32.361 41.571 32.3465 41.6498 32.3469C41.728 32.3465 41.8056 32.361 41.8784 32.3898C41.9473 32.4171 42.0103 32.4574 42.0641 32.5084C42.117 32.5585 42.1593 32.6188 42.1885 32.6856C42.217 32.7538 42.2306 32.8274 42.2285 32.9013L42.1199 42.0465C42.119 42.1206 42.1024 42.1937 42.0713 42.2609C42.0397 42.3252 41.996 42.383 41.9427 42.4309C41.8877 42.4819 41.8238 42.5221 41.7541 42.5495C41.6812 42.5781 41.6037 42.5926 41.5254 42.5924H41.5297Z" fill="#323C6B"/>
<path d="M43.3601 42.5924H39.692C39.6137 42.5928 39.5361 42.5782 39.4634 42.5495C39.395 42.522 39.3324 42.4818 39.279 42.4309C39.2263 42.3812 39.184 42.3215 39.1547 42.2552C39.1229 42.1881 39.1058 42.115 39.1047 42.0408C39.1074 41.9663 39.1259 41.8933 39.159 41.8265C39.19 41.7601 39.2336 41.7003 39.2876 41.6507C39.3421 41.5999 39.4056 41.5597 39.4748 41.5321C39.5476 41.5036 39.6252 41.489 39.7034 41.4893H43.3744C43.4526 41.4889 43.5302 41.5034 43.603 41.5321C43.6719 41.5595 43.735 41.5997 43.7888 41.6507C43.8415 41.7004 43.8838 41.7602 43.9131 41.8265C43.9425 41.8941 43.9571 41.9671 43.9559 42.0408C43.9551 42.1149 43.9385 42.188 43.9074 42.2552C43.8764 42.3216 43.8327 42.3813 43.7788 42.4309C43.7238 42.4819 43.6598 42.5221 43.5901 42.5495C43.5169 42.5783 43.4388 42.5928 43.3601 42.5924Z" fill="#323C6B"/>
<path d="M37.0876 8.19211C36.9848 8.19493 36.8824 8.17795 36.7861 8.14209C36.6949 8.1082 36.611 8.05728 36.5389 7.99206C36.4677 7.9283 36.4099 7.85108 36.3688 7.76485C36.3269 7.6757 36.3043 7.57866 36.3025 7.48014C36.3008 7.38162 36.32 7.28385 36.3588 7.19328C36.3964 7.10391 36.4513 7.02282 36.5203 6.95465C36.5902 6.88725 36.6721 6.83347 36.7618 6.79603C36.8563 6.75582 36.9577 6.734 37.0604 6.73173L46.6972 6.24018C46.7995 6.2351 46.9018 6.24965 46.9987 6.28304C47.0908 6.31437 47.1761 6.36285 47.2502 6.42594C47.3236 6.48821 47.3838 6.56447 47.4274 6.65028C47.4718 6.73832 47.4971 6.83478 47.5015 6.93331C47.506 7.03184 47.4895 7.13018 47.4531 7.22186C47.4176 7.31064 47.3652 7.39168 47.2988 7.46049C47.2305 7.53114 47.1495 7.58834 47.0601 7.6291C46.9666 7.67206 46.8657 7.69679 46.7629 7.70198L37.1276 8.19496L37.0876 8.19211Z" fill="#323C6B"/>
<path d="M49.9126 7.53763C49.8103 7.5403 49.7085 7.52332 49.6126 7.48762C49.5212 7.45336 49.4373 7.40194 49.3654 7.33615C49.2946 7.27241 49.2372 7.19516 49.1967 7.10895C49.1551 7.01937 49.1332 6.92192 49.1324 6.82316C49.1312 6.72494 49.1507 6.62757 49.1896 6.53737C49.2278 6.44957 49.2826 6.36999 49.3511 6.30303C49.4213 6.23454 49.5037 6.17978 49.594 6.14156C49.6885 6.10089 49.7898 6.07858 49.8926 6.07583L50.63 6.03724C50.732 6.03351 50.8338 6.04903 50.93 6.08297C51.0216 6.11464 51.1064 6.1631 51.1801 6.22586C51.2525 6.28759 51.3122 6.36281 51.3559 6.44735C51.4011 6.53617 51.4269 6.63358 51.4316 6.73314C51.4356 6.83075 51.419 6.92811 51.383 7.01892C51.3472 7.10833 51.2943 7.18988 51.2273 7.25899C51.159 7.32964 51.078 7.38684 50.9886 7.4276C50.8951 7.47059 50.7942 7.49532 50.6914 7.50048L49.9555 7.53906L49.9126 7.53763Z" fill="#323C6B"/>
<path d="M83.5198 43.1711C83.4667 43.1707 83.4139 43.1635 83.3627 43.1496C83.3127 43.1364 83.2646 43.1167 83.2198 43.0911C83.1757 43.0657 83.1354 43.0344 83.0997 42.9982C83.0641 42.9621 83.0338 42.9213 83.0097 42.8767C82.9626 42.7892 82.9418 42.69 82.9497 42.5909C82.954 42.542 82.965 42.4939 82.9826 42.448C83.0002 42.3986 83.0247 42.3519 83.0554 42.3094L83.2283 42.0722L83.3998 41.8336L83.5656 41.5907C83.6208 41.5097 83.6751 41.4278 83.7285 41.3449C83.7549 41.3013 83.7871 41.2614 83.8242 41.2263C83.8616 41.1911 83.9034 41.1609 83.9485 41.1363C84.0877 41.06 84.2507 41.0395 84.4043 41.0791C84.4543 41.0919 84.5023 41.1111 84.5472 41.1363C84.591 41.1609 84.6314 41.1911 84.6673 41.2263C84.7026 41.2615 84.7329 41.3014 84.7573 41.3449C84.8069 41.4316 84.8302 41.5309 84.8245 41.6307C84.8202 41.6796 84.8091 41.7277 84.7916 41.7736C84.775 41.8213 84.7519 41.8665 84.723 41.9079C84.6735 41.9927 84.6173 42.0784 84.5544 42.1651C84.4915 42.2518 84.4325 42.3375 84.3772 42.4223C84.3172 42.5081 84.2567 42.5928 84.1957 42.6767C84.1348 42.7605 84.0728 42.8443 84.01 42.9282C83.9818 42.9658 83.9492 42.9998 83.9128 43.0296C83.8755 43.0601 83.8347 43.086 83.7913 43.1068C83.7055 43.149 83.6112 43.1709 83.5155 43.1711H83.5198Z" fill="#323C6B"/>
<path d="M73.6624 50.0014C73.5927 50.0012 73.5236 49.9891 73.458 49.9657C73.3958 49.9433 73.3378 49.9105 73.2866 49.8685C73.2366 49.8287 73.194 49.7803 73.1608 49.7257C73.094 49.6109 73.074 49.4747 73.1051 49.3456C73.12 49.2823 73.1461 49.2223 73.1823 49.1684C73.2212 49.1127 73.2695 49.0644 73.3252 49.0255C73.3802 48.9829 73.442 48.9501 73.5081 48.9283C74.1822 48.7265 74.8448 48.488 75.4929 48.2138C76.1338 47.9392 76.7592 47.6296 77.3662 47.2865C77.974 46.9432 78.5622 46.5663 79.1281 46.1576C79.692 45.7516 80.2325 45.3142 80.7471 44.8473C80.8042 44.8018 80.8691 44.767 80.9385 44.7444C81.0091 44.7216 81.0831 44.7114 81.1572 44.7144C81.2293 44.7171 81.3004 44.7326 81.3672 44.7601C81.4347 44.7877 81.4963 44.8279 81.5487 44.8787C81.6 44.9281 81.6408 44.9874 81.6687 45.053C81.6951 45.1159 81.7087 45.1834 81.7087 45.2516C81.709 45.3202 81.6959 45.3882 81.6702 45.4517C81.6431 45.5187 81.6033 45.5798 81.553 45.6317C81.0048 46.1287 80.4289 46.5943 79.8283 47.0264C79.2264 47.4594 78.601 47.8587 77.9549 48.2224C77.3066 48.5879 76.6388 48.9175 75.9544 49.2098C75.263 49.5031 74.556 49.7584 73.8367 49.9743L73.7938 49.9857L73.751 49.9943H73.7067L73.6624 50.0014Z" fill="#323C6B"/>
<path d="M16.3374 17.6474C14.2392 17.644 12.1596 18.0407 10.2101 18.8163C8.35799 19.5537 6.66134 20.6333 5.20878 21.9985C3.78602 23.3338 2.64013 24.9361 1.83649 26.714C1.02297 28.519 0.601447 30.476 0.599723 32.4559C0.597998 34.4357 1.01611 36.3934 1.82648 38.1999C2.62081 39.9582 3.75415 41.5427 5.16163 42.8625C6.60142 44.213 8.28319 45.2795 10.1186 46.0062C14.0223 47.5384 18.3609 47.5384 22.2646 46.0062C24.1085 45.2785 25.7999 44.2123 27.2516 42.8625C28.6753 41.5425 29.8268 39.9566 30.641 38.1941C31.4684 36.3952 31.9051 34.4413 31.9224 32.4612C31.9396 30.4812 31.537 28.52 30.7411 26.7069C29.9553 24.93 28.824 23.3271 27.4131 21.9914C25.9751 20.6279 24.2916 19.5495 22.4518 18.8134C20.5054 18.0377 18.4284 17.6419 16.3331 17.6474H16.3374ZM16.2159 42.7353C14.762 42.7382 13.3208 42.4647 11.9691 41.9294C10.6864 41.4209 9.51118 40.6748 8.50534 39.7303C7.5193 38.806 6.72578 37.6958 6.17046 36.4637C5.60604 35.2008 5.31573 33.8327 5.31869 32.4494C5.32164 31.0661 5.61779 29.6992 6.18761 28.4388C6.75043 27.1993 7.55155 26.0826 8.54535 25.1522C9.56057 24.2004 10.7458 23.4481 12.0391 22.9345C14.7839 21.8485 17.8393 21.8485 20.5842 22.9345C21.8721 23.4477 23.0509 24.2007 24.0579 25.1536C25.0432 26.0844 25.8339 27.2015 26.3842 28.4402C26.9418 29.7061 27.2248 31.0759 27.2145 32.4591C27.2041 33.8423 26.9007 35.2077 26.3242 36.4651C25.7564 37.6981 24.9525 38.8079 23.9579 39.7317C22.9432 40.676 21.7606 41.4219 20.4713 41.9308C19.1169 42.4656 17.6735 42.7391 16.2173 42.7367L16.2159 42.7353Z" fill="#BBBBCD"/>
<path d="M16.3381 17.646C15.2501 17.6444 14.1646 17.7497 13.0973 17.9604C12.0435 18.1677 11.0126 18.4778 10.0193 18.8863C9.03863 19.2907 8.10046 19.7914 7.21861 20.381C6.33497 20.9707 5.51426 21.6497 4.76941 22.4072C6.39912 21.3876 8.19705 20.6657 10.0794 20.2752C11.9185 19.8937 13.809 19.826 15.6708 20.0752C17.5199 20.3192 19.3135 20.8784 20.9736 21.7285C22.6547 22.5889 24.1631 23.7514 25.4233 25.1579C26.6581 26.532 27.6176 28.1304 28.2497 29.8663C28.8516 31.5268 29.1324 33.2865 29.0771 35.0519C29.0222 36.8185 28.6344 38.559 27.9339 40.1818C27.1962 41.8794 26.1447 43.4225 24.8346 44.7301C26.2361 43.8651 27.4904 42.7817 28.5498 41.5207C29.5655 40.3105 30.3786 38.9439 30.9576 37.4739C31.5293 36.0219 31.8553 34.4848 31.9221 32.9256C31.9886 31.33 31.7798 29.7349 31.3048 28.2101C30.8254 26.6685 30.0887 25.2191 29.1257 23.9233C28.1669 22.6361 27.0093 21.5098 25.6962 20.5867C24.3611 19.6455 22.8892 18.9148 21.3322 18.4205C19.7172 17.9074 18.0327 17.6462 16.3381 17.646Z" fill="#9A9EAF"/>
<path d="M16.1925 47.708C14.0359 47.7126 11.8979 47.3077 9.89232 46.5148C7.98781 45.7617 6.24254 44.6558 4.74814 43.2554C3.28644 41.8843 2.10983 40.2382 1.28582 38.4113C0.44371 36.5377 0.00830228 34.5068 0.00830228 32.4526C0.00830228 30.3985 0.44371 28.3676 1.28582 26.494C2.12055 24.6505 3.31015 22.9894 4.78672 21.6056C6.29488 20.1884 8.05653 19.0681 9.97949 18.3033C14.0605 16.6863 18.6046 16.6863 22.6856 18.3033C24.5998 19.0671 26.3513 20.1877 27.8469 21.6056C29.3082 22.9912 30.4798 24.6533 31.2935 26.4954C32.1197 28.376 32.537 30.4106 32.5178 32.4646C32.4986 34.5186 32.0433 36.5451 31.1821 38.4099C30.3361 40.2375 29.141 41.8821 27.664 43.2511C26.1582 44.6501 24.4044 45.7555 22.4927 46.5105C20.4849 47.3035 18.3455 47.7103 16.1868 47.7094L16.1925 47.708ZM16.3354 18.209C14.3136 18.2047 12.3097 18.5864 10.431 19.3336C8.64942 20.0435 7.01729 21.0823 5.61979 22.3958C4.25064 23.6789 3.14748 25.2191 2.37324 26.9284C1.59029 28.6655 1.18445 30.5488 1.18248 32.4543C1.18051 34.3597 1.58246 36.2439 2.36181 37.9826C3.12795 39.678 4.22155 41.2053 5.57978 42.4766C6.96581 43.7757 8.58455 44.8015 10.351 45.5003C14.1109 46.9766 18.2899 46.9766 22.0497 45.5003C23.8243 44.8006 25.4522 43.7751 26.8495 42.4766C28.2201 41.2055 29.3283 39.6783 30.1118 37.9812C30.9084 36.2503 31.3285 34.37 31.3442 32.4646C31.36 30.5592 30.9711 28.6722 30.2033 26.9284C29.4475 25.2221 28.3611 23.6825 27.0067 22.3986C25.6198 21.0838 23.9959 20.0442 22.2212 19.335C20.3488 18.5863 18.3505 18.2027 16.334 18.2047L16.3354 18.209ZM16.2139 43.2897C14.6823 43.2928 13.164 43.0048 11.7399 42.4409C10.3874 41.9053 9.14816 41.1189 8.08757 40.1232C7.04843 39.1492 6.21218 37.9793 5.62694 36.6809C5.03229 35.3503 4.72636 33.9089 4.72932 32.4515C4.73227 30.9941 5.04404 29.5539 5.64408 28.2258C6.23664 26.9191 7.08049 25.7417 8.12758 24.7607C9.19783 23.7567 10.4475 22.9631 11.8114 22.4215C14.7032 21.2777 17.9219 21.2777 20.8137 22.4215C22.1721 22.9621 23.4154 23.7559 24.4775 24.7607C25.5155 25.7417 26.3485 26.919 26.9281 28.2244C27.5163 29.5582 27.8144 31.0017 27.8025 32.4593C27.7907 33.9169 27.4693 35.3554 26.8595 36.6794C26.2607 37.9776 25.4137 39.1461 24.366 40.1189C23.2971 41.1133 22.0515 41.8989 20.6937 42.4352C19.2674 43.0012 17.747 43.2921 16.2125 43.2926L16.2139 43.2897ZM16.3125 22.6887C14.9274 22.6863 13.5545 22.9477 12.2672 23.4589C11.0426 23.9448 9.9204 24.6569 8.95922 25.558C8.01935 26.4374 7.26146 27.4929 6.72865 28.6645C6.18961 29.8578 5.90976 31.1519 5.90754 32.4613C5.90532 33.7707 6.1808 35.0656 6.71579 36.2608C7.23977 37.4267 7.98908 38.4776 8.92064 39.353C9.87288 40.2473 10.9855 40.9537 12.2001 41.4349C14.7853 42.4517 17.6597 42.4517 20.245 41.4349C21.4651 40.9531 22.5843 40.2469 23.5444 39.353C24.4857 38.4785 25.2464 37.4279 25.7836 36.2608C26.3288 35.0706 26.6158 33.7785 26.6257 32.4695C26.6355 31.1604 26.368 29.8641 25.8407 28.6659C25.3203 27.4936 24.5723 26.4362 23.6401 25.5551C22.6874 24.6533 21.5722 23.9405 20.3536 23.4546C19.0684 22.9429 17.6973 22.6815 16.314 22.6844L16.3125 22.6887Z" fill="#323C6B"/>
<path d="M41.1833 27.6057L16.2797 30.2621L16.2583 34.6575L41.0718 37.2524L41.1833 27.6057Z" fill="#E1E6E9"/>
<path d="M41.0644 37.8083H40.9987L16.188 35.2091C16.1159 35.2015 16.0458 35.1812 15.9808 35.149C15.9187 35.1183 15.8625 35.0767 15.8151 35.0262C15.7686 34.9767 15.7318 34.9191 15.7065 34.8561C15.6804 34.7922 15.6673 34.7237 15.6679 34.6546L15.6893 30.2635C15.6893 30.1944 15.7029 30.1259 15.7293 30.062C15.7552 29.9991 15.7925 29.9414 15.8394 29.892C15.8866 29.8401 15.9427 29.797 16.0051 29.7648C16.0705 29.7326 16.1412 29.7123 16.2137 29.7048L41.1201 27.0498C41.1615 27.0455 41.2031 27.0455 41.2445 27.0498C41.2856 27.0532 41.3263 27.0609 41.3659 27.0727C41.4051 27.0844 41.4429 27.1002 41.4788 27.1198C41.5495 27.1598 41.6112 27.2138 41.6603 27.2785C41.6839 27.31 41.704 27.344 41.7203 27.3799C41.7533 27.4511 41.7699 27.5287 41.7689 27.6071L41.6603 37.251C41.6595 37.3256 41.643 37.3991 41.6117 37.4668C41.5807 37.5332 41.537 37.5929 41.4831 37.6425C41.4281 37.6935 41.3642 37.7337 41.2945 37.7611C41.2216 37.7897 41.1441 37.8042 41.0658 37.804L41.0644 37.8083ZM16.8468 34.1574L40.49 36.6309L40.5857 28.2287L16.8639 30.7651L16.8468 34.1574Z" fill="#323C6B"/>
<path d="M41.1829 27.6057C41.865 27.6042 42.5411 27.7332 43.1748 27.9858C43.775 28.2251 44.324 28.5767 44.7924 29.0218C45.2506 29.4569 45.6174 29.9792 45.8712 30.5579C46.1296 31.1497 46.2587 31.7898 46.2499 32.4355C46.2408 33.0841 46.0948 33.7235 45.8212 34.3117C45.5523 34.89 45.1732 35.4103 44.7052 35.8435C44.2277 36.2862 43.6719 36.6361 43.0662 36.8752C42.4293 37.1268 41.7505 37.2553 41.0657 37.2539C40.387 37.2546 39.7144 37.126 39.0838 36.8752C38.4845 36.637 37.936 36.2869 37.4676 35.8435C37.008 35.4106 36.6393 34.8903 36.3831 34.3131C36.1242 33.7214 35.9946 33.0813 36.003 32.4355C36.0116 31.7859 36.1577 31.1455 36.4316 30.5565C36.6981 29.9777 37.0747 29.4565 37.5405 29.0218C38.018 28.5773 38.5744 28.226 39.1809 27.9858C39.8182 27.7336 40.4975 27.6046 41.1829 27.6057Z" fill="#D5D6DB"/>
<path d="M41.0668 37.8068C40.3085 37.8086 39.5567 37.6655 38.852 37.3853C38.1849 37.1217 37.5739 36.7338 37.0515 36.2422C36.5394 35.7571 36.1294 35.1746 35.8455 34.5289C35.5554 33.87 35.4092 33.1568 35.4168 32.4369C35.4237 31.7112 35.5844 30.9953 35.8884 30.3364C36.1871 29.6892 36.6094 29.1067 37.1315 28.6216C37.665 28.1303 38.2852 27.7427 38.9606 27.4785C39.6703 27.1957 40.4272 27.0503 41.1912 27.0498C41.9524 27.0495 42.7066 27.1951 43.4132 27.4785C44.0844 27.7431 44.6989 28.1335 45.2236 28.6288C45.735 29.1144 46.1441 29.6974 46.4268 30.3435C46.7174 31.0032 46.8635 31.7175 46.8555 32.4383C46.8412 33.1613 46.6747 33.8731 46.3668 34.5274C46.0661 35.1716 45.6428 35.7511 45.1207 36.2336C44.5876 36.7246 43.9679 37.1122 43.2931 37.3767C42.5851 37.6586 41.8303 37.804 41.0683 37.8054L41.0668 37.8068ZM41.1783 28.1658C40.5721 28.1652 39.9714 28.2797 39.4078 28.503C38.871 28.7158 38.3787 29.0269 37.956 29.4204C37.5421 29.8049 37.2072 30.2665 36.9701 30.7793C36.729 31.3006 36.6009 31.8669 36.5943 32.4412C36.5886 33.0127 36.705 33.5788 36.9358 34.1016C37.1618 34.6123 37.4872 35.0728 37.8932 35.4562C38.3073 35.8485 38.7922 36.1583 39.3221 36.3693C39.8813 36.592 40.4778 36.7059 41.0797 36.7051C41.6847 36.7062 42.2845 36.5927 42.8473 36.3708C43.3838 36.1593 43.8761 35.8496 44.2991 35.4577C44.7138 35.0742 45.0496 34.6136 45.2879 34.1016C45.5293 33.5809 45.6578 33.0151 45.6652 32.4412C45.6729 31.8692 45.5584 31.3021 45.3294 30.7779C45.1024 30.2643 44.7749 29.8012 44.3663 29.4161C43.9525 29.0224 43.4675 28.7111 42.9373 28.4987C42.3773 28.2753 41.7798 28.1609 41.1769 28.1615L41.1783 28.1658Z" fill="#323C6B"/>
<path d="M41.6425 32.9914C41.5643 32.9918 41.4867 32.9772 41.4139 32.9485C41.345 32.9211 41.2819 32.8809 41.2281 32.8299C41.1754 32.7801 41.1332 32.7204 41.1038 32.6541C41.0717 32.5862 41.0546 32.5121 41.0538 32.4369L41.1667 23.2531C41.1674 23.1781 41.1839 23.1041 41.2152 23.0359C41.245 22.9695 41.2872 22.9094 41.3396 22.8587C41.3958 22.8074 41.4613 22.7671 41.5325 22.7401C41.6075 22.7102 41.6875 22.6952 41.7682 22.6958C41.8466 22.6959 41.9242 22.7109 41.9969 22.7401C42.0659 22.768 42.1289 22.8087 42.1826 22.8602C42.2337 22.9104 42.2745 22.9701 42.3027 23.0359C42.3303 23.1049 42.343 23.1789 42.3398 23.2531L42.2369 32.4412C42.2355 32.5154 42.2184 32.5884 42.1869 32.6556C42.1557 32.7218 42.1121 32.7815 42.0583 32.8313C42.0034 32.8822 41.9394 32.9224 41.8697 32.9499C41.7972 32.9778 41.7202 32.9919 41.6425 32.9914Z" fill="#323C6B"/>
<path d="M43.3649 23.8104H40.4499C40.3715 23.8103 40.2939 23.7953 40.2212 23.7661C40.1517 23.7384 40.0882 23.6977 40.034 23.6461C39.9814 23.5963 39.9392 23.5365 39.9097 23.4703C39.8777 23.4023 39.8606 23.3283 39.8597 23.2531C39.8626 23.1776 39.8816 23.1035 39.9154 23.0359C39.9461 22.9692 39.9892 22.9091 40.0426 22.8587C40.098 22.8077 40.1625 22.7674 40.2327 22.7401C40.3059 22.7109 40.3839 22.6959 40.4627 22.6958H43.3749C43.4532 22.6959 43.5308 22.7109 43.6035 22.7401C43.6725 22.7679 43.7356 22.8087 43.7893 22.8602C43.8421 22.9104 43.8844 22.9706 43.9136 23.0373C43.944 23.1052 43.9596 23.1788 43.9593 23.2531C43.9586 23.3281 43.9421 23.4021 43.9108 23.4703C43.8797 23.5371 43.836 23.5973 43.7822 23.6475C43.7273 23.6989 43.6633 23.7396 43.5935 23.7675C43.5198 23.7964 43.4412 23.811 43.362 23.8104H43.3649Z" fill="#323C6B"/>
<path d="M16.2832 30.1949C16.6037 30.1944 16.9213 30.255 17.2191 30.3735C17.5019 30.4858 17.7608 30.6507 17.9822 30.8594C18.198 31.0616 18.3718 31.3044 18.4937 31.5738C18.6168 31.8522 18.6791 32.1535 18.6766 32.4578C18.6742 32.762 18.607 33.0623 18.4794 33.3386C18.3546 33.6082 18.1784 33.8509 17.9607 34.0531C17.738 34.261 17.4782 34.4253 17.1948 34.5375C16.5934 34.7747 15.9243 34.7747 15.3229 34.5375C15.0408 34.4255 14.7823 34.2611 14.5613 34.0531C14.3455 33.8508 14.1717 33.608 14.0497 33.3386C13.9262 33.0617 13.8629 32.7617 13.8638 32.4585C13.8648 32.1552 13.9301 31.8557 14.0555 31.5796C14.178 31.3084 14.3522 31.0638 14.5684 30.8594C14.7915 30.6508 15.0518 30.486 15.3358 30.3735C15.6372 30.2539 15.9589 30.1933 16.2832 30.1949Z" fill="#D5D6DB"/>
<path d="M16.2542 35.2776C15.8559 35.2781 15.4612 35.203 15.091 35.0561C14.7396 34.9167 14.4177 34.7121 14.1422 34.4531C13.8727 34.1995 13.6561 33.895 13.5049 33.5572C13.3515 33.2116 13.2732 32.8375 13.2749 32.4594C13.2766 32.0813 13.3584 31.7079 13.5149 31.3638C13.6693 31.0252 13.8888 30.7203 14.1608 30.4664C14.44 30.2063 14.7658 30.0013 15.121 29.862C15.8702 29.5662 16.7039 29.5662 17.4531 29.862C17.8047 30.0022 18.1267 30.2078 18.4019 30.4678C18.6716 30.7219 18.8882 31.0269 19.0392 31.3652C19.1921 31.711 19.2699 32.0853 19.2675 32.4634C19.265 32.8416 19.1823 33.2148 19.0249 33.5586C18.8701 33.8961 18.6507 34.2 18.379 34.4531C18.1017 34.7119 17.7785 34.9164 17.4259 35.0561C17.0552 35.2029 16.66 35.2781 16.2613 35.2776H16.2542ZM16.277 30.7508C16.0325 30.7495 15.79 30.7951 15.5626 30.8851C15.3484 30.9702 15.1521 31.0948 14.9839 31.2523C14.819 31.4064 14.6859 31.5914 14.5923 31.7967C14.4982 32.0061 14.4495 32.2331 14.4495 32.4626C14.4495 32.6922 14.4982 32.9191 14.5923 33.1285C14.6843 33.3333 14.8159 33.5178 14.9796 33.6715C15.1454 33.8282 15.3393 33.9523 15.5511 34.0373C16.0052 34.2162 16.5103 34.2162 16.9644 34.0373C17.181 33.9534 17.3798 33.8293 17.5502 33.6715C17.7155 33.518 17.849 33.3335 17.9432 33.1285C18.0387 32.9197 18.0887 32.693 18.0899 32.4634C18.0911 32.2338 18.0436 32.0066 17.9503 31.7967C17.8589 31.5916 17.7278 31.4066 17.5645 31.2523C17.3945 31.0936 17.1956 30.9689 16.9786 30.8851C16.7553 30.7965 16.5173 30.7509 16.277 30.7508Z" fill="#323C6B"/>
<path d="M68.3482 30.1949C68.6702 30.1934 68.9895 30.254 69.2885 30.3735C69.5692 30.4856 69.8258 30.6505 70.0444 30.8594C70.2575 31.0618 70.428 31.3047 70.5459 31.5738C70.6654 31.8521 70.7239 32.1527 70.7174 32.4555C70.7116 32.7606 70.6414 33.061 70.5117 33.3372C70.3829 33.6071 70.2034 33.8496 69.9829 34.0516C69.7574 34.2594 69.4953 34.4237 69.2099 34.536C68.9109 34.6537 68.5924 34.7138 68.2711 34.7132C67.9521 34.7141 67.6358 34.654 67.3394 34.536C67.056 34.4285 66.796 34.2674 66.5735 34.0616C66.36 33.8566 66.1899 33.6107 66.0734 33.3386C65.9534 33.0604 65.8945 32.7598 65.9005 32.4569C65.9069 32.1533 65.977 31.8544 66.1062 31.5796C66.2349 31.3096 66.4144 31.0671 66.6349 30.8651C66.8608 30.6566 67.1234 30.4919 67.4094 30.3793C67.7079 30.2592 68.0265 30.1966 68.3482 30.1949Z" fill="#E0E0E0"/>
<path d="M68.2509 35.2776C67.8535 35.2786 67.4596 35.2034 67.0906 35.0562C66.7415 34.9171 66.4223 34.7124 66.1503 34.4531C65.8843 34.1993 65.672 33.8946 65.5259 33.5572C65.3764 33.211 65.3028 32.8368 65.3101 32.4598C65.3173 32.0801 65.4044 31.7061 65.5659 31.3624C65.7255 31.024 65.9492 30.7197 66.2246 30.4664C66.5055 30.2071 66.8321 30.0022 67.1877 29.862C67.5604 29.715 67.9575 29.6399 68.358 29.6405C68.7559 29.6394 69.1502 29.7146 69.5198 29.862C69.8696 30.0017 70.1893 30.2074 70.4614 30.4678C70.7276 30.7221 70.94 31.0273 71.0859 31.3652C71.2344 31.7116 71.307 32.0858 71.2988 32.4626C71.2904 32.8421 71.2023 33.2155 71.0402 33.5586C70.8802 33.8965 70.6566 34.2002 70.3814 34.4531C70.1007 34.7117 69.7747 34.9161 69.4197 35.0562C69.048 35.2027 68.6519 35.2778 68.2523 35.2776H68.2509ZM68.3366 30.7508C68.0921 30.7498 67.8496 30.7954 67.6221 30.8851C67.4063 30.9703 67.2081 31.0948 67.0377 31.2523C66.8704 31.4062 66.7345 31.5911 66.6376 31.7967C66.5394 32.0053 66.4864 32.2322 66.4818 32.4626C66.4772 32.6913 66.5215 32.9184 66.6119 33.1285C66.7005 33.333 66.8293 33.5176 66.9905 33.6715C67.1559 33.8289 67.3499 33.9531 67.5621 34.0373C67.7862 34.1267 68.0253 34.1723 68.2666 34.1716C68.5111 34.1726 68.7536 34.127 68.981 34.0373C69.1968 33.9525 69.3949 33.8285 69.5655 33.6715C69.7327 33.518 69.8685 33.3337 69.9656 33.1285C70.0628 32.9198 70.1149 32.6929 70.1185 32.4626C70.1231 32.2339 70.0788 32.0069 69.9885 31.7967C69.8999 31.5918 69.7712 31.4066 69.6098 31.2523C69.4445 31.0944 69.2505 30.9698 69.0382 30.8851C68.815 30.7961 68.5769 30.7505 68.3366 30.7508Z" fill="#323C6B"/>
<path d="M68.5837 17.6474C66.4801 17.6449 64.3951 18.0415 62.4393 18.8163C60.5732 19.5547 58.8608 20.6338 57.3894 21.9985C55.9486 23.3326 54.7809 24.9342 53.9514 26.714C53.1124 28.5171 52.6634 30.477 52.6339 32.4655C52.6015 34.4366 52.9913 36.3918 53.777 38.1998C54.5471 39.9591 55.6617 41.5465 57.055 42.8682C58.4773 44.2196 60.1448 45.2866 61.9677 46.0118C63.8943 46.777 65.9492 47.1674 68.0221 47.1621C70.1092 47.1647 72.1781 46.7745 74.1209 46.0118C75.9772 45.2827 77.683 44.2169 79.1521 42.8682C80.5938 41.5491 81.767 39.9639 82.6073 38.1998C83.4588 36.4052 83.9228 34.4513 83.9691 32.4655C84.0178 30.4908 83.6426 28.5286 82.8688 26.7111C82.1097 24.9362 81.0007 23.3325 79.608 21.9956C78.1847 20.6284 76.5114 19.548 74.6796 18.8134C72.7398 18.0371 70.6688 17.6413 68.5794 17.6474H68.5837ZM68.1079 42.7353C66.6576 42.7389 65.2201 42.4653 63.8725 41.9293C62.5997 41.4215 61.4356 40.6751 60.443 39.7302C59.4704 38.805 58.693 37.6943 58.1567 36.4637C57.6085 35.1997 57.3371 33.833 57.3608 32.4555C57.3804 31.0671 57.6925 29.6984 58.2768 28.4387C58.8582 27.1979 59.675 26.0818 60.6817 25.1522C61.7106 24.2006 62.9074 23.4486 64.2112 22.9345C65.5758 22.3947 67.0304 22.1183 68.498 22.12C69.956 22.1163 71.4011 22.3928 72.7548 22.9345C74.0339 23.4466 75.2025 24.2 76.1971 25.1536C77.1721 26.0846 77.9496 27.2023 78.4834 28.4402C79.0251 29.7085 79.2887 31.0781 79.2565 32.4569C79.2257 33.8447 78.9029 35.2104 78.3091 36.4651C77.7231 37.6992 76.9041 38.8084 75.897 39.7316C74.8704 40.6751 73.6781 41.4207 72.3804 41.9308C71.0219 42.4649 69.5748 42.7384 68.115 42.7367L68.1079 42.7353Z" fill="#BBBBCD"/>
<path d="M68.5827 17.646C66.4124 17.6433 64.2626 18.0647 62.2539 18.8863C61.2641 19.2907 60.3165 19.7913 59.4246 20.381C58.5328 20.971 57.7032 21.6499 56.9482 22.4072C58.5894 21.3888 60.3969 20.6671 62.2882 20.2752C64.1288 19.8937 66.0207 19.8261 67.8839 20.0752C69.726 20.3179 71.5123 20.8772 73.1638 21.7285C74.8314 22.5879 76.324 23.7509 77.565 25.1579C78.7817 26.5336 79.7193 28.1327 80.3257 29.8663C80.9044 31.5311 81.16 33.2912 81.0787 35.0519C80.9959 36.8232 80.5815 38.5633 79.857 40.1818C79.0939 41.8811 78.0211 43.4235 76.6933 44.7301C78.1096 43.8641 79.3803 42.78 80.4586 41.5178C81.4911 40.309 82.3237 38.9428 82.9249 37.4711C83.5165 36.0221 83.8641 34.4853 83.9538 32.9228C84.0434 31.331 83.8573 29.7357 83.4036 28.2073C82.9474 26.668 82.2312 25.2181 81.2859 23.9205C80.3445 22.6337 79.2014 21.5074 77.9008 20.5853C76.5769 19.6436 75.1148 18.9133 73.5668 18.4205C71.9553 17.9068 70.274 17.6455 68.5827 17.646Z" fill="#9A9EAF"/>
<path d="M68.0136 47.708C65.861 47.7141 63.727 47.3092 61.7263 46.5148C59.8351 45.763 58.1051 44.6567 56.6292 43.2554C55.1831 41.884 54.0263 40.2369 53.2269 38.4113C52.4107 36.5355 52.0053 34.5067 52.0381 32.4612C52.0683 30.3977 52.5338 28.3638 53.4041 26.4925C54.2669 24.6469 55.4802 22.9867 56.9765 21.6041C58.5034 20.1885 60.2802 19.0692 62.2164 18.3033C64.2458 17.4992 66.4094 17.0876 68.5923 17.0901C70.7607 17.0846 72.9098 17.4965 74.9225 18.3033C76.8234 19.0656 78.5597 20.1868 80.0367 21.6056C81.4808 22.9915 82.6311 24.654 83.419 26.494C84.2222 28.3789 84.612 30.4142 84.5621 32.4626C84.5111 34.5221 84.0277 36.5479 83.1432 38.4084C82.2705 40.2377 81.0532 41.8814 79.558 43.2497C78.0341 44.6476 76.2655 45.7526 74.3409 46.5091C72.3269 47.3012 70.1821 47.7079 68.0179 47.708H68.0136ZM68.5723 18.209C66.5479 18.2065 64.5415 18.5881 62.6594 19.3335C60.8641 20.0443 59.2166 21.0827 57.801 22.3958C56.4138 23.6779 55.2888 25.2172 54.4887 26.9284C53.6809 28.6637 53.2485 30.5501 53.2198 32.4641C53.1891 34.3611 53.5648 36.2428 54.3215 37.9826C55.0626 39.6762 56.1354 41.2043 57.4766 42.4766C58.8457 43.7766 60.4506 44.8029 62.205 45.5003C64.0597 46.2369 66.038 46.6128 68.0336 46.6077C70.0425 46.6102 72.0338 46.2346 73.9037 45.5003C75.6903 44.7992 77.3321 43.7741 78.7464 42.4766C80.134 41.2063 81.263 39.6799 82.0715 37.9812C82.8909 36.2541 83.3373 34.3737 83.3818 32.4626C83.4265 30.5631 83.064 28.6761 82.3187 26.9284C81.5854 25.2219 80.5163 23.6805 79.175 22.3958C77.8056 21.0801 76.196 20.0401 74.4338 19.3321C72.5701 18.5848 70.5803 18.202 68.5723 18.2047V18.209ZM68.0965 43.2897C66.5685 43.2936 65.0538 43.0055 63.6339 42.4409C62.2912 41.9066 61.0631 41.1204 60.0158 40.1246C58.9899 39.1499 58.1697 37.9794 57.6038 36.6823C57.026 35.3503 56.7399 33.9101 56.765 32.4583C56.7885 30.9947 57.1206 29.5524 57.7395 28.2258C58.3518 26.9177 59.2122 25.7409 60.273 24.7606C61.3559 23.7575 62.6157 22.9644 63.9883 22.4215C65.4272 21.8527 66.9608 21.5618 68.508 21.5641C70.0448 21.5598 71.568 21.8509 72.9949 22.4215C74.343 22.9614 75.5748 23.7555 76.623 24.7606C77.6478 25.7425 78.4647 26.9204 79.025 28.2244C79.5957 29.5609 79.8734 31.0041 79.8395 32.4569C79.8058 33.9185 79.465 35.3567 78.8392 36.678C78.2208 37.9776 77.3571 39.1454 76.2957 40.1175C75.2138 41.1111 73.9577 41.8964 72.5905 42.4338C71.16 42.999 69.636 43.2898 68.0979 43.2911L68.0965 43.2897ZM68.4866 22.6887C67.0978 22.6871 65.7214 22.9484 64.4298 23.4589C63.1972 23.9459 62.0658 24.6577 61.0932 25.558C60.1428 26.4371 59.3717 27.492 58.8227 28.6645C58.2665 29.8558 57.9681 31.151 57.9467 32.4655C57.9238 33.7688 58.1801 35.0619 58.6983 36.2579C59.2049 37.4237 59.9401 38.4761 60.8603 39.353C61.8007 40.2479 62.9037 40.9546 64.1097 41.4349C65.3828 41.9414 66.7407 42.2004 68.1108 42.198C69.4923 42.1993 70.8618 41.9405 72.1475 41.4349C73.3757 40.952 74.504 40.2462 75.4755 39.353C76.43 38.4794 77.2063 37.4293 77.7618 36.2608C78.3235 35.0736 78.6288 33.7814 78.6578 32.4683C78.6896 31.1629 78.441 29.8658 77.929 28.6645C77.4259 27.494 76.6926 26.4366 75.7727 25.5551C74.8318 24.6528 73.7263 23.9397 72.5162 23.4546C71.2358 22.9415 69.8688 22.6791 68.4894 22.6815L68.4866 22.6887Z" fill="#323C6B"/>
<path d="M79.2333 33.017H70.7668C70.6886 33.0175 70.611 33.003 70.5382 32.9742C70.4696 32.9465 70.407 32.9057 70.3539 32.8542C70.3016 32.8044 70.2598 32.7446 70.231 32.6784C70.2019 32.6103 70.1878 32.5367 70.1895 32.4626C70.1909 32.388 70.2079 32.3145 70.2396 32.2469C70.2712 32.1804 70.3153 32.1208 70.3696 32.0711C70.4245 32.0198 70.4885 31.9791 70.5582 31.9511C70.6315 31.9224 70.7096 31.9079 70.7883 31.9082H79.2576C79.3358 31.9077 79.4135 31.9222 79.4862 31.9511C79.5547 31.9783 79.6173 32.0186 79.6706 32.0697C79.7229 32.1194 79.7647 32.1792 79.7934 32.2454C79.8225 32.3136 79.8366 32.3871 79.8349 32.4612C79.8331 32.5359 79.8156 32.6095 79.7834 32.677C79.7518 32.7434 79.7077 32.803 79.6534 32.8527C79.5989 32.9039 79.5354 32.9445 79.4662 32.9728C79.3921 33.0022 79.313 33.0173 79.2333 33.017Z" fill="#323C6B"/>
<path d="M68.5231 33.1814C68.4397 33.1814 68.3568 33.1684 68.2774 33.1428C68.2012 33.1184 68.1294 33.0822 68.0644 33.0356C68.0005 32.9898 67.9445 32.9338 67.8987 32.8699C67.8525 32.8058 67.8177 32.7343 67.7958 32.6584L60.0552 5.38994L56.28 4.18821C56.1848 4.15802 56.0964 4.10947 56.0199 4.04531C55.9452 3.98251 55.8839 3.90522 55.8399 3.81811C55.7959 3.73236 55.7703 3.6384 55.7647 3.54221C55.759 3.44602 55.7734 3.34971 55.807 3.2594C55.8414 3.16589 55.8943 3.08033 55.9628 3.0079C56.0304 2.9364 56.1109 2.87823 56.2 2.83643C56.2902 2.7933 56.3875 2.76714 56.4872 2.75927C56.5895 2.75171 56.6923 2.76384 56.7901 2.79499L60.9512 4.1239C61.0103 4.14279 61.0669 4.1687 61.1198 4.20107C61.1718 4.23229 61.2198 4.26971 61.2627 4.31252C61.3048 4.3554 61.3412 4.40341 61.3713 4.45542C61.4015 4.50698 61.4251 4.56221 61.4413 4.61975L69.2747 32.2626C69.2902 32.3165 69.2988 32.3722 69.3005 32.4283C69.3019 32.4835 69.2966 32.5387 69.2848 32.5927C69.2729 32.647 69.2547 32.6998 69.2305 32.7498C69.2052 32.8009 69.174 32.8489 69.1376 32.8927C69.1009 32.9378 69.0592 32.9786 69.0133 33.0142C68.969 33.0492 68.9211 33.0794 68.8704 33.1042C68.7629 33.1541 68.6459 33.1799 68.5274 33.1799L68.5231 33.1814Z" fill="#323C6B"/>
<path d="M54.5715 0.562978C54.8828 0.562069 55.1914 0.621261 55.4803 0.737308C55.7538 0.84743 56.0036 1.00896 56.2162 1.21315C56.4251 1.41392 56.5917 1.6544 56.7063 1.92047C56.8226 2.19115 56.8805 2.48328 56.8764 2.77783C56.8706 3.07418 56.8035 3.36612 56.6792 3.6352C56.5559 3.90135 56.3822 4.14107 56.1676 4.34109C55.9493 4.54497 55.6949 4.70634 55.4174 4.81693C55.1269 4.93253 54.817 4.99169 54.5043 4.99126C54.1938 4.99581 53.8852 4.9405 53.5955 4.82836C53.3221 4.71824 53.0723 4.55671 52.8596 4.35252C52.6509 4.15217 52.4843 3.91218 52.3695 3.64663C52.2528 3.37606 52.1943 3.08392 52.198 2.78927C52.2022 2.48905 52.2694 2.19306 52.3952 1.92047C52.5185 1.65432 52.6923 1.4146 52.9068 1.21457C53.125 1.01019 53.3794 0.848326 53.657 0.737308C53.948 0.621534 54.2584 0.562365 54.5715 0.562978Z" fill="#E1E6E9"/>
<path d="M54.4949 5.57286C54.1033 5.57444 53.7152 5.5002 53.3518 5.35423C53.0088 5.21645 52.6955 5.01417 52.4287 4.75836C52.1666 4.50742 51.9572 4.20671 51.8128 3.87385C51.6669 3.53028 51.5958 3.1596 51.6042 2.78643C51.6093 2.41169 51.6931 2.0422 51.85 1.70186C52.0046 1.36832 52.2225 1.06794 52.4916 0.817348C52.765 0.560988 53.0839 0.357934 53.4318 0.218622C53.7964 0.0734877 54.1854 -0.00071598 54.5778 -5.57146e-06C54.9694 -0.00159375 55.3576 0.0726482 55.721 0.218622C56.064 0.356833 56.3774 0.559598 56.6441 0.815919C56.9058 1.06739 57.1147 1.36859 57.2585 1.70186C57.4053 2.04379 57.4778 2.41296 57.4714 2.785C57.4649 3.15896 57.3802 3.52743 57.2228 3.8667C57.0679 4.1997 56.85 4.49957 56.5812 4.74979C56.3075 5.00507 55.9886 5.20714 55.6409 5.34566C55.2772 5.49037 54.8893 5.56456 54.4978 5.56428L54.4949 5.57286ZM54.565 1.12743C54.3306 1.12669 54.0983 1.17083 53.8805 1.25746C53.6734 1.33972 53.4834 1.45991 53.3204 1.61184C53.1593 1.76241 53.0292 1.94297 52.9374 2.1434C52.8453 2.3459 52.7967 2.56542 52.7945 2.78785C52.7905 3.00807 52.8329 3.22666 52.9188 3.42945C53.0045 3.6278 53.1288 3.80706 53.2846 3.95673C53.4431 4.10892 53.6294 4.22923 53.8333 4.3111C54.0487 4.39755 54.2786 4.4417 54.5107 4.44114C54.7441 4.44147 54.9754 4.39734 55.1923 4.3111C55.3994 4.22881 55.5893 4.10863 55.7524 3.95673C55.9135 3.80755 56.0441 3.62847 56.1368 3.42945C56.2288 3.22695 56.2775 3.00743 56.2797 2.785C56.2832 2.56468 56.2404 2.34609 56.1539 2.1434C56.0683 1.94507 55.9439 1.76581 55.7881 1.61612C55.6299 1.46256 55.4436 1.34081 55.2394 1.25746C55.0251 1.17092 54.7961 1.12629 54.565 1.126V1.12743Z" fill="#323C6B"/>
</g>
<defs>
<clipPath id="clip0_128_1231">
<rect width="84.9037" height="49.991" fill="white"/>
</clipPath>
</defs>
</svg>
