<svg width="16" height="16" viewBox="0 0 16 16" fill="none" xmlns="http://www.w3.org/2000/svg">
<path d="M7.28845 10.65C7.22209 10.7162 7.13218 10.7533 7.03845 10.7533C6.94472 10.7533 6.85481 10.7162 6.78845 10.65L4.78845 8.64996C4.68879 8.55021 4.63281 8.41497 4.63281 8.27396C4.63281 8.13296 4.68879 7.99772 4.78845 7.89796L5.03545 7.63996C5.13521 7.5403 5.27044 7.48432 5.41145 7.48432C5.55246 7.48432 5.6877 7.5403 5.78745 7.63996L7.03745 8.88996L10.4155 5.51196C10.5152 5.4123 10.6504 5.35632 10.7915 5.35632C10.9325 5.35632 11.0677 5.4123 11.1675 5.51196L11.4185 5.76296C11.5181 5.86272 11.5741 5.99796 11.5741 6.13896C11.5741 6.27997 11.5181 6.41521 11.4185 6.51496L7.28845 10.65Z" fill="#079A4B"/>
<path d="M8 15.5C12.1421 15.5 15.5 12.1421 15.5 8C15.5 3.85786 12.1421 0.5 8 0.5C3.85786 0.5 0.5 3.85786 0.5 8C0.5 12.1421 3.85786 15.5 8 15.5Z" stroke="#079A4B"/>
</svg>
