<svg width="27" height="27" viewBox="0 0 27 27" fill="none" xmlns="http://www.w3.org/2000/svg">
<g clip-path="url(#clip0_128_687)">
<path d="M26.6782 13.7526C26.6782 12.6464 26.5884 11.8392 26.3942 11.0021H13.7627V15.9948H21.1771C21.0277 17.2356 20.2205 19.1041 18.4266 20.3597L18.4015 20.5269L22.3953 23.6209L22.672 23.6485C25.2132 21.3015 26.6782 17.8484 26.6782 13.7526Z" fill="#4285F4"/>
<path d="M13.7628 26.9072C17.3952 26.9072 20.4447 25.7113 22.6721 23.6485L18.4267 20.3597C17.2906 21.152 15.7658 21.7051 13.7628 21.7051C10.2051 21.7051 7.18552 19.3583 6.10913 16.1144L5.95136 16.1278L1.79851 19.3418L1.7442 19.4927C3.95655 23.8876 8.50089 26.9072 13.7628 26.9072Z" fill="#34A853"/>
<path d="M6.10906 16.1145C5.82504 15.2774 5.66067 14.3804 5.66067 13.4536C5.66067 12.5268 5.82504 11.6299 6.09412 10.7928L6.08659 10.6145L1.88171 7.34894L1.74413 7.41438C0.832317 9.23812 0.309115 11.2861 0.309115 13.4536C0.309115 15.6211 0.832317 17.669 1.74413 19.4927L6.10906 16.1145Z" fill="#FBBC05"/>
<path d="M13.7628 5.20203C16.289 5.20203 17.9931 6.29326 18.9648 7.20518L22.7617 3.49794C20.4298 1.33042 17.3952 0 13.7628 0C8.50089 0 3.95655 3.01957 1.7442 7.41438L6.09419 10.7928C7.18552 7.54897 10.2051 5.20203 13.7628 5.20203Z" fill="#EB4335"/>
</g>
<defs>
<clipPath id="clip0_128_687">
<rect width="26.4" height="26.4" fill="white" transform="scale(1.02273)"/>
</clipPath>
</defs>
</svg>
