<svg width="25" height="18" viewBox="0 0 25 18" fill="none" xmlns="http://www.w3.org/2000/svg">
<path d="M11.6748 18H11.2593C11.0307 18 10.8717 18 10.7315 17.993C10.3137 17.989 9.8969 17.9539 9.48476 17.888C9.04093 17.8132 8.61101 17.6757 8.20895 17.4799C7.81129 17.2852 7.44776 17.0317 7.13157 16.7286C7.1056 16.7056 7.08898 16.6876 7.03807 16.6366C6.91028 16.5166 6.81989 16.4366 6.68587 16.3015C6.58198 16.2015 6.49367 16.1185 6.32848 15.9594L3.96178 13.6788C3.88074 13.6058 3.83815 13.5668 3.77269 13.5038C3.68646 13.4237 3.63867 13.3777 3.5327 13.2747L1.37691 11.1961L1.28236 11.1031L1.17847 11.0031C1.09432 10.922 1.04549 10.874 1.01016 10.836C0.829865 10.6642 0.659236 10.4832 0.499007 10.2939C0.349556 10.1407 0.228339 9.96412 0.140574 9.77171L0.117718 9.7117C-0.0392392 9.24824 -0.0392392 8.74876 0.117718 8.2853L0.140574 8.22628C0.226368 8.03249 0.347397 7.85499 0.497968 7.70214C0.654792 7.51681 0.821597 7.33951 0.997696 7.17099C1.07042 7.09697 1.12341 7.04596 1.18886 6.98294L1.24808 6.93092C1.29899 6.88191 1.33847 6.8429 1.38418 6.79689L3.53374 4.72431L3.60335 4.65829L3.6314 4.63129L3.66257 4.60228L3.70309 4.56227L3.74153 4.52626C3.79971 4.47024 3.861 4.41323 3.941 4.34021L5.24798 3.08186L5.26461 3.06585L6.30354 2.06557L6.32328 2.04657C6.47081 1.90453 6.57574 1.8035 6.67652 1.70947C6.7773 1.61545 6.87703 1.51842 6.99339 1.40939L7.02872 1.37238C7.0869 1.31236 7.09625 1.30336 7.10872 1.29036C7.43131 0.979467 7.80257 0.719231 8.20895 0.519144C8.61377 0.324217 9.04605 0.187396 9.49204 0.113031C9.89891 0.0502183 10.3101 0.0167825 10.7221 0.0130036C10.8946 0 11.0588 0 11.253 0C11.4297 0 11.5699 0 11.8764 0H18.8373C19.1489 0 19.2902 0 19.4606 0C19.631 0 19.792 0 19.9884 0.00700194C20.4061 0.0115629 20.8229 0.0466737 21.2351 0.112031C21.677 0.186847 22.1048 0.324383 22.5047 0.520144C22.9118 0.717304 23.2827 0.977125 23.6029 1.28936C23.9245 1.59956 24.1937 1.9563 24.4008 2.34665C24.6015 2.73585 24.7416 3.15144 24.8163 3.57999C24.8818 3.97069 24.9165 4.36559 24.9202 4.76132C24.9202 4.78533 24.9202 4.81034 24.9202 4.83634C24.9198 4.84501 24.9198 4.85369 24.9202 4.86235V4.88636C24.9202 4.90436 24.9202 4.92137 24.9202 4.93737V4.97338C24.9202 5.00939 24.9202 5.0434 24.9202 5.08941V5.17644V5.28347V12.6855V12.8096V12.8736C24.9202 13.0266 24.9202 13.1026 24.914 13.1907C24.9098 13.5962 24.8733 14.0008 24.8049 14.401C24.7276 14.8327 24.5844 15.251 24.38 15.6423C24.1732 16.0346 23.9032 16.3928 23.58 16.7036C23.2564 17.017 22.8825 17.2781 22.4725 17.4769C22.0668 17.6748 21.6325 17.813 21.1842 17.887C20.7721 17.9529 20.3553 17.988 19.9375 17.992C19.7297 17.992 19.5666 17.999 19.3973 17.999L11.6748 18ZM11.2593 1.33637C11.0878 1.33637 10.9258 1.33637 10.7471 1.34237C10.4032 1.34687 10.0601 1.37562 9.7206 1.4284C9.41301 1.47978 9.11506 1.57484 8.83647 1.71048C8.55976 1.84571 8.30752 2.02303 8.08947 2.23562L8.08116 2.24362L8.07389 2.25063L8.04168 2.28263L8.03545 2.28964L8.02194 2.30064C7.97727 2.34665 7.9648 2.35966 7.94506 2.37666C7.84117 2.46769 7.7487 2.55971 7.6552 2.64874C7.58974 2.70975 7.52637 2.77077 7.44741 2.84279L7.39339 2.90081L7.30715 2.98383L4.9176 5.28447L4.8615 5.33348L4.71916 5.46752L4.61527 5.56755L4.51138 5.66157L2.37325 7.72915L2.2278 7.87119L2.1478 7.94721L2.06572 8.02823V8.03423L1.98884 8.11025C1.83759 8.25428 1.69469 8.40622 1.5608 8.56538L1.51924 8.61139C1.48379 8.64659 1.45402 8.68672 1.43093 8.73042C1.37856 8.90694 1.37856 9.09405 1.43093 9.27057C1.4536 9.31338 1.48304 9.35252 1.5182 9.38661L1.56392 9.43662C1.70259 9.60178 1.85106 9.75909 2.00858 9.90775C2.05222 9.95376 2.10416 10.0078 2.16546 10.0628L2.26935 10.1628L2.32026 10.2118L2.34831 10.2398L2.37013 10.2609L4.51657 12.3314C4.62047 12.4315 4.66202 12.4715 4.72436 12.5255L4.86254 12.6555L4.87189 12.6645L4.92487 12.7105L7.31443 15.0112L7.62611 15.3113L7.63961 15.3233L7.67078 15.3533C7.79338 15.4713 7.87233 15.5463 7.95337 15.6193C7.97727 15.6413 7.97727 15.6413 8.03856 15.7024L8.05207 15.7164L8.10506 15.7704C8.32246 15.9794 8.57238 16.1546 8.84582 16.2895C9.12392 16.4244 9.42113 16.5191 9.72787 16.5706C10.0715 16.6245 10.4187 16.6536 10.7668 16.6576C10.9414 16.6576 11.0982 16.6636 11.2728 16.6646H19.4222C19.5635 16.6646 19.7037 16.6646 19.9417 16.6576C20.2897 16.6537 20.637 16.6246 20.9806 16.5706C21.2914 16.5192 21.5926 16.4235 21.8741 16.2865C22.1522 16.151 22.4061 15.9738 22.6263 15.7614C22.8459 15.5491 23.0303 15.3055 23.1727 15.0392C23.3143 14.7683 23.4133 14.4788 23.4668 14.1799C23.5236 13.8435 23.5542 13.5035 23.5582 13.1627V13.1186C23.5582 13.0526 23.5582 12.9876 23.5582 12.8816V12.7946C23.5582 12.7325 23.5582 12.7305 23.5582 12.6715V5.29147V5.19144C23.5582 5.09141 23.5582 5.0424 23.5582 4.99139V4.96138C23.5582 4.90336 23.5582 4.85135 23.5582 4.78933C23.5542 4.45788 23.5243 4.12719 23.4688 3.80006C23.4163 3.50457 23.3189 3.21811 23.18 2.94982C23.038 2.68426 22.8544 2.44134 22.6356 2.22962C22.4189 2.01967 22.1684 1.84471 21.8938 1.71148C21.6178 1.57604 21.3222 1.48129 21.017 1.4304C20.6734 1.37657 20.3261 1.34748 19.978 1.34337C19.843 1.34337 19.6757 1.33737 19.4689 1.33637H19.4045H18.856H11.8951C11.5741 1.33337 11.4369 1.33437 11.2603 1.33637H11.2593ZM17.8846 12.5315L15.0825 9.84373L12.2868 12.5385L12.2764 12.5285C12.2194 12.5835 12.1516 12.6271 12.0769 12.6565C11.9441 12.7079 11.7969 12.7138 11.6601 12.673C11.5234 12.6323 11.4053 12.5475 11.3259 12.4328C11.2464 12.3182 11.2103 12.1807 11.2238 12.0434C11.2372 11.9062 11.2992 11.7776 11.3995 11.6792C11.4324 11.6473 11.469 11.6191 11.5086 11.5952L14.2036 9.0025L11.3985 6.30175L11.4068 6.29375C11.3018 6.17895 11.2463 6.0299 11.2516 5.87703C11.257 5.72416 11.3227 5.57902 11.4354 5.47125C11.5482 5.36348 11.6994 5.30122 11.8582 5.29718C12.017 5.29314 12.1714 5.34763 12.2899 5.44951C12.3194 5.4779 12.3458 5.50907 12.3688 5.54254L15.0805 8.15226L17.8014 5.52854C17.8775 5.4249 17.9857 5.34714 18.1105 5.30642C18.2353 5.26571 18.3704 5.26413 18.4962 5.30191C18.622 5.3397 18.7321 5.4149 18.8108 5.51672C18.8894 5.61855 18.9325 5.74175 18.9339 5.86863C18.9332 6.02608 18.8683 6.17696 18.7531 6.28875L18.7604 6.29575L15.9584 9.0025L18.669 11.6032C18.7033 11.6256 18.7353 11.651 18.7645 11.6792C18.8669 11.7938 18.9207 11.9414 18.915 12.0925C18.9093 12.2435 18.8446 12.387 18.7339 12.4941C18.6231 12.6012 18.4744 12.6642 18.3176 12.6704C18.1607 12.6766 18.0072 12.6255 17.8877 12.5275L17.8846 12.5315Z" fill="black"/>
</svg>
