<svg width="21" height="21" viewBox="0 0 21 21" fill="none" xmlns="http://www.w3.org/2000/svg">
<path d="M19.3146 13.7839C18.0427 13.786 16.7788 13.5845 15.5706 13.1873C15.2866 13.0955 14.9836 13.0795 14.6916 13.141C14.3996 13.2025 14.1287 13.3393 13.9059 13.5378L11.5443 15.3203C9.00267 14.0554 6.94294 11.996 5.67753 9.45463L7.40736 7.15508C7.62764 6.93413 7.78277 6.65677 7.85573 6.35343C7.92869 6.0501 7.91666 5.73253 7.82095 5.43558C7.42403 4.22522 7.22331 2.95915 7.22642 1.68537C7.22615 1.23847 7.04849 0.809946 6.73248 0.493937C6.41647 0.177927 5.98795 0.000273922 5.54105 0L1.68537 0C1.23855 0.000547239 0.810188 0.178288 0.494238 0.494238C0.178288 0.810188 0.000547239 1.23855 0 1.68537C0.00547394 6.80623 2.04215 11.7158 5.66315 15.3368C9.28415 18.9578 14.1937 20.9945 19.3146 20.9999C19.7614 20.9994 20.1897 20.8217 20.5057 20.5057C20.8217 20.1897 20.9994 19.7614 20.9999 19.3146V15.4692C20.9994 15.0224 20.8217 14.594 20.5057 14.2781C20.1897 13.9621 19.7614 13.7844 19.3146 13.7839Z" fill="white"/>
</svg>
