<svg width="64" height="32" viewBox="0 0 64 32" fill="none" xmlns="http://www.w3.org/2000/svg">
<g clip-path="url(#clip0_128_357)">
<path d="M64.0013 32H0V-0.000640869H64.0013V32Z" fill="#000066"/>
<path d="M0 32V28.4222L56.8459 -0.000747681H64.0013V3.57692L7.15534 31.9999H0L0 32ZM64.0013 32V28.4223L7.15534 -0.000640869H0V3.57703L56.8459 32H64.0013Z" fill="white"/>
<path d="M26.6672 32V-0.000640869H37.3341V32H26.6672ZM0 21.3331V10.6662H64.0013V21.3331H0Z" fill="white"/>
<path d="M0 19.1997V12.7996H64.0013V19.1997H0ZM28.8006 32V-0.000640869H35.2007V32H28.8006Z" fill="#CC0000"/>
<path d="M0 -0.000640869L21.3338 10.6662H26.104L4.77023 -0.000640869H0H0ZM0 32L21.3338 21.3331H16.5635L0 29.6148V32H0ZM37.8973 21.3331L59.2311 32H64.0013L42.6675 21.3331H37.8973ZM64.0013 -0.000640869L42.6675 10.6662H47.4378L64.0013 2.38447V-0.000640869Z" fill="#CC0000"/>
</g>
<defs>
<clipPath id="clip0_128_357">
<rect width="64" height="32" fill="white" transform="matrix(1 0 0 -1 0 32)"/>
</clipPath>
</defs>
</svg>
